<svg width="326" height="326" viewBox="0 0 326 326" fill="none" xmlns="http://www.w3.org/2000/svg">
<path d="M185.134 172.526L164.525 137.384L205.263 137.107L185.134 172.526Z" fill="white"/>
<path d="M183.96 172.722L143.221 172.999L163.35 137.58L183.96 172.722Z" fill="white"/>
<path d="M141.998 172.82L121.389 137.678L162.127 137.4L141.998 172.82Z" fill="white"/>
<path d="M163.839 209.129L143.229 173.988L183.967 173.71L163.839 209.129Z" fill="white"/>
<path fill-rule="evenodd" clip-rule="evenodd" d="M227.506 168.039H225.147C223.997 183.61 217.127 197.59 206.629 207.885L208.316 209.525C219.227 198.806 226.353 184.248 227.506 168.039ZM162.988 225.712C176.822 225.712 189.603 221.206 199.944 213.58L201.652 215.242C190.867 223.296 177.485 228.064 162.988 228.064C149.788 228.064 137.511 224.11 127.277 217.321L128.745 215.471C138.572 221.945 150.34 225.712 162.988 225.712ZM121.827 210.189C110.083 199.853 102.26 185.167 100.877 168.65H98.5174C99.9088 185.913 108.079 201.263 120.363 212.034L121.827 210.189ZM227.547 159.336H225.19C223.953 140.034 213.931 123.123 199.081 112.558L200.964 111.015C216.127 122.03 226.32 139.469 227.547 159.336ZM162.988 101.051C173.427 101.051 183.267 103.617 191.911 108.154L193.882 106.54C184.702 101.54 174.177 98.6992 162.988 98.6992C151.402 98.6992 140.528 101.745 131.122 107.08L132.669 108.909C141.643 103.903 151.983 101.051 162.988 101.051ZM125.33 113.709L123.809 111.91C109.16 123.079 99.4201 140.359 98.3955 159.948H100.751C101.775 141.08 111.191 124.445 125.33 113.709Z" fill="white"/>
<path d="M226.033 165.899L223.483 161.168L224.417 161.156L226.554 165.297H226.562L228.634 161.103L229.519 161.091L227.091 165.885L226.033 165.899Z" fill="white"/>
<mask id="mask0_267_417" style="mask-type:luminance" maskUnits="userSpaceOnUse" x="222" y="160" width="9" height="7">
<path d="M230.388 160.576H222.695V166.411H230.388V160.576Z" fill="white"/>
<path d="M226.033 165.899L223.483 161.168L224.418 161.157L226.554 165.297H226.563L228.635 161.103L229.519 161.092L227.091 165.886L226.033 165.899Z" fill="black"/>
</mask>
<g mask="url(#mask0_267_417)">
<path d="M226.033 165.899L225.619 166.122L225.754 166.373L226.039 166.37L226.033 165.899ZM223.483 161.168L223.478 160.698L222.701 160.708L223.07 161.391L223.483 161.168ZM224.418 161.157L224.836 160.941L224.703 160.682L224.412 160.686L224.418 161.157ZM226.554 165.297L226.137 165.513L226.27 165.771L226.56 165.768L226.554 165.297ZM226.563 165.297L226.569 165.768L226.857 165.764L226.985 165.506L226.563 165.297ZM228.635 161.103L228.629 160.632L228.341 160.636L228.213 160.895L228.635 161.103ZM229.519 161.092L229.939 161.304L230.29 160.611L229.514 160.621L229.519 161.092ZM227.091 165.886L227.097 166.356L227.382 166.352L227.511 166.098L227.091 165.886ZM226.447 165.676L223.898 160.945L223.07 161.391L225.619 166.122L226.447 165.676ZM223.49 161.639L224.424 161.627L224.412 160.686L223.478 160.698L223.49 161.639ZM224 161.372L226.137 165.513L226.973 165.081L224.836 160.941L224 161.372ZM226.56 165.768H226.569L226.557 164.827H226.549L226.56 165.768ZM226.985 165.506L229.057 161.311L228.213 160.895L226.141 165.089L226.985 165.506ZM228.641 161.573L229.526 161.562L229.514 160.621L228.629 160.632L228.641 161.573ZM229.1 160.879L226.671 165.673L227.511 166.098L229.939 161.304L229.1 160.879ZM227.085 165.415L226.027 165.429L226.039 166.37L227.097 166.356L227.085 165.415Z" fill="white"/>
</g>
<path d="M197.681 111.329L192.366 110.529L192.918 109.775L197.512 110.551L197.517 110.544L195.406 106.37L195.927 105.655L198.305 110.475L197.681 111.329Z" fill="white"/>
<mask id="mask1_267_417" style="mask-type:luminance" maskUnits="userSpaceOnUse" x="191" y="104" width="10" height="11">
<path d="M200.627 104.709H191.497V114.248H200.627V104.709Z" fill="white"/>
<path d="M197.681 111.329L192.366 110.529L192.918 109.774L197.512 110.55L197.517 110.544L195.406 106.369L195.927 105.655L198.305 110.474L197.681 111.329Z" fill="black"/>
</mask>
<g mask="url(#mask1_267_417)">
<path d="M197.681 111.329L197.611 111.795L197.893 111.837L198.061 111.607L197.681 111.329ZM192.367 110.529L191.987 110.252L191.529 110.879L192.297 110.994L192.367 110.529ZM192.918 109.775L192.997 109.311L192.71 109.262L192.538 109.497L192.918 109.775ZM197.513 110.551L197.434 111.015L197.721 111.063L197.892 110.828L197.513 110.551ZM197.517 110.544L197.897 110.822L198.067 110.589L197.937 110.332L197.517 110.544ZM195.406 106.37L195.026 106.092L194.856 106.325L194.986 106.582L195.406 106.37ZM195.928 105.655L196.35 105.447L196.006 104.75L195.548 105.378L195.928 105.655ZM198.306 110.475L198.685 110.752L198.853 110.522L198.727 110.267L198.306 110.475ZM197.751 110.864L192.437 110.064L192.297 110.994L197.611 111.795L197.751 110.864ZM192.747 110.807L193.298 110.052L192.538 109.497L191.987 110.252L192.747 110.807ZM192.84 110.238L197.434 111.015L197.591 110.087L192.997 109.311L192.84 110.238ZM197.892 110.828L197.897 110.822L197.138 110.267L197.133 110.273L197.892 110.828ZM197.937 110.332L195.826 106.157L194.986 106.582L197.098 110.756L197.937 110.332ZM195.786 106.647L196.308 105.933L195.548 105.378L195.026 106.092L195.786 106.647ZM195.506 105.863L197.884 110.683L198.727 110.267L196.35 105.447L195.506 105.863ZM197.926 110.197L197.301 111.052L198.061 111.607L198.685 110.752L197.926 110.197Z" fill="white"/>
</g>
<path d="M130.58 109.512L128.15 114.305L127.607 113.545L129.788 109.427L129.783 109.42L125.156 110.113L124.642 109.393L129.964 108.65L130.58 109.512Z" fill="white"/>
<mask id="mask2_267_417" style="mask-type:luminance" maskUnits="userSpaceOnUse" x="123" y="105" width="10" height="11">
<path d="M132.863 105.698H123.764V115.235H132.863V105.698Z" fill="white"/>
<path d="M130.58 109.511L128.15 114.305L127.607 113.545L129.788 109.427L129.783 109.42L125.156 110.112L124.642 109.392L129.964 108.65L130.58 109.511Z" fill="black"/>
</mask>
<g mask="url(#mask2_267_417)">
<path d="M130.58 109.512L130.999 109.724L131.128 109.47L130.962 109.238L130.58 109.512ZM128.15 114.305L127.767 114.578L128.218 115.211L128.57 114.518L128.15 114.305ZM127.607 113.545L127.191 113.325L127.055 113.582L127.224 113.818L127.607 113.545ZM129.788 109.427L130.203 109.647L130.339 109.39L130.17 109.154L129.788 109.427ZM129.783 109.42L130.165 109.147L129.998 108.912L129.713 108.955L129.783 109.42ZM125.156 110.113L124.773 110.386L124.941 110.621L125.226 110.578L125.156 110.113ZM124.642 109.393L124.577 108.927L123.808 109.034L124.259 109.666L124.642 109.393ZM129.964 108.65L130.347 108.377L130.182 108.145L129.9 108.185L129.964 108.65ZM130.16 109.299L127.73 114.093L128.57 114.518L130.999 109.724L130.16 109.299ZM128.533 114.032L127.99 113.271L127.224 113.818L127.767 114.578L128.533 114.032ZM128.023 113.765L130.203 109.647L129.372 109.207L127.191 113.325L128.023 113.765ZM130.17 109.154L130.165 109.147L129.4 109.694L129.405 109.7L130.17 109.154ZM129.713 108.955L125.087 109.648L125.226 110.578L129.852 109.886L129.713 108.955ZM125.539 109.839L125.025 109.119L124.259 109.666L124.773 110.386L125.539 109.839ZM124.707 109.859L130.029 109.116L129.9 108.185L124.577 108.927L124.707 109.859ZM129.582 108.924L130.197 109.785L130.962 109.238L130.347 108.377L129.582 108.924Z" fill="white"/>
</g>
<path d="M100.22 162.172L102.733 166.923L101.798 166.927L99.6938 162.77H99.6858L97.5811 166.948L96.6963 166.952L99.1617 162.177L100.22 162.172Z" fill="white"/>
<mask id="mask3_267_417" style="mask-type:luminance" maskUnits="userSpaceOnUse" x="95" y="161" width="9" height="7">
<path d="M103.518 161.686H95.8687V167.462H103.518V161.686Z" fill="white"/>
<path d="M100.221 162.172L102.733 166.923L101.799 166.927L99.6943 162.77H99.6863L97.5816 166.948L96.6968 166.952L99.1622 162.177L100.221 162.172Z" fill="black"/>
</mask>
<g mask="url(#mask3_267_417)">
<path d="M100.221 162.172L100.636 161.952L100.503 161.7L100.218 161.702L100.221 162.172ZM102.733 166.923L102.735 167.393L103.512 167.389L103.149 166.703L102.733 166.923ZM101.799 166.927L101.379 167.14L101.51 167.399L101.801 167.398L101.799 166.927ZM99.6942 162.77L100.114 162.558L99.9825 162.299L99.6918 162.3L99.6942 162.77ZM99.6862 162.77L99.6838 162.3L99.3955 162.301L99.2661 162.559L99.6862 162.77ZM97.5815 166.948L97.5839 167.419L97.8718 167.417L98.0016 167.16L97.5815 166.948ZM96.6967 166.952L96.2785 166.737L95.9224 167.427L96.699 167.423L96.6967 166.952ZM99.1621 162.177L99.1598 161.707L98.8747 161.708L98.7444 161.962L99.1621 162.177ZM99.8047 162.392L102.317 167.143L103.149 166.703L100.636 161.952L99.8047 162.392ZM102.731 166.452L101.796 166.457L101.801 167.398L102.735 167.393L102.731 166.452ZM102.218 166.715L100.114 162.558L99.2746 162.983L101.379 167.14L102.218 166.715ZM99.6918 162.3H99.6838L99.6885 163.241H99.6965L99.6918 162.3ZM99.2661 162.559L97.1614 166.736L98.0016 167.16L100.106 162.982L99.2661 162.559ZM97.5792 166.478L96.6943 166.482L96.699 167.423L97.5839 167.419L97.5792 166.478ZM97.1149 167.168L99.5803 162.393L98.7444 161.962L96.2785 166.737L97.1149 167.168ZM99.1645 162.648L100.223 162.642L100.218 161.702L99.1598 161.707L99.1645 162.648Z" fill="white"/>
</g>
<path d="M202.405 212.698L204.25 207.65L204.879 208.341L203.201 212.688L203.207 212.694L207.719 211.459L208.315 212.113L203.117 213.48L202.405 212.698Z" fill="white"/>
<mask id="mask4_267_417" style="mask-type:luminance" maskUnits="userSpaceOnUse" x="199" y="206" width="11" height="11">
<path d="M209.229 206.731H199.854V216.23H209.229V206.731Z" fill="white"/>
<path d="M202.405 212.698L204.25 207.65L204.879 208.341L203.201 212.688L203.207 212.694L207.719 211.459L208.315 212.113L203.117 213.48L202.405 212.698Z" fill="black"/>
</mask>
<g mask="url(#mask4_267_417)">
<path d="M202.405 212.698L201.963 212.536L201.865 212.804L202.057 213.014L202.405 212.698ZM204.25 207.65L204.598 207.333L204.075 206.759L203.808 207.489L204.25 207.65ZM204.879 208.341L205.318 208.51L205.423 208.239L205.227 208.024L204.879 208.341ZM203.201 212.688L202.763 212.519L202.658 212.79L202.854 213.005L203.201 212.688ZM203.207 212.694L202.859 213.011L203.054 213.224L203.331 213.148L203.207 212.694ZM207.719 211.459L208.067 211.142L207.873 210.929L207.595 211.005L207.719 211.459ZM208.315 212.113L208.435 212.568L209.186 212.37L208.663 211.796L208.315 212.113ZM203.117 213.48L202.77 213.797L202.962 214.007L203.237 213.935L203.117 213.48ZM202.847 212.859L204.692 207.812L203.808 207.489L201.963 212.536L202.847 212.859ZM203.902 207.967L204.532 208.658L205.227 208.024L204.598 207.333L203.902 207.967ZM204.44 208.171L202.763 212.519L203.64 212.857L205.318 208.51L204.44 208.171ZM202.854 213.005L202.859 213.011L203.555 212.377L203.549 212.371L202.854 213.005ZM203.331 213.148L207.843 211.912L207.595 211.005L203.083 212.24L203.331 213.148ZM207.371 211.775L207.967 212.43L208.663 211.796L208.067 211.142L207.371 211.775ZM208.195 211.658L202.998 213.025L203.237 213.935L208.435 212.568L208.195 211.658ZM203.466 213.164L202.753 212.381L202.057 213.014L202.77 213.797L203.466 213.164Z" fill="white"/>
</g>
<path d="M197.956 111.389L192.678 110.379L193.259 109.647L197.819 110.604L197.824 110.597L195.879 106.342L196.429 105.649L198.614 110.559L197.956 111.389Z" fill="white"/>
<mask id="mask5_267_417" style="mask-type:luminance" maskUnits="userSpaceOnUse" x="191" y="104" width="11" height="11">
<path d="M201.028 104.706H191.796V114.243H201.028V104.706Z" fill="white"/>
<path d="M197.956 111.389L192.678 110.379L193.259 109.647L197.819 110.604L197.824 110.597L195.879 106.342L196.429 105.649L198.614 110.559L197.956 111.389Z" fill="black"/>
</mask>
<g mask="url(#mask5_267_417)">
<path d="M197.957 111.388L197.868 111.85L198.148 111.904L198.326 111.681L197.957 111.388ZM192.678 110.379L192.31 110.086L191.827 110.695L192.59 110.841L192.678 110.379ZM193.259 109.647L193.356 109.186L193.071 109.127L192.89 109.354L193.259 109.647ZM197.819 110.604L197.722 111.064L198.007 111.124L198.188 110.896L197.819 110.604ZM197.824 110.597L198.193 110.889L198.372 110.664L198.252 110.402L197.824 110.597ZM195.879 106.342L195.511 106.05L195.332 106.276L195.452 106.538L195.879 106.342ZM196.429 105.649L196.859 105.458L196.544 104.749L196.061 105.357L196.429 105.649ZM198.614 110.559L198.983 110.851L199.16 110.628L199.044 110.368L198.614 110.559ZM198.045 110.926L192.767 109.917L192.59 110.841L197.868 111.85L198.045 110.926ZM193.047 110.671L193.627 109.939L192.89 109.354L192.31 110.086L193.047 110.671ZM193.162 110.107L197.722 111.064L197.916 110.143L193.356 109.186L193.162 110.107ZM198.188 110.896L198.193 110.889L197.456 110.305L197.451 110.311L198.188 110.896ZM198.252 110.402L196.307 106.147L195.452 106.538L197.396 110.793L198.252 110.402ZM196.248 106.635L196.798 105.942L196.061 105.357L195.511 106.05L196.248 106.635ZM196 105.84L198.185 110.75L199.044 110.368L196.859 105.458L196 105.84ZM198.246 110.267L197.588 111.096L198.326 111.681L198.983 110.851L198.246 110.267Z" fill="white"/>
</g>
<path d="M122.976 211.931L128.259 212.913L127.683 213.649L123.118 212.714L123.113 212.721L125.078 216.966L124.532 217.662L122.322 212.763L122.976 211.931Z" fill="white"/>
<mask id="mask6_267_417" style="mask-type:luminance" maskUnits="userSpaceOnUse" x="119" y="209" width="11" height="10">
<path d="M129.14 209.067H119.92V218.605H129.14V209.067Z" fill="white"/>
<path d="M122.976 211.93L128.259 212.913L127.683 213.648L123.118 212.714L123.113 212.72L125.078 216.966L124.532 217.661L122.322 212.763L122.976 211.93Z" fill="black"/>
</mask>
<g mask="url(#mask6_267_417)">
<path d="M122.976 211.93L123.063 211.468L122.782 211.416L122.606 211.639L122.976 211.93ZM128.26 212.913L128.63 213.204L129.109 212.593L128.346 212.45L128.26 212.913ZM127.683 213.648L127.588 214.109L127.873 214.167L128.053 213.938L127.683 213.648ZM123.118 212.714L123.212 212.253L122.927 212.195L122.748 212.424L123.118 212.714ZM123.113 212.72L122.743 212.43L122.565 212.656L122.686 212.918L123.113 212.72ZM125.079 216.966L125.449 217.256L125.627 217.029L125.506 216.767L125.079 216.966ZM124.533 217.661L124.104 217.855L124.423 218.563L124.903 217.952L124.533 217.661ZM122.323 212.763L121.953 212.472L121.777 212.696L121.894 212.956L122.323 212.763ZM122.89 212.393L128.174 213.375L128.346 212.45L123.063 211.468L122.89 212.393ZM127.889 212.623L127.313 213.357L128.053 213.938L128.63 213.204L127.889 212.623ZM127.777 213.187L123.212 212.253L123.023 213.175L127.588 214.109L127.777 213.187ZM122.748 212.424L122.743 212.43L123.483 213.011L123.488 213.005L122.748 212.424ZM122.686 212.918L124.652 217.163L125.506 216.767L123.54 212.523L122.686 212.918ZM124.709 216.675L124.162 217.371L124.903 217.952L125.449 217.256L124.709 216.675ZM124.962 217.468L122.752 212.569L121.894 212.956L124.104 217.855L124.962 217.468ZM122.693 213.053L123.346 212.22L122.606 211.639L121.953 212.472L122.693 213.053Z" fill="white"/>
</g>
<path fill-rule="evenodd" clip-rule="evenodd" d="M235.484 130.473L233.014 131.843C241.013 149.098 242.081 167.981 237.173 185.047L239.909 185.814C244.999 168.057 243.857 148.409 235.484 130.473ZM202.01 229.394C216.496 221.356 227.216 209.129 233.538 194.999L236.309 195.775C229.775 210.622 218.58 223.477 203.4 231.9C189.576 239.57 174.383 242.491 159.654 241.206L160.098 238.383C174.215 239.568 188.765 236.743 202.01 229.394ZM149.731 236.775C131.324 232.59 114.452 221.492 103.242 204.701L100.771 206.073C112.432 223.653 130.059 235.256 149.289 239.591L149.731 236.775ZM230.383 121.18L227.915 122.549C215.212 102.708 194.722 90.5167 172.926 87.8918L173.987 85.154C196.375 88.0767 217.357 100.73 230.383 121.18ZM128.33 96.6058C139.262 90.5402 151.083 87.5568 162.815 87.3659L163.925 84.502C151.357 84.51 138.656 87.5997 126.94 94.1004C114.808 100.833 105.22 110.396 98.5241 121.544L101.225 122.593C107.664 112.047 116.805 103.001 128.33 96.6058ZM96.3766 131.97L93.7211 130.938C84.9807 151.347 84.9953 175.413 95.4997 196.874L97.9662 195.505C87.8879 174.812 87.9152 151.622 96.3766 131.97Z" fill="white"/>
<path d="M233.6 129.029L228.574 125.807L229.476 125.291L233.783 128.163L233.791 128.158L233.543 122.965L234.397 122.477L234.621 128.445L233.6 129.029Z" fill="white"/>
<mask id="mask7_267_417" style="mask-type:luminance" maskUnits="userSpaceOnUse" x="227" y="121" width="11" height="11">
<path d="M237.957 121.647H227.625V131.214H237.957V121.647Z" fill="white"/>
<path d="M233.6 129.029L228.574 125.807L229.476 125.291L233.783 128.163L233.791 128.158L233.543 122.965L234.397 122.477L234.621 128.445L233.6 129.029Z" fill="black"/>
</mask>
<g mask="url(#mask7_267_417)">
<path d="M233.6 129.029L233.347 129.425L233.587 129.579L233.834 129.437L233.6 129.029ZM228.574 125.807L228.341 125.398L227.667 125.784L228.321 126.203L228.574 125.807ZM229.476 125.291L229.737 124.9L229.495 124.738L229.242 124.883L229.476 125.291ZM233.783 128.163L233.522 128.554L233.764 128.715L234.016 128.571L233.783 128.163ZM233.791 128.158L234.024 128.567L234.274 128.423L234.26 128.135L233.791 128.158ZM233.543 122.965L233.31 122.557L233.06 122.7L233.074 122.988L233.543 122.965ZM234.397 122.477L234.867 122.459L234.838 121.683L234.163 122.068L234.397 122.477ZM234.622 128.445L234.855 128.854L235.102 128.712L235.092 128.428L234.622 128.445ZM233.854 128.633L228.828 125.411L228.321 126.203L233.347 129.425L233.854 128.633ZM228.808 126.215L229.709 125.7L229.242 124.883L228.341 125.398L228.808 126.215ZM229.215 125.683L233.522 128.554L234.044 127.771L229.737 124.9L229.215 125.683ZM234.016 128.571L234.024 128.567L233.558 127.75L233.55 127.754L234.016 128.571ZM234.26 128.135L234.013 122.942L233.074 122.988L233.321 128.181L234.26 128.135ZM233.777 123.373L234.63 122.885L234.163 122.068L233.31 122.557L233.777 123.373ZM233.927 122.495L234.151 128.463L235.092 128.428L234.867 122.459L233.927 122.495ZM234.388 128.037L233.367 128.62L233.834 129.437L234.855 128.854L234.388 128.037Z" fill="white"/>
</g>
<path d="M172.421 86.3428L166.854 88.3901L166.975 87.359L171.833 85.6711L171.835 85.6622L167.519 82.7051L167.633 81.7285L172.557 85.1748L172.421 86.3428Z" fill="white"/>
<mask id="mask8_267_417" style="mask-type:luminance" maskUnits="userSpaceOnUse" x="166" y="80" width="8" height="10">
<path d="M173.439 80.8608H166.271V89.9578H173.439V80.8608Z" fill="white"/>
<path d="M172.421 86.3433L166.855 88.3906L166.975 87.3594L171.834 85.6716L171.835 85.6626L167.519 82.7056L167.633 81.729L172.558 85.1753L172.421 86.3433Z" fill="black"/>
</mask>
<g mask="url(#mask8_267_417)">
<path d="M172.421 86.3434L172.589 86.7861L172.855 86.6887L172.887 86.4055L172.421 86.3434ZM166.855 88.3907L166.389 88.3286L166.298 89.1001L167.022 88.8338L166.855 88.3907ZM166.975 87.3595L166.815 86.914L166.542 87.0086L166.509 87.2974L166.975 87.3595ZM171.834 85.6717L171.994 86.1176L172.267 86.0226L172.3 85.7342L171.834 85.6717ZM171.835 85.6627L172.301 85.7248L172.335 85.4388L172.095 85.2746L171.835 85.6627ZM167.519 82.7057L167.052 82.6431L167.019 82.9296L167.258 83.0933L167.519 82.7057ZM167.633 81.7291L167.897 81.3438L167.257 80.8955L167.167 81.667L167.633 81.7291ZM172.558 85.1754L173.024 85.2375L173.057 84.9543L172.822 84.7901L172.558 85.1754ZM172.254 85.9003L166.687 87.948L167.022 88.8338L172.589 86.7861L172.254 85.9003ZM167.321 88.4528L167.441 87.4216L166.509 87.2974L166.389 88.3286L167.321 88.4528ZM167.135 87.8055L171.994 86.1176L171.674 85.2262L166.815 86.914L167.135 87.8055ZM172.3 85.7342L172.301 85.7248L171.369 85.6006L171.368 85.6096L172.3 85.7342ZM172.095 85.2746L167.779 82.3176L167.258 83.0933L171.575 86.0508L172.095 85.2746ZM167.985 82.7678L168.099 81.7912L167.167 81.667L167.052 82.6431L167.985 82.7678ZM167.369 82.1144L172.293 85.5607L172.822 84.7901L167.897 81.3438L167.369 82.1144ZM172.092 85.1133L171.955 86.2813L172.887 86.4055L173.024 85.2375L172.092 85.1133Z" fill="white"/>
</g>
<path d="M98.7561 123.426L99.0087 129.431L98.0749 128.978L97.9474 123.769L97.9394 123.765L93.86 126.93L92.9756 126.501L97.6981 122.912L98.7561 123.426Z" fill="white"/>
<mask id="mask9_267_417" style="mask-type:luminance" maskUnits="userSpaceOnUse" x="92" y="120" width="11" height="11">
<path d="M102.172 120.924H92.04V130.233H102.172V120.924Z" fill="white"/>
<path d="M98.7556 123.425L99.0082 129.431L98.0744 128.977L97.9469 123.768L97.939 123.764L93.8595 126.93L92.9751 126.5L97.6976 122.912L98.7556 123.425Z" fill="black"/>
</mask>
<g mask="url(#mask9_267_417)">
<path d="M98.7557 123.425L99.2228 123.41L99.2106 123.123L98.9542 122.999L98.7557 123.425ZM99.0083 129.431L98.8098 129.857L99.5084 130.197L99.4754 129.415L99.0083 129.431ZM98.0745 128.977L97.6069 128.984L97.614 129.276L97.8756 129.403L98.0745 128.977ZM97.947 123.768L98.4146 123.761L98.4076 123.469L98.146 123.342L97.947 123.768ZM97.9391 123.764L98.1376 123.338L97.8784 123.212L97.6521 123.387L97.9391 123.764ZM93.8596 126.93L93.6606 127.356L93.9198 127.482L94.1461 127.307L93.8596 126.93ZM92.9752 126.501L92.692 126.121L92.0776 126.588L92.7762 126.927L92.9752 126.501ZM97.6977 122.912L97.8962 122.485L97.6399 122.361L97.4145 122.532L97.6977 122.912ZM98.2886 123.441L98.5412 129.446L99.4754 129.415L99.2228 123.41L98.2886 123.441ZM99.2068 129.005L98.2731 128.551L97.8756 129.403L98.8098 129.857L99.2068 129.005ZM98.5417 128.97L98.4146 123.761L97.4799 123.775L97.6069 128.984L98.5417 128.97ZM98.146 123.342L98.1376 123.338L97.7405 124.191L97.7485 124.195L98.146 123.342ZM97.6521 123.387L93.5726 126.553L94.1461 127.307L98.2255 124.141L97.6521 123.387ZM94.0581 126.504L93.1737 126.074L92.7762 126.927L93.6606 127.356L94.0581 126.504ZM93.2579 126.88L97.9809 123.291L97.4145 122.532L92.692 126.121L93.2579 126.88ZM97.4992 123.338L98.5567 123.852L98.9542 122.999L97.8962 122.485L97.4992 123.338Z" fill="white"/>
</g>
<path d="M99.4484 198.984L104.45 202.245L103.545 202.753L99.2593 199.849L99.2513 199.853L99.4587 205.048L98.6016 205.529L98.4229 199.56L99.4484 198.984Z" fill="white"/>
<mask id="mask10_267_417" style="mask-type:luminance" maskUnits="userSpaceOnUse" x="95" y="196" width="11" height="11">
<path d="M105.399 196.823H95.0767V206.355H105.399V196.823Z" fill="white"/>
<path d="M99.4484 198.984L104.45 202.245L103.545 202.753L99.2593 199.849L99.2513 199.853L99.4587 205.048L98.6016 205.529L98.4229 199.56L99.4484 198.984Z" fill="black"/>
</mask>
<g mask="url(#mask10_267_417)">
<path d="M99.4482 198.984L99.7051 198.59L99.4666 198.435L99.2182 198.574L99.4482 198.984ZM104.45 202.245L104.68 202.656L105.357 202.276L104.707 201.851L104.45 202.245ZM103.545 202.753L103.28 203.143L103.521 203.306L103.775 203.164L103.545 202.753ZM99.2591 199.849L99.523 199.46L99.2827 199.296L99.0291 199.439L99.2591 199.849ZM99.2511 199.853L99.0211 199.443L98.7699 199.584L98.7812 199.872L99.2511 199.853ZM99.4586 205.048L99.6886 205.458L99.9398 205.317L99.9285 205.029L99.4586 205.048ZM98.6015 205.529L98.1311 205.543L98.1541 206.319L98.8315 205.939L98.6015 205.529ZM98.4227 199.56L98.1927 199.15L97.9438 199.289L97.9528 199.574L98.4227 199.56ZM99.1914 199.378L104.193 202.64L104.707 201.851L99.7051 198.59L99.1914 199.378ZM104.22 201.835L103.314 202.343L103.775 203.164L104.68 202.656L104.22 201.835ZM103.809 202.364L99.523 199.46L98.9952 200.239L103.28 203.143L103.809 202.364ZM99.0291 199.439L99.0211 199.443L99.4816 200.264L99.4896 200.259L99.0291 199.439ZM98.7812 199.872L98.9886 205.067L99.9285 205.029L99.7211 199.835L98.7812 199.872ZM99.2281 204.638L98.371 205.119L98.8315 205.939L99.6886 205.458L99.2281 204.638ZM99.0714 205.515L98.8927 199.546L97.9528 199.574L98.1311 205.543L99.0714 205.515ZM98.6528 199.97L99.6783 199.394L99.2182 198.574L98.1927 199.15L98.6528 199.97Z" fill="white"/>
</g>
<path d="M235.139 192.445L234.175 186.51L235.156 186.85L235.9 192.009L235.909 192.012L239.583 188.386L240.512 188.708L236.25 192.83L235.139 192.445Z" fill="white"/>
<mask id="mask11_267_417" style="mask-type:luminance" maskUnits="userSpaceOnUse" x="231" y="185" width="11" height="10">
<path d="M241.429 185.774H231.613V194.448H241.429V185.774Z" fill="white"/>
<path d="M235.139 192.445L234.175 186.51L235.156 186.85L235.9 192.009L235.909 192.012L239.583 188.386L240.512 188.708L236.25 192.83L235.139 192.445Z" fill="black"/>
</mask>
<g mask="url(#mask11_267_417)">
<path d="M235.138 192.445L234.677 192.515L234.723 192.799L234.992 192.892L235.138 192.445ZM234.175 186.509L234.322 186.063L233.588 185.808L233.713 186.58L234.175 186.509ZM235.156 186.85L235.619 186.788L235.577 186.498L235.303 186.403L235.156 186.85ZM235.9 192.009L235.437 192.071L235.479 192.361L235.754 192.456L235.9 192.009ZM235.909 192.012L235.762 192.459L236.035 192.553L236.238 192.352L235.909 192.012ZM239.583 188.386L239.73 187.939L239.457 187.844L239.254 188.045L239.583 188.386ZM240.512 188.708L240.838 189.052L241.392 188.515L240.658 188.261L240.512 188.708ZM236.25 192.83L236.103 193.277L236.372 193.371L236.576 193.174L236.25 192.83ZM235.6 192.374L234.637 186.439L233.713 186.58L234.677 192.515L235.6 192.374ZM234.028 186.957L235.009 187.297L235.303 186.403L234.322 186.063L234.028 186.957ZM234.693 186.912L235.437 192.071L236.363 191.947L235.619 186.788L234.693 186.912ZM235.754 192.456L235.762 192.459L236.056 191.565L236.047 191.562L235.754 192.456ZM236.238 192.352L239.912 188.726L239.254 188.045L235.58 191.671L236.238 192.352ZM239.436 188.833L240.365 189.155L240.658 188.261L239.73 187.939L239.436 188.833ZM240.186 188.364L235.924 192.487L236.576 193.174L240.838 189.052L240.186 188.364ZM236.396 192.383L235.285 191.998L234.992 192.892L236.103 193.277L236.396 192.383Z" fill="white"/>
</g>
<path d="M152.921 237.847L158.554 235.994L158.399 237.02L153.485 238.539L153.484 238.548L157.695 241.653L157.548 242.625L152.744 239.01L152.921 237.847Z" fill="white"/>
<mask id="mask12_267_417" style="mask-type:luminance" maskUnits="userSpaceOnUse" x="151" y="234" width="9" height="10">
<path d="M159.163 234.232H151.744V243.506H159.163V234.232Z" fill="white"/>
<path d="M152.921 237.847L158.554 235.994L158.398 237.02L153.485 238.539L153.483 238.548L157.695 241.653L157.547 242.625L152.744 239.01L152.921 237.847Z" fill="black"/>
</mask>
<g mask="url(#mask12_267_417)">
<path d="M152.921 237.847L152.768 237.399L152.499 237.487L152.457 237.769L152.921 237.847ZM158.554 235.994L159.018 236.072L159.135 235.304L158.402 235.546L158.554 235.994ZM158.398 237.02L158.542 237.471L158.818 237.386L158.862 237.098L158.398 237.02ZM153.485 238.539L153.34 238.088L153.064 238.173L153.021 238.46L153.485 238.539ZM153.483 238.548L153.02 238.47L152.976 238.754L153.21 238.926L153.483 238.548ZM157.695 241.653L158.159 241.731L158.202 241.446L157.968 241.274L157.695 241.653ZM157.547 242.625L157.27 243.001L157.895 243.471L158.011 242.703L157.547 242.625ZM152.744 239.01L152.28 238.932L152.237 239.213L152.467 239.386L152.744 239.01ZM153.073 238.296L158.707 236.442L158.402 235.546L152.768 237.399L153.073 238.296ZM158.09 235.915L157.935 236.942L158.862 237.098L159.018 236.072L158.09 235.915ZM158.254 236.569L153.34 238.088L153.629 238.989L158.542 237.471L158.254 236.569ZM153.021 238.46L153.02 238.47L153.947 238.626L153.949 238.617L153.021 238.46ZM153.21 238.926L157.421 242.032L157.968 241.274L153.757 238.169L153.21 238.926ZM157.231 241.575L157.084 242.547L158.011 242.703L158.159 241.731L157.231 241.575ZM157.825 242.249L153.021 238.634L152.467 239.386L157.27 243.001L157.825 242.249ZM153.208 239.088L153.385 237.925L152.457 237.769L152.28 238.932L153.208 239.088Z" fill="white"/>
</g>
<path fill-rule="evenodd" clip-rule="evenodd" d="M252.742 180.353L249.446 179.987C245.403 201.756 233.615 220.395 217.336 233.279L219.437 235.852C236.359 222.436 248.595 203.021 252.742 180.353ZM153.565 251.638C172.896 253.783 191.46 249.414 207.103 240.27L209.23 242.876C192.899 252.555 173.453 257.201 153.197 254.953C134.751 252.905 118.215 245.427 104.977 234.271L107.317 231.891C120.037 242.54 135.891 249.676 153.565 251.638ZM98.4769 223.372C83.6837 206.982 75.0501 185.069 75.7026 161.573L72.405 161.207C71.6485 185.756 80.6627 208.658 96.1427 225.746L98.4769 223.372ZM254.16 168.092L250.867 167.727C252.159 140.329 240.801 114.937 221.703 97.7422L224.576 95.8596C244.04 113.737 255.555 139.9 254.16 168.092ZM173.07 75.9251C187.657 77.5443 201.005 82.6874 212.373 90.422L215.38 88.4528C203.335 79.9815 189.072 74.345 173.438 72.6096C157.248 70.8126 141.576 73.4192 127.599 79.4801L129.474 82.2983C142.797 76.6345 157.691 74.218 173.07 75.9251ZM118.468 87.925L116.624 85.1542C94.4059 98.6237 78.0928 121.471 73.5961 148.922L76.8876 149.287C81.2709 122.852 97.0304 100.865 118.468 87.925Z" fill="white"/>
<path d="M250.905 176.654L248.224 170.01L249.464 170.132L251.685 175.933L251.696 175.934L255.06 170.681L256.234 170.795L252.31 176.792L250.905 176.654Z" fill="white"/>
<mask id="mask13_267_417" style="mask-type:luminance" maskUnits="userSpaceOnUse" x="246" y="169" width="12" height="9">
<path d="M257.095 169.461H246.737V177.663H257.095V169.461Z" fill="white"/>
<path d="M250.905 176.654L248.224 170.01L249.464 170.131L251.685 175.933L251.696 175.934L255.06 170.68L256.234 170.795L252.31 176.791L250.905 176.654Z" fill="black"/>
</mask>
<g mask="url(#mask13_267_417)">
<path d="M250.906 176.654L250.47 176.83L250.576 177.095L250.86 177.122L250.906 176.654ZM248.224 170.01L248.27 169.542L247.497 169.466L247.788 170.186L248.224 170.01ZM249.464 170.131L249.903 169.964L249.799 169.692L249.51 169.663L249.464 170.131ZM251.686 175.933L251.246 176.101L251.35 176.373L251.64 176.401L251.686 175.933ZM251.696 175.934L251.65 176.402L251.937 176.43L252.093 176.188L251.696 175.934ZM255.06 170.68L255.106 170.212L254.819 170.184L254.664 170.427L255.06 170.68ZM256.234 170.795L256.627 171.053L257.053 170.403L256.28 170.327L256.234 170.795ZM252.31 176.792L252.264 177.26L252.548 177.288L252.704 177.049L252.31 176.792ZM251.342 176.478L248.66 169.834L247.788 170.186L250.47 176.83L251.342 176.478ZM248.178 170.478L249.418 170.6L249.51 169.663L248.27 169.542L248.178 170.478ZM249.025 170.3L251.246 176.101L252.125 175.765L249.903 169.964L249.025 170.3ZM251.64 176.401L251.65 176.402L251.743 175.466L251.732 175.465L251.64 176.401ZM252.093 176.188L255.456 170.934L254.664 170.427L251.3 175.681L252.093 176.188ZM255.014 171.149L256.188 171.263L256.28 170.327L255.106 170.212L255.014 171.149ZM255.84 170.538L251.917 176.534L252.704 177.049L256.627 171.053L255.84 170.538ZM252.356 176.324L250.952 176.186L250.86 177.122L252.264 177.26L252.356 176.324Z" fill="white"/>
</g>
<path d="M220.292 95.8236L213.396 93.9715L214.233 93.049L220.184 94.7623L220.191 94.7543L218.014 88.8868L218.807 88.0137L221.241 94.7788L220.292 95.8236Z" fill="white"/>
<mask id="mask14_267_417" style="mask-type:luminance" maskUnits="userSpaceOnUse" x="212" y="87" width="13" height="13">
<path d="M224.369 87.0884H212.497V99.2086H224.369V87.0884Z" fill="white"/>
<path d="M220.292 95.8236L213.396 93.9715L214.233 93.049L220.184 94.7623L220.191 94.7543L218.014 88.8868L218.807 88.0137L221.241 94.7788L220.292 95.8236Z" fill="black"/>
</mask>
<g mask="url(#mask14_267_417)">
<path d="M220.293 95.8238L220.173 96.2801L220.447 96.3535L220.638 96.1427L220.293 95.8238ZM213.396 93.9717L213.05 93.6523L212.528 94.2272L213.276 94.4281L213.396 93.9717ZM214.234 93.0493L214.362 92.5953L214.084 92.5149L213.888 92.7303L214.234 93.0493ZM220.184 94.7625L220.055 95.2169L220.334 95.2969L220.53 95.0819L220.184 94.7625ZM220.191 94.7545L220.537 95.0739L220.731 94.8604L220.63 94.5894L220.191 94.7545ZM218.014 88.887L217.669 88.568L217.475 88.7812L217.575 89.0521L218.014 88.887ZM218.807 88.0139L219.248 87.853L218.984 87.1196L218.462 87.6945L218.807 88.0139ZM221.241 94.779L221.587 95.0979L221.779 94.8872L221.682 94.6181L221.241 94.779ZM220.413 95.367L213.516 93.515L213.276 94.4281L220.173 96.2801L220.413 95.367ZM213.742 94.2907L214.579 93.3687L213.888 92.7303L213.05 93.6523L213.742 94.2907ZM214.105 93.5037L220.055 95.2169L220.312 94.3086L214.362 92.5953L214.105 93.5037ZM220.53 95.0819L220.537 95.0739L219.846 94.4356L219.838 94.4436L220.53 95.0819ZM220.63 94.5894L218.453 88.7219L217.575 89.0521L219.753 94.9196L220.63 94.5894ZM218.36 89.2064L219.153 88.3328L218.462 87.6945L217.669 88.568L218.36 89.2064ZM218.367 88.1748L220.801 94.9399L221.682 94.6181L219.248 87.853L218.367 88.1748ZM220.896 94.46L219.947 95.5044L220.638 96.1427L221.587 95.0979L220.896 94.46Z" fill="white"/>
</g>
<path d="M125.515 82.7036L121.591 88.7278L120.988 87.6378L124.482 82.4764L124.477 82.4665L118.265 82.7182L117.694 81.6861L124.832 81.4688L125.515 82.7036Z" fill="white"/>
<mask id="mask15_267_417" style="mask-type:luminance" maskUnits="userSpaceOnUse" x="116" y="77" width="12" height="13">
<path d="M127.931 77.6177H116.888V89.6794H127.931V77.6177Z" fill="white"/>
<path d="M125.515 82.7036L121.591 88.7278L120.988 87.6378L124.482 82.4764L124.477 82.4665L118.265 82.7182L117.694 81.6861L124.832 81.4688L125.515 82.7036Z" fill="black"/>
</mask>
<g mask="url(#mask15_267_417)">
<path d="M125.515 82.7039L125.907 82.9617L126.063 82.7223L125.925 82.4729L125.515 82.7039ZM121.591 88.7281L121.181 88.9595L121.558 89.6388L121.983 88.9859L121.591 88.7281ZM120.988 87.6381L120.601 87.3733L120.438 87.6151L120.578 87.8691L120.988 87.6381ZM124.482 82.4767L124.869 82.7415L125.033 82.4998L124.892 82.2453L124.482 82.4767ZM124.477 82.4668L124.887 82.2358L124.747 81.9837L124.46 81.9955L124.477 82.4668ZM118.265 82.7185L117.856 82.9495L117.995 83.2016L118.282 83.1899L118.265 82.7185ZM117.694 81.6864L117.682 81.2146L116.908 81.2381L117.284 81.9174L117.694 81.6864ZM124.832 81.4691L125.242 81.2381L125.104 80.9888L124.82 80.9972L124.832 81.4691ZM125.124 82.4461L121.2 88.4703L121.983 88.9859L125.907 82.9617L125.124 82.4461ZM122.001 88.4971L121.398 87.4072L120.578 87.8691L121.181 88.9595L122.001 88.4971ZM121.375 87.903L124.869 82.7415L124.095 82.2119L120.601 87.3733L121.375 87.903ZM124.892 82.2453L124.887 82.2358L124.067 82.6983L124.073 82.7077L124.892 82.2453ZM124.46 81.9955L118.248 82.2467L118.282 83.1899L124.494 82.9387L124.46 81.9955ZM118.675 82.4871L118.104 81.455L117.284 81.9174L117.856 82.9495L118.675 82.4871ZM117.706 82.1582L124.844 81.9409L124.82 80.9972L117.682 81.2146L117.706 82.1582ZM124.422 81.7005L125.106 82.9349L125.925 82.4729L125.242 81.2381L124.422 81.7005Z" fill="white"/>
</g>
<path d="M75.8306 151.439L78.4612 158.104L77.2221 157.973L75.0455 152.154L75.0342 152.153L71.6307 157.38L70.4575 157.256L74.4274 151.291L75.8306 151.439Z" fill="white"/>
<mask id="mask16_267_417" style="mask-type:luminance" maskUnits="userSpaceOnUse" x="69" y="150" width="11" height="9">
<path d="M79.999 150.386H69.5933V158.658H79.999V150.386Z" fill="white"/>
<path d="M75.8306 151.439L78.4612 158.104L77.2221 157.973L75.0455 152.154L75.0342 152.153L71.6307 157.38L70.4575 157.256L74.4274 151.291L75.8306 151.439Z" fill="black"/>
</mask>
<g mask="url(#mask16_267_417)">
<path d="M75.8307 151.439L76.2686 151.266L76.1637 151.001L75.8805 150.971L75.8307 151.439ZM78.4613 158.104L78.4114 158.571L79.1838 158.653L78.8987 157.931L78.4613 158.104ZM77.2222 157.972L76.7819 158.137L76.8835 158.409L77.1728 158.44L77.2222 157.972ZM75.0456 152.154L75.4859 151.989L75.3843 151.716L75.0949 151.686L75.0456 152.154ZM75.0343 152.152L75.0841 151.685L74.7976 151.654L74.6401 151.896L75.0343 152.152ZM71.6308 157.38L71.5809 157.848L71.8674 157.878L72.025 157.637L71.6308 157.38ZM70.4576 157.256L70.0657 156.995L69.6357 157.641L70.4077 157.723L70.4576 157.256ZM74.4274 151.29L74.4773 150.822L74.1936 150.792L74.036 151.03L74.4274 151.29ZM75.3932 151.611L78.0238 158.276L78.8987 157.931L76.2686 151.266L75.3932 151.611ZM78.5107 157.636L77.272 157.504L77.1728 158.44L78.4114 158.571L78.5107 157.636ZM77.663 157.807L75.4859 151.989L74.6048 152.318L76.7819 158.137L77.663 157.807ZM75.0949 151.686L75.0841 151.685L74.9849 152.621L74.9957 152.621L75.0949 151.686ZM74.6401 151.896L71.2366 157.123L72.025 157.637L75.4285 152.409L74.6401 151.896ZM71.6802 156.912L70.507 156.787L70.4077 157.723L71.5809 157.848L71.6802 156.912ZM70.8489 157.516L74.8193 151.551L74.036 151.03L70.0657 156.995L70.8489 157.516ZM74.378 151.758L75.7813 151.906L75.8805 150.971L74.4773 150.822L74.378 151.758Z" fill="white"/>
</g>
<path d="M211.06 240.15L214.243 233.702L214.971 234.713L212.112 240.253L212.119 240.262L218.256 239.277L218.945 240.234L211.885 241.295L211.06 240.15Z" fill="white"/>
<mask id="mask17_267_417" style="mask-type:luminance" maskUnits="userSpaceOnUse" x="208" y="232" width="12" height="13">
<path d="M219.803 232.755H208.261V244.931H219.803V232.755Z" fill="white"/>
<path d="M211.06 240.149L214.242 233.701L214.971 234.713L212.112 240.253L212.118 240.262L218.256 239.276L218.945 240.233L211.884 241.295L211.06 240.149Z" fill="black"/>
</mask>
<g mask="url(#mask17_267_417)">
<path d="M211.06 240.149L210.641 239.94L210.514 240.196L210.68 240.427L211.06 240.149ZM214.243 233.701L214.622 233.423L214.168 232.793L213.824 233.492L214.243 233.701ZM214.971 234.713L215.386 234.93L215.52 234.67L215.35 234.434L214.971 234.713ZM212.112 240.253L211.697 240.036L211.563 240.295L211.733 240.531L212.112 240.253ZM212.119 240.262L211.739 240.54L211.908 240.774L212.191 240.728L212.119 240.262ZM218.256 239.276L218.635 238.998L218.467 238.764L218.183 238.81L218.256 239.276ZM218.945 240.234L219.013 240.701L219.778 240.586L219.325 239.956L218.945 240.234ZM211.884 241.295L211.505 241.573L211.671 241.804L211.952 241.762L211.884 241.295ZM211.479 240.359L214.662 233.911L213.824 233.492L210.641 239.94L211.479 240.359ZM213.864 233.979L214.591 234.991L215.35 234.434L214.622 233.423L213.864 233.979ZM214.555 234.495L211.697 240.036L212.528 240.47L215.386 234.93L214.555 234.495ZM211.733 240.531L211.739 240.54L212.498 239.984L212.492 239.975L211.733 240.531ZM212.191 240.728L218.328 239.742L218.183 238.81L212.046 239.795L212.191 240.728ZM217.876 239.554L218.566 240.512L219.325 239.956L218.635 238.998L217.876 239.554ZM218.877 239.766L211.816 240.828L211.952 241.762L219.013 240.701L218.877 239.766ZM212.264 241.017L211.439 239.871L210.68 240.427L211.505 241.573L212.264 241.017Z" fill="white"/>
</g>
<path d="M99.2844 225.81L106.113 227.899L105.244 228.792L99.3564 226.874L99.3489 226.882L101.322 232.821L100.499 233.667L98.3003 226.821L99.2844 225.81Z" fill="white"/>
<mask id="mask18_267_417" style="mask-type:luminance" maskUnits="userSpaceOnUse" x="95" y="222" width="13" height="13">
<path d="M107.022 222.511H95.0806V234.585H107.022V222.511Z" fill="white"/>
<path d="M99.2849 225.81L106.113 227.899L105.244 228.792L99.3569 226.874L99.3493 226.882L101.322 232.821L100.5 233.667L98.3008 226.821L99.2849 225.81Z" fill="black"/>
</mask>
<g mask="url(#mask18_267_417)">
<path d="M99.2847 225.81L99.4206 225.358L99.1492 225.274L98.9502 225.479L99.2847 225.81ZM106.113 227.899L106.447 228.23L106.989 227.673L106.249 227.447L106.113 227.899ZM105.244 228.792L105.1 229.241L105.376 229.331L105.578 229.122L105.244 228.792ZM99.3566 226.874L99.5006 226.424L99.2249 226.334L99.0222 226.543L99.3566 226.874ZM99.3491 226.882L99.0146 226.551L98.8138 226.757L98.905 227.032L99.3491 226.882ZM101.322 232.821L101.657 233.152L101.857 232.946L101.767 232.671L101.322 232.821ZM100.499 233.667L100.054 233.812L100.292 234.554L100.834 233.998L100.499 233.667ZM98.3005 226.821L97.9661 226.49L97.7671 226.694L97.8546 226.966L98.3005 226.821ZM99.1487 226.262L105.977 228.351L106.249 227.447L99.4206 225.358L99.1487 226.262ZM105.778 227.568L104.909 228.461L105.578 229.122L106.447 228.23L105.778 227.568ZM105.388 228.342L99.5006 226.424L99.2127 227.323L105.1 229.241L105.388 228.342ZM99.0222 226.543L99.0146 226.551L99.6836 227.213L99.6911 227.205L99.0222 226.543ZM98.905 227.032L100.878 232.971L101.767 232.671L99.7932 226.732L98.905 227.032ZM100.988 232.49L100.165 233.336L100.834 233.998L101.657 233.152L100.988 232.49ZM100.945 233.521L98.746 226.675L97.8546 226.966L100.054 233.812L100.945 233.521ZM98.6345 227.152L99.6191 226.14L98.9502 225.479L97.9661 226.49L98.6345 227.152Z" fill="white"/>
</g>
<path fill-rule="evenodd" clip-rule="evenodd" d="M236.193 241.981L233.37 239.337C214.187 257.054 189.976 266.416 165.639 267.214L165.782 271.107C191.098 270.256 216.275 260.474 236.193 241.981ZM93.0218 240.045C109.578 255.555 130.028 264.384 151.124 266.67L151.269 270.614C129.15 268.352 107.68 259.169 90.3319 242.915C74.5334 228.115 64.3624 209.522 59.8794 189.761L63.7509 189.148C68.1089 208.069 77.8846 225.863 93.0218 240.045ZM61.5126 174.943C59.2777 149.159 66.7108 122.461 83.9455 100.748L81.1206 98.1019C63.0439 120.736 55.2678 148.632 57.651 175.554L61.5126 174.943ZM246.194 231.402L243.373 228.76C263.967 203.812 271.314 171.932 265.623 142.383L269.642 142.612C275.192 173.059 267.446 205.777 246.194 231.402ZM235.588 87.8698C248.081 99.5743 256.922 113.74 262.079 128.968L266.284 129.208C261.015 112.812 251.668 97.5435 238.278 84.9984C224.412 72.0082 207.913 63.5341 190.556 59.5003L190.315 63.4678C206.78 67.4193 222.416 75.5302 235.588 87.8698ZM176.044 61.0978L176.28 57.1971C145.974 54.4047 114.556 64.5789 90.9274 87.342L93.7467 89.9829C116.55 68.1 146.843 58.3501 176.044 61.0978Z" fill="white"/>
<path d="M236.865 238.407L239.003 230.327L240.077 231.307L238.098 238.278L238.108 238.287L244.922 235.729L245.939 236.658L238.081 239.517L236.865 238.407Z" fill="white"/>
<mask id="mask19_267_417" style="mask-type:luminance" maskUnits="userSpaceOnUse" x="233" y="229" width="14" height="15">
<path d="M246.85 229.431H233.106V243.002H246.85V229.431Z" fill="white"/>
<path d="M236.865 238.407L239.003 230.327L240.077 231.307L238.098 238.278L238.108 238.287L244.922 235.729L245.939 236.658L238.081 239.517L236.865 238.407Z" fill="black"/>
</mask>
<g mask="url(#mask19_267_417)">
<path d="M236.865 238.407L236.41 238.287L236.337 238.562L236.548 238.754L236.865 238.407ZM239.003 230.327L239.321 229.98L238.747 229.456L238.548 230.207L239.003 230.327ZM240.077 231.307L240.53 231.436L240.609 231.156L240.394 230.96L240.077 231.307ZM238.098 238.278L237.645 238.15L237.566 238.43L237.781 238.625L238.098 238.278ZM238.108 238.287L237.79 238.634L238.003 238.829L238.273 238.727L238.108 238.287ZM244.922 235.73L245.24 235.382L245.026 235.188L244.757 235.289L244.922 235.73ZM245.939 236.658L246.1 237.099L246.83 236.834L246.256 236.31L245.939 236.658ZM238.081 239.517L237.764 239.864L237.974 240.056L238.242 239.959L238.081 239.517ZM237.32 238.527L239.458 230.447L238.548 230.207L236.41 238.287L237.32 238.527ZM238.686 230.674L239.76 231.654L240.394 230.96L239.321 229.98L238.686 230.674ZM239.624 231.179L237.645 238.15L238.551 238.407L240.53 231.436L239.624 231.179ZM237.781 238.625L237.79 238.634L238.425 237.94L238.415 237.931L237.781 238.625ZM238.273 238.727L245.088 236.17L244.757 235.289L237.942 237.846L238.273 238.727ZM244.605 236.077L245.621 237.005L246.256 236.31L245.24 235.382L244.605 236.077ZM245.778 236.215L237.92 239.075L238.242 239.959L246.1 237.099L245.778 236.215ZM238.399 239.17L237.183 238.06L236.548 238.754L237.764 239.864L238.399 239.17Z" fill="white"/>
</g>
<path d="M266.727 141.098L261.621 134.561L263.046 134.277L267.371 140.025L267.383 140.023L269.48 132.997L270.83 132.728L268.342 140.776L266.727 141.098Z" fill="white"/>
<mask id="mask20_267_417" style="mask-type:luminance" maskUnits="userSpaceOnUse" x="260" y="132" width="13" height="11">
<path d="M272.99 132.089H260.761V142.47H272.99V132.089Z" fill="white"/>
<path d="M266.727 141.098L261.621 134.561L263.046 134.277L267.371 140.025L267.383 140.023L269.48 132.997L270.83 132.728L268.342 140.776L266.727 141.098Z" fill="black"/>
</mask>
<g mask="url(#mask20_267_417)">
<path d="M266.727 141.098L266.357 141.394L266.531 141.616L266.81 141.561L266.727 141.098ZM261.621 134.561L261.538 134.098L260.776 134.249L261.251 134.856L261.621 134.561ZM263.047 134.277L263.422 133.988L263.249 133.757L262.964 133.814L263.047 134.277ZM267.371 140.025L266.995 140.315L267.169 140.545L267.454 140.489L267.371 140.025ZM267.383 140.023L267.467 140.486L267.749 140.43L267.832 140.151L267.383 140.023ZM269.481 132.997L269.398 132.534L269.115 132.59L269.032 132.868L269.481 132.997ZM270.831 132.728L271.278 132.861L271.509 132.114L270.747 132.265L270.831 132.728ZM268.342 140.777L268.425 141.239L268.704 141.184L268.789 140.91L268.342 140.777ZM267.097 140.802L261.991 134.265L261.251 134.856L266.357 141.394L267.097 140.802ZM261.704 135.024L263.13 134.74L262.964 133.814L261.538 134.098L261.704 135.024ZM262.671 134.566L266.995 140.315L267.747 139.736L263.422 133.988L262.671 134.566ZM267.454 140.489L267.467 140.486L267.301 139.56L267.288 139.562L267.454 140.489ZM267.832 140.151L269.929 133.125L269.032 132.868L266.935 139.894L267.832 140.151ZM269.564 133.46L270.914 133.191L270.747 132.265L269.398 132.534L269.564 133.46ZM270.383 132.595L267.895 140.643L268.789 140.91L271.278 132.861L270.383 132.595ZM268.259 140.313L266.644 140.634L266.81 141.561L268.425 141.239L268.259 140.313Z" fill="white"/>
</g>
<path d="M188.082 61.1564L180.182 64.0782L180.388 62.6392L187.28 60.2278L187.282 60.2151L181.316 56.145L181.511 54.7827L188.316 59.5264L188.082 61.1564Z" fill="white"/>
<mask id="mask21_267_417" style="mask-type:luminance" maskUnits="userSpaceOnUse" x="179" y="53" width="11" height="13">
<path d="M189.441 53.9468H179.58V65.8269H189.441V53.9468Z" fill="white"/>
<path d="M188.082 61.1564L180.182 64.0782L180.388 62.6392L187.28 60.2278L187.282 60.2151L181.316 56.145L181.511 54.7827L188.316 59.5264L188.082 61.1564Z" fill="black"/>
</mask>
<g mask="url(#mask21_267_417)">
<path d="M188.082 61.1563L188.24 61.5957L188.509 61.4964L188.55 61.2141L188.082 61.1563ZM180.182 64.0781L179.715 64.0202L179.605 64.7889L180.339 64.5174L180.182 64.0781ZM180.388 62.639L180.238 62.1968L179.962 62.2933L179.921 62.5812L180.388 62.639ZM187.28 60.2277L187.429 60.6699L187.706 60.573L187.747 60.2855L187.28 60.2277ZM187.282 60.215L187.749 60.2728L187.789 59.9873L187.553 59.8264L187.282 60.215ZM181.316 56.1449L180.849 56.0871L180.808 56.3726L181.044 56.5335L181.316 56.1449ZM181.511 54.7826L181.786 54.3964L181.154 53.9561L181.044 54.7247L181.511 54.7826ZM188.316 59.5263L188.782 59.5841L188.823 59.3024L188.591 59.1405L188.316 59.5263ZM187.925 60.7169L180.025 63.6387L180.339 64.5174L188.24 61.5957L187.925 60.7169ZM180.649 64.1359L180.854 62.6969L179.921 62.5812L179.715 64.0202L180.649 64.1359ZM180.537 63.0817L187.429 60.6699L187.131 59.785L180.238 62.1968L180.537 63.0817ZM187.747 60.2855L187.749 60.2728L186.815 60.1571L186.813 60.1698L187.747 60.2855ZM187.553 59.8264L181.587 55.7563L181.044 56.5335L187.01 60.6035L187.553 59.8264ZM181.783 56.2028L181.978 54.8404L181.044 54.7247L180.849 56.0871L181.783 56.2028ZM181.235 55.1683L188.041 59.9125L188.591 59.1405L181.786 54.3964L181.235 55.1683ZM187.849 59.4684L187.616 61.0984L188.55 61.2141L188.782 59.5841L187.849 59.4684Z" fill="white"/>
</g>
<path d="M90.7976 91.6572L88.597 99.7211L87.5315 98.7328L89.5642 91.7762L89.5547 91.7673L82.7214 94.2718L81.7124 93.3356L89.5905 90.5376L90.7976 91.6572Z" fill="white"/>
<mask id="mask22_267_417" style="mask-type:luminance" maskUnits="userSpaceOnUse" x="80" y="87" width="15" height="14">
<path d="M94.5344 87.0273H80.8027V100.619H94.5344V87.0273Z" fill="white"/>
<path d="M90.7976 91.6572L88.597 99.7211L87.5315 98.7328L89.5642 91.7762L89.5547 91.7673L82.7214 94.2718L81.7124 93.3356L89.5905 90.5376L90.7976 91.6572Z" fill="black"/>
</mask>
<g mask="url(#mask22_267_417)">
<path d="M90.7975 91.6572L91.2515 91.781L91.3263 91.5058L91.1174 91.3124L90.7975 91.6572ZM88.5969 99.7212L88.277 100.066L88.8462 100.594L89.0508 99.8449L88.5969 99.7212ZM87.5314 98.7328L87.0798 98.6011L86.9979 98.88L87.2115 99.0776L87.5314 98.7328ZM89.5641 91.7763L90.0157 91.908L90.0971 91.629L89.884 91.4314L89.5641 91.7763ZM89.5547 91.7673L89.8745 91.4225L89.6633 91.2268L89.3928 91.3256L89.5547 91.7673ZM82.7214 94.2718L82.4015 94.6166L82.6127 94.8128L82.8832 94.7136L82.7214 94.2718ZM81.7123 93.3357L81.5547 92.8926L80.8228 93.1527L81.3924 93.6805L81.7123 93.3357ZM89.5904 90.5377L89.9103 90.1924L89.7014 89.999L89.4328 90.094L89.5904 90.5377ZM90.3436 91.5331L88.1429 99.5974L89.0508 99.8449L91.2515 91.781L90.3436 91.5331ZM88.9168 99.3763L87.8513 98.388L87.2115 99.0776L88.277 100.066L88.9168 99.3763ZM87.983 98.8645L90.0157 91.908L89.1125 91.6441L87.0798 98.6011L87.983 98.8645ZM89.884 91.4314L89.8745 91.4225L89.2348 92.1121L89.2442 92.1211L89.884 91.4314ZM89.3928 91.3256L82.5595 93.8301L82.8832 94.7136L89.7165 92.209L89.3928 91.3256ZM83.0412 93.927L82.0322 92.9909L81.3924 93.6805L82.4015 94.6166L83.0412 93.927ZM81.8699 93.7793L89.748 90.9808L89.4328 90.094L81.5547 92.8926L81.8699 93.7793ZM89.2705 90.8825L90.4776 92.0021L91.1174 91.3124L89.9103 90.1924L89.2705 90.8825Z" fill="white"/>
</g>
<path d="M154.424 268.261L161.926 264.421L161.891 265.874L155.331 269.087V269.101L161.735 272.432L161.702 273.808L154.385 269.907L154.424 268.261Z" fill="white"/>
<mask id="mask23_267_417" style="mask-type:luminance" maskUnits="userSpaceOnUse" x="153" y="263" width="10" height="12">
<path d="M162.439 263.601H153.804V274.593H162.439V263.601Z" fill="white"/>
<path d="M154.424 268.261L161.926 264.421L161.891 265.874L155.331 269.087V269.101L161.735 272.432L161.702 273.808L154.385 269.907L154.424 268.261Z" fill="black"/>
</mask>
<g mask="url(#mask23_267_417)">
<path d="M154.424 268.261L154.216 267.843L153.961 267.974L153.954 268.259L154.424 268.261ZM161.926 264.421L162.396 264.423L162.415 263.646L161.718 264.003L161.926 264.421ZM161.891 265.874L162.092 266.295L162.355 266.167L162.362 265.876L161.891 265.874ZM155.331 269.087L155.13 268.666L154.867 268.795L154.86 269.085L155.331 269.087ZM155.331 269.101L154.86 269.099L154.853 269.387L155.107 269.519L155.331 269.101ZM161.735 272.432L162.205 272.434L162.212 272.146L161.958 272.014L161.735 272.432ZM161.702 273.808L161.474 274.224L162.154 274.587L162.172 273.81L161.702 273.808ZM154.385 269.907L153.915 269.905L153.908 270.19L154.157 270.323L154.385 269.907ZM154.632 268.679L162.133 264.839L161.718 264.003L154.216 267.843L154.632 268.679ZM161.455 264.419L161.421 265.872L162.362 265.876L162.396 264.423L161.455 264.419ZM161.691 265.452L155.13 268.666L155.531 269.509L162.092 266.295L161.691 265.452ZM154.86 269.085V269.099L155.801 269.102V269.09L154.86 269.085ZM155.107 269.519L161.511 272.85L161.958 272.014L155.554 268.682L155.107 269.519ZM161.264 272.43L161.231 273.806L162.172 273.81L162.205 272.434L161.264 272.43ZM161.93 273.392L154.613 269.491L154.157 270.323L161.474 274.224L161.93 273.392ZM154.856 269.909L154.895 268.263L153.954 268.259L153.915 269.905L154.856 269.909Z" fill="white"/>
</g>
<path d="M59.8509 178.88L64.7267 185.589L63.2924 185.824L59.1702 179.93L59.1575 179.932L56.8181 186.883L55.46 187.105L58.226 179.146L59.8509 178.88Z" fill="white"/>
<mask id="mask24_267_417" style="mask-type:luminance" maskUnits="userSpaceOnUse" x="53" y="177" width="13" height="11">
<path d="M65.5748 177.663H53.5654V187.72H65.5748V177.663Z" fill="white"/>
<path d="M59.8509 178.88L64.7267 185.589L63.2924 185.824L59.1702 179.93L59.1575 179.932L56.8181 186.883L55.46 187.105L58.226 179.146L59.8509 178.88Z" fill="black"/>
</mask>
<g mask="url(#mask24_267_417)">
<path d="M59.8507 178.88L60.2312 178.598L60.0647 178.369L59.7839 178.415L59.8507 178.88ZM64.7265 185.589L64.7938 186.055L65.5601 185.93L65.1071 185.306L64.7265 185.589ZM63.2922 185.824L62.907 186.1L63.0721 186.337L63.359 186.29L63.2922 185.824ZM59.17 179.93L59.5552 179.654L59.3901 179.418L59.1032 179.465L59.17 179.93ZM59.1573 179.932L59.0905 179.467L58.8059 179.513L58.7132 179.788L59.1573 179.932ZM56.8179 186.883L56.8851 187.348L57.1693 187.302L57.2619 187.027L56.8179 186.883ZM55.4598 187.105L55.0171 186.957L54.7603 187.696L55.5266 187.571L55.4598 187.105ZM58.2258 179.146L58.1586 178.681L57.8777 178.727L57.7832 178.998L58.2258 179.146ZM59.4701 179.164L64.3464 185.872L65.1071 185.306L60.2312 178.598L59.4701 179.164ZM64.6597 185.124L63.2254 185.358L63.359 186.29L64.7938 186.055L64.6597 185.124ZM63.6775 185.548L59.5552 179.654L58.7847 180.206L62.907 186.1L63.6775 185.548ZM59.1032 179.465L59.0905 179.467L59.2245 180.398L59.2372 180.396L59.1032 179.465ZM58.7132 179.788L56.3743 186.739L57.2619 187.027L59.6013 180.076L58.7132 179.788ZM56.7511 186.417L55.393 186.639L55.5266 187.571L56.8851 187.348L56.7511 186.417ZM55.9024 187.253L58.6685 179.294L57.7832 178.998L55.0171 186.957L55.9024 187.253ZM58.2926 179.612L59.9175 179.346L59.7839 178.415L58.1586 178.681L58.2926 179.612Z" fill="white"/>
</g>
</svg>
