<svg width="458" height="577" viewBox="0 0 458 577" fill="none" xmlns="http://www.w3.org/2000/svg">
<path d="M29.1807 464.31C30.165 461.741 33.7988 461.741 34.7832 464.31L63.7627 539.926C64.5156 541.891 63.0647 544 60.9609 544H52.3887C53.0939 543.209 53.3784 542.057 52.9619 540.947L34.791 492.491C33.8177 489.895 30.1462 489.895 29.1729 492.491L11.002 540.947C10.5855 542.057 10.87 543.209 11.5752 544H3.00195C0.898396 544 -0.551643 541.89 0.201172 539.926L29.1807 464.31Z" fill="#463282"/>
<path d="M29.1707 503.557C30.14 500.952 33.8248 500.952 34.7941 503.557L43.0343 525.704C43.7636 527.664 42.314 529.75 40.2227 529.75H23.7422C21.6508 529.75 20.2012 527.664 20.9305 525.704L29.1707 503.557Z" fill="#5863FF"/>
<rect x="75.4824" y="469" width="11" height="69" rx="5.5" fill="#463282"/>
<path d="M120.982 492.036C131.357 492.036 139.982 500.647 139.982 511.536C139.982 522.425 131.357 531.036 120.982 531.036C110.607 531.036 101.982 522.425 101.982 511.536C101.982 500.647 110.607 492.036 120.982 492.036Z" stroke="#463282" stroke-width="13"/>
<path d="M124.482 492.536C137.503 494.244 143.803 511.94 149.982 531.036" stroke="#5863FF" stroke-width="13" stroke-linecap="round"/>
<path fill-rule="evenodd" clip-rule="evenodd" d="M202.616 502.711C200.283 499.799 196.767 498 192.982 498C186.316 498 180.482 503.581 180.482 511C180.482 518.419 186.316 524 192.982 524C196.223 524 199.266 522.682 201.538 520.475C209.963 516.682 212.5 519.367 213.478 526.471C208.832 532.86 201.382 537 192.982 537C178.899 537 167.482 525.359 167.482 511C167.482 496.641 178.899 485 192.982 485C201.382 485 208.832 489.14 213.478 495.529C212.479 502.623 209.047 503.784 202.482 502.5C202.527 502.571 202.572 502.641 202.616 502.711Z" fill="#463282"/>
<path fill-rule="evenodd" clip-rule="evenodd" d="M250.982 499C254.217 499 257.256 500.314 259.527 502.515C259.537 502.518 259.547 502.521 259.557 502.524C260.721 503.979 262.679 504.943 264.982 505C268.572 505 271.482 502.09 271.482 498.5C271.582 497.383 271.185 496.224 270.439 495.195C270.439 495.194 270.439 495.194 270.439 495.193C270.435 495.188 270.431 495.183 270.426 495.178C270.187 494.85 269.913 494.536 269.608 494.241C264.954 489.17 258.331 486 250.982 486C237.55 486 226.543 496.589 225.555 510.027C225.507 510.345 225.482 510.669 225.482 511V512V530.5C225.482 534.09 228.393 537 231.982 537C234.269 537 236.28 535.819 237.439 534.034L237.501 534.073L238.482 511L238.517 511.011C239.008 504.091 244.615 499 250.982 499Z" fill="#463282"/>
<path d="M289.482 491V531" stroke="#463282" stroke-width="13" stroke-linecap="round"/>
<path d="M326.483 479C325.505 520.164 325.858 527.951 344.983 531" stroke="#463282" stroke-width="13" stroke-linecap="round"/>
<path d="M311.482 494.5H340.982" stroke="#5863FF" stroke-width="13" stroke-linecap="round"/>
<path d="M411.982 492.5V569.5" stroke="#5963FF" stroke-width="13" stroke-linecap="round"/>
<path d="M411.982 486C415.572 486 418.482 489.072 418.482 492.861C418.482 493.039 418.473 493.215 418.461 493.389H418.482V510.859C418.482 525.495 406.618 537.359 391.982 537.359C377.347 537.359 365.482 525.495 365.482 510.859V493.389H365.504C365.491 493.215 365.482 493.039 365.482 492.861C365.483 489.072 368.393 486 371.982 486C375.572 486 378.482 489.072 378.482 492.861C378.482 493.039 378.473 493.215 378.461 493.389H378.482V510.859C378.482 518.315 384.527 524.359 391.982 524.359C399.438 524.359 405.482 518.315 405.482 510.859V493.389H405.504C405.491 493.215 405.482 493.039 405.482 492.861C405.483 489.072 408.393 486 411.982 486Z" fill="#463282"/>
<path d="M391.483 537.525C391.649 537.519 391.816 537.516 391.983 537.516C399.439 537.516 405.483 543.56 405.483 551.016V568.827H405.502C405.49 569.005 405.483 569.184 405.483 569.365C405.483 573.228 408.393 576.36 411.983 576.36C415.573 576.36 418.483 573.228 418.483 569.365C418.483 569.184 418.477 569.005 418.464 568.827H418.483V551.016C418.483 542.99 414.915 535.797 409.279 530.938C404.637 534.94 398.593 537.36 391.983 537.36C391.816 537.36 391.65 537.358 391.483 537.355V537.525Z" fill="#5863FF"/>
<path d="M409.279 530.938C404.637 526.936 398.593 524.516 391.983 524.516C385.374 524.516 379.329 526.936 374.688 530.938C379.329 534.94 385.374 537.36 391.983 537.36C398.593 537.36 404.637 534.94 409.279 530.938Z" fill="#5863FF"/>
<mask id="mask0_249_1300" style="mask-type:alpha" maskUnits="userSpaceOnUse" x="3" y="3" width="451" height="451">
<circle cx="228.798" cy="228.798" r="225" transform="rotate(0.975615 228.798 228.798)" fill="#4A47CC"/>
</mask>
<g mask="url(#mask0_249_1300)">
<circle cx="245.221" cy="229.22" r="247.5" transform="rotate(0.975615 245.221 229.22)" stroke="#0D0D0D" stroke-width="5"/>
<path d="M124.8 204.24L36.5215 131.726L140.402 169.001L181.166 183.197L209.162 183.673L305.731 209.822L395.037 251.348L212.287 205.73L124.8 204.24Z" fill="#32255D" stroke="#0D0D0D"/>
<path d="M209.16 183.673L181.164 183.197L140.4 169.001L192.321 115.377L271.494 135.228L291.291 206.075L209.16 183.673Z" fill="#32255D" stroke="#0D0D0D"/>
<path d="M276.617 304.339L235.693 270.138C306.951 272.825 344.747 275.752 378.653 303.077C363.001 311.152 337.83 310.541 276.617 304.339Z" fill="#771268" stroke="#0D0D0D"/>
<path d="M395.42 316.864C357.52 279.775 318.875 272.371 235.692 270.138L278.748 237.866L299.066 248.714L334.052 249.81L334.138 244.81C378.125 264.989 391.98 280.592 395.42 316.864Z" fill="#AB0068" stroke="#0D0D0D"/>
<path d="M279.258 237.375L235.202 269.629L171.169 271.039L206.126 215.126L279.258 237.375Z" fill="#463282" stroke="#0D0D0D"/>
<path d="M299.058 249.214L279.249 237.875L287.977 224.521L309.88 230.395L334.139 244.81L334.053 249.81L299.058 249.214Z" fill="#463282" stroke="#0D0D0D"/>
<path d="M279.248 237.875L206.125 215.126L212.294 205.23L287.977 224.521L279.248 237.875Z" fill="#6C53BB" stroke="#0D0D0D"/>
<path d="M212.294 205.23L170.659 271.531L125.79 204.757L212.294 205.23Z" fill="#6C53BB" stroke="#0D0D0D"/>
<path d="M268.728 297.704L194.552 307.443L171.16 271.539L235.202 269.629L268.728 297.704Z" fill="#6C53BB" stroke="#0D0D0D"/>
<path d="M87.1715 270.109L54.2534 470.577L157.831 378.828L87.1715 270.109Z" fill="#4B3591" stroke="#0D0D0D"/>
<path d="M87.1724 270.109L110.581 305.013L211.133 332.229L124.799 204.24L93.8781 228.717L87.1724 270.109Z" fill="#5739B5" stroke="#0D0D0D"/>
<path d="M195.051 307.451L211.131 332.229L241.284 382.249L279.607 304.891L268.228 297.696L195.051 307.451Z" fill="#5D43AC" stroke="#0D0D0D"/>
<path d="M110.58 305.013L158.33 378.836L210.631 332.22L110.58 305.013Z" fill="#5D43AC" stroke="#0D0D0D"/>
<path d="M211.132 332.229L54.762 470.086L209.64 449.22L241.276 382.749L211.132 332.229Z" fill="#6C53BB" stroke="#0D0D0D"/>
<path d="M385.077 483.712L261.714 474.61L209.648 448.72L276.497 311.338L385.077 483.712Z" fill="#5739B5" stroke="#0D0D0D"/>
<path d="M54.2538 470.577L42.4977 514.884L261.215 474.602L210.14 449.229L54.2538 470.577Z" fill="#5739B5" stroke="#0D0D0D"/>
<path d="M179.253 134.106L235.186 185.556L162.24 163.923L106.32 111.499L179.253 134.106Z" fill="#5863FF" stroke="#0D0D0D"/>
<path d="M233.033 249.062L208.524 241.437L225.679 229.499L233.033 249.062Z" fill="#5863FF" stroke="#0D0D0D"/>
</g>
</svg>
