<svg width="540" height="619" viewBox="0 0 540 619" fill="none" xmlns="http://www.w3.org/2000/svg">
<path d="M79.1807 470.31C80.165 467.741 83.7988 467.741 84.7832 470.31L113.763 545.926C114.516 547.891 113.065 550 110.961 550H102.389C103.094 549.209 103.378 548.057 102.962 546.947L84.791 498.491C83.8177 495.895 80.1462 495.895 79.1729 498.491L61.002 546.947C60.5855 548.057 60.87 549.209 61.5752 550H53.002C50.8984 550 49.4484 547.89 50.2012 545.926L79.1807 470.31Z" fill="#D8D8D8"/>
<path d="M79.1707 509.557C80.14 506.952 83.8248 506.952 84.7941 509.557L93.0343 531.704C93.7636 533.664 92.314 535.75 90.2227 535.75H73.7422C71.6508 535.75 70.2012 533.664 70.9305 531.704L79.1707 509.557Z" fill="#BBBBBB"/>
<rect x="125.482" y="475" width="11" height="69" rx="5.5" fill="#D8D8D8"/>
<path d="M170.982 498.036C181.357 498.036 189.982 506.647 189.982 517.536C189.982 528.425 181.357 537.036 170.982 537.036C160.607 537.036 151.982 528.425 151.982 517.536C151.982 506.647 160.607 498.036 170.982 498.036Z" stroke="#D7D7D7" stroke-width="13"/>
<path d="M174.482 498.536C187.503 500.244 193.803 517.94 199.982 537.036" stroke="#BBBBBB" stroke-width="13" stroke-linecap="round"/>
<path fill-rule="evenodd" clip-rule="evenodd" d="M252.616 508.711C250.283 505.799 246.767 504 242.982 504C236.316 504 230.482 509.581 230.482 517C230.482 524.419 236.316 530 242.982 530C246.223 530 249.266 528.682 251.538 526.475C259.963 522.682 262.5 525.367 263.478 532.471C258.832 538.86 251.382 543 242.982 543C228.899 543 217.482 531.359 217.482 517C217.482 502.641 228.899 491 242.982 491C251.382 491 258.832 495.14 263.478 501.529C262.479 508.623 259.047 509.784 252.482 508.5C252.527 508.571 252.572 508.641 252.616 508.711Z" fill="#D8D8D8"/>
<path d="M300.982 492C308.337 492 314.963 495.175 319.617 500.253C319.914 500.541 320.181 500.846 320.415 501.165C320.423 501.175 320.432 501.184 320.439 501.193C320.439 501.195 320.439 501.196 320.438 501.197C321.184 502.226 321.582 503.384 321.482 504.5C321.482 508.09 318.572 511 314.982 511C312.679 510.943 310.722 509.979 309.558 508.523C309.548 508.52 309.537 508.518 309.527 508.515C307.256 506.314 304.217 505 300.982 505C294.615 505 289.009 510.091 288.518 517.011C288.506 517.007 288.494 517.004 288.482 517L287.501 540.073C287.48 540.06 287.459 540.047 287.438 540.034C286.28 541.819 284.269 543 281.982 543C278.393 543 275.482 540.09 275.482 536.5V517C275.482 516.669 275.507 516.345 275.555 516.027C276.543 502.59 287.55 492 300.982 492Z" fill="#D8D8D8"/>
<path d="M339.482 497V537" stroke="#D7D7D7" stroke-width="13" stroke-linecap="round"/>
<path d="M376.483 485C375.505 526.164 375.858 533.951 394.983 537" stroke="#D7D7D7" stroke-width="13" stroke-linecap="round"/>
<path d="M361.482 500.5H390.982" stroke="#BBBBBB" stroke-width="13" stroke-linecap="round"/>
<path d="M461.982 498.5V575.5" stroke="#BBBBBB" stroke-width="13" stroke-linecap="round"/>
<path fill-rule="evenodd" clip-rule="evenodd" d="M428.482 498.861C428.482 495.072 425.572 492 421.982 492C418.393 492 415.482 495.072 415.482 498.861C415.482 499.039 415.489 499.215 415.501 499.389H415.482V516.86C415.482 531.495 427.347 543.36 441.982 543.36C456.618 543.36 468.482 531.495 468.482 516.86V499.389H468.463C468.476 499.215 468.482 499.039 468.482 498.861C468.482 495.072 465.572 492 461.982 492C458.393 492 455.482 495.072 455.482 498.861C455.482 499.039 455.489 499.215 455.501 499.389H455.482V516.86C455.482 524.316 449.438 530.36 441.982 530.36C434.527 530.36 428.482 524.316 428.482 516.86V499.389H428.463C428.476 499.215 428.482 499.039 428.482 498.861Z" fill="#D8D8D8"/>
<path d="M441.483 543.525C441.649 543.519 441.816 543.516 441.983 543.516C449.439 543.516 455.483 549.56 455.483 557.016V574.827H455.502C455.49 575.005 455.483 575.184 455.483 575.365C455.483 579.228 458.393 582.36 461.983 582.36C465.573 582.36 468.483 579.228 468.483 575.365C468.483 575.184 468.477 575.005 468.464 574.827H468.483V557.016C468.483 548.99 464.915 541.798 459.279 536.938C454.637 540.94 448.593 543.36 441.983 543.36C441.816 543.36 441.65 543.358 441.483 543.355V543.525Z" fill="#BBBBBB"/>
<path d="M459.279 536.938C454.637 532.936 448.593 530.516 441.983 530.516C435.374 530.516 429.329 532.936 424.688 536.938C429.329 540.94 435.374 543.36 441.983 543.36C448.593 543.36 454.637 540.94 459.279 536.938Z" fill="#BBBBBB"/>
<mask id="mask0_237_862" style="mask-type:alpha" maskUnits="userSpaceOnUse" x="44" y="19" width="451" height="451">
<path d="M494.768 248.629C492.652 372.876 390.215 471.882 265.969 469.766C141.723 467.65 42.7172 365.213 44.833 240.967C46.9488 116.721 149.385 17.7152 273.631 19.831C397.878 21.9469 496.884 124.383 494.768 248.629Z" fill="#262626"/>
</mask>
<g mask="url(#mask0_237_862)">
<path d="M251.164 209.673L223.168 209.197L182.404 195.001L234.325 141.377L313.498 161.228L333.295 232.075L251.164 209.673Z" fill="#F1F1F1"/>
<path d="M318.619 330.339L277.502 295.5C348.759 298.187 386.556 301.114 420.462 328.439C404.81 336.514 379.832 336.541 318.619 330.339Z" fill="#EDEDED"/>
<path d="M437.423 342.864C399.523 305.775 360.878 298.371 277.695 296.138L320.751 263.152L341.069 274L376.056 275.81L376.141 270.81C420.129 290.989 433.983 306.592 437.423 342.864Z" fill="#DDDDDD"/>
<path d="M331.484 256.494L276.968 303.5L197.9 305.784L243.003 234L331.484 256.494Z" fill="#D8D8D8"/>
<path d="M321.252 263.875L248.129 241.126L254.298 231.23L329.98 250.521L321.252 263.875Z" fill="#ABABAB"/>
<path d="M255.002 231.5L207.502 297.428L167.002 229L255.002 231.5Z" fill="#ABABAB"/>
<path d="M329.435 331.478L239.501 346.5L213.197 295.491L290.81 292.298L329.435 331.478Z" fill="#ABABAB"/>
<path d="M129.175 296.109L96.2573 496.577L199.835 404.828L129.175 296.109Z" fill="#CFCFCF"/>
<path d="M128.832 298L154.4 337.114L263.002 366L167.002 229L136.664 256.227L128.832 298Z" fill="#BBBBBB"/>
<path d="M237.038 334.485L254.613 361.59L287.568 416.311L329.502 331.398L317.018 323.709L237.038 334.485Z" fill="#BBBBBB"/>
<path d="M129.523 325.676L194.544 416.133L265.471 359.202L129.523 325.676Z" fill="#BBBBBB"/>
<path d="M263.056 353.998L84.5089 497.398L261.551 475.92L297.608 406.701L263.056 353.998Z" fill="#ABABAB"/>
<path d="M427.081 509.712L303.718 500.61L251.652 474.72L318.5 337.338L427.081 509.712Z" fill="#BBBBBB"/>
<path d="M146.396 136.379L221.511 159.661L279.117 212.65L203.986 190.367L146.396 136.379Z" fill="#BBBBBB"/>
<path d="M267.922 254.722L275.863 275.843L249.401 267.61L267.922 254.722Z" fill="#BBBBBB"/>
<path d="M341.061 275.214L321.251 263.875L329.98 250L351.883 255.874L376.141 270.81L376.056 275.809L341.061 275.214Z" fill="#D8D8D8"/>
<path d="M166.802 230.24L78.5234 157.726L182.404 195.001L223.168 209.197L251.164 209.673L347.733 235.821L437.039 277.348L254.289 231.73L166.802 230.24Z" fill="#F1F1F1"/>
</g>
</svg>
