<svg width="101" height="93" viewBox="0 0 101 93" fill="none" xmlns="http://www.w3.org/2000/svg">
<path d="M48.7334 1.3332C38.3334 3.46653 27.9334 9.59987 18.3334 19.3332C13.1334 24.3999 7.80002 30.9332 6.33335 33.7332L3.66669 38.9332L6.46669 41.1999L9.26669 43.4665L4.73335 49.9999C-1.93331 59.9999 -0.599981 65.7332 7.80002 62.6665C13.5334 60.3999 13.8 60.7999 12.8667 69.7332C11.5334 82.7999 15 86.9332 22.7334 81.4665C29.4 76.9332 31.4 76.9332 35.4 81.9999C40.0667 87.8665 48.8667 93.5999 51.5334 92.5332C52.7334 92.1332 53.9334 89.1999 54.3334 85.5999C56.6 69.3332 61.6667 57.3332 69 50.9332C73.2667 47.0665 74.6 46.6665 82.0667 46.6665C87.5334 46.6665 91.4 47.3332 93.4 48.7999C98.3334 52.2665 100.333 50.3999 100.333 42.1332C100.333 35.9999 99.6667 33.9999 96.6 30.3999C94.4667 27.9999 92.3334 24.1332 91.8 21.9999C88.2 6.66653 68.4667 -2.80014 48.7334 1.3332ZM77.6667 24.9332C78.8667 25.9999 73.2667 29.3332 70.2 29.3332C66.6 29.3332 63 24.7999 63 20.3999V17.3332L70.0667 20.7999C73.8 22.7999 77.2667 24.5332 77.6667 24.9332Z" fill="black"/>
</svg>
