<svg xmlns="http://www.w3.org/2000/svg" viewBox="0 0 588.97 126.43"><defs><style>.cls-1{fill:#e31818;}.cls-2{fill:#232124;}</style></defs><g id="Layer_2" data-name="Layer 2"><g id="Capa_1" data-name="Capa 1"><path class="cls-1" d="M110.23,9.3l-3.58,7.55-4,8.27L97.39,35.45l-3.66,7.2c-1.83,2.82-5.14,4.28-9.6,4.67a60,60,0,0,1-10.29.53,50,50,0,0,1-7.52-.53c-4.78-.75-6.52-1.49-7.59-2.36a3.15,3.15,0,0,1-.87-3.49l3.16-6,.08-.21H5.25l-.09.21-4,8.62c-4.36,8.44,3.75,13.34,24.44,16.59C37.52,62.29,54.46,63,77.67,63c32-1.06,76.09.74,84-18.44l3.23-9.07,6.72-18.6L177.43.59h-63L110.23,9.3Z"/><path class="cls-1" d="M352.8,28.43c-4.18-.24-8.46-.45-13.68-.45,20.07-1.63,29-6.08,30.79-11.13a6.78,6.78,0,0,0,.35-2.65C370.26,3.55,353.85.59,339.81.59H205.09l-4.53,16.26-3.41,12.08-1.64,6.52-7,27.36L339.6,63c24.39,0,43.26-6.23,45.76-15.4,1.18-4.31-.17-8.51-6-12.11-5.32-3.25-14-5.84-26.54-7Zm-91-16.36h28.27c6.54-.23,12.58,1.18,12.73,4.78V17c-.52,2.09-2.7,4.45-12.21,4.68H260.31l1.49-9.56ZM294.87,45.7H257.08l1.84-13.27h34.56c8.92,0,15,2.13,14.92,7.65,0,4.46-7.51,5.39-13.53,5.62Z"/><path class="cls-1" d="M580.52,35.45c-.1-.06-.1-.15-.18-.21H514.72l.06.21,3.43,6.49c3,7.32-43,7.53-45.57,1.22l-3-7.71-7.16-18.6-.25-.79c-1.84-5.13,36.81-6.35,40.12-.74l1.05,1.53,3.33,4.78h65.62s-3.27-6.19-6.62-9.06C551.5.42,502.39.09,478,.09c-18,0-65.79-1.63-74.7,9.21a7.89,7.89,0,0,0-2.36,7.2l.1.35,4.63,18.6,2.88,11.87c1.82,6.31,15.53,11.27,35.87,13.9,21.37,2.48,46.77,2.48,61.86,2.48,19.36,0,43-.74,59.53-3,17-2.6,26.52-7,22.14-15a69.23,69.23,0,0,0-7.39-10.25Z"/><path class="cls-2" d="M120.24,99.45h-.09L115,116.55h-4.33L102.9,92.13h5.2l4.68,17.1h.09l5.54-17.1H122l5.54,17.1h.09l4.68-17.1h5.2l-7.8,24.42h-4.34Z"/><path class="cls-2" d="M157.67,99.45h-.1l-5.1,17.1h-4.34l-7.8-24.42h5.2l4.67,17.1h.1l5.54-17.1h3.56l5.54,17.1h.1l4.67-17.1h5.2l-7.8,24.42h-4.34Z"/><path class="cls-2" d="M195.09,99.45H195l-5.11,17.1h-4.34l-7.8-24.42H183l4.68,17.1h.09l5.54-17.1h3.57l5.54,17.1h.09l4.68-17.1h5.2l-7.81,24.42H200.2Z"/><path class="cls-2" d="M214.27,111.64h4.91v4.91h-4.91Z"/><path class="cls-2" d="M226.34,92.13h4.91v27.46c0,4.09-3,6.84-7.13,6.84h-1.93V121.8h1.4c1.69,0,2.75-.77,2.75-2.6Zm0-9.88h4.91v4.92h-4.91Z"/><path class="cls-2" d="M238,82.25h4.92V94.73a9,9,0,0,1,6.31-2.89A8,8,0,0,1,255.8,95c1.35,1.73,1.73,3.32,1.73,9.29s-.38,7.62-1.73,9.35a8,8,0,0,1-6.55,3.18,8.63,8.63,0,0,1-6.31-2.84v2.55H238Zm4.92,22.06c0,3.57.24,7.62,4.81,7.62s4.87-3.81,4.87-7.62-.24-7.56-4.87-7.56S242.94,100.8,242.94,104.31Z"/><path class="cls-2" d="M281.85,112.6a11.42,11.42,0,0,1-8.77,4.24c-5.63,0-11.08-3.57-11.08-12.48s5.45-12.52,11.08-12.52a11.42,11.42,0,0,1,8.77,4.24l-3.61,3.22a6.44,6.44,0,0,0-5-2.55c-4,0-6.35,2.27-6.35,7.61s2.36,7.57,6.35,7.57a6.42,6.42,0,0,0,5-2.56Z"/><path class="cls-2" d="M287.58,84.71h4.91v7.42h3.57v3.75h-3.57V110.1c0,1.34.53,1.83,1.74,1.83h1.83v4.62h-2.55c-3.42,0-5.93-2.17-5.93-6V95.88h-2.46V92.13h2.46Z"/><path class="cls-2" d="M302.4,95a10.36,10.36,0,0,1,14.84,0c1.87,2.07,2.65,4.09,2.65,9.34s-.78,7.33-2.65,9.4a10.36,10.36,0,0,1-14.84,0c-1.88-2.07-2.65-4.1-2.65-9.4S300.52,97,302.4,95Zm11.37,3.56a5.27,5.27,0,0,0-7.9,0c-.92,1.3-1.21,2.27-1.21,5.78s.29,4.53,1.21,5.83a5.25,5.25,0,0,0,7.9,0c.91-1.3,1.2-2.26,1.2-5.78S314.68,99.83,313.77,98.53Z"/><path class="cls-2" d="M327.06,95a10.36,10.36,0,0,1,14.84,0c1.88,2.07,2.65,4.09,2.65,9.34s-.77,7.33-2.65,9.4a10.36,10.36,0,0,1-14.84,0c-1.88-2.07-2.65-4.1-2.65-9.4S325.18,97,327.06,95Zm11.37,3.56a5.27,5.27,0,0,0-7.9,0c-.91,1.3-1.2,2.27-1.2,5.78s.29,4.53,1.2,5.83a5.25,5.25,0,0,0,7.9,0c.92-1.3,1.21-2.26,1.21-5.78S339.35,99.83,338.43,98.53Z"/><path class="cls-2" d="M350.06,82.25H355v28c0,1.11.63,1.69,1.83,1.69h1.69v4.62h-2.17c-3.56,0-6.26-1.54-6.26-5.92Z"/><path class="cls-2" d="M365.16,109.08a10.2,10.2,0,0,0,7.7,3.14c2.8,0,4.82-1.06,4.82-3.14,0-1.73-1.3-2.26-3-2.4l-4.34-.39c-4.05-.34-7-2.75-7-6.94,0-5,3.95-7.51,9.1-7.51A14,14,0,0,1,382,95.16l-3,3.57a10.85,10.85,0,0,0-6.55-2.27c-3.13,0-4.19,1.26-4.19,2.94,0,1.06.77,2.12,3.23,2.31l4,.29c5.06.34,7.09,3.42,7.09,7.32,0,4.77-4.44,7.52-10.12,7.52a15.4,15.4,0,0,1-10.74-4.38Z"/><path class="cls-2" d="M388.21,111.64h4.91v4.91h-4.91Z"/><path class="cls-2" d="M417.64,112.6a11.42,11.42,0,0,1-8.77,4.24c-5.64,0-11.08-3.57-11.08-12.48s5.44-12.52,11.08-12.52a11.42,11.42,0,0,1,8.77,4.24L414,99.3a6.42,6.42,0,0,0-5-2.55c-4,0-6.36,2.27-6.36,7.61s2.36,7.57,6.36,7.57a6.4,6.4,0,0,0,5-2.56Z"/><path class="cls-2" d="M423.34,95a10.36,10.36,0,0,1,14.84,0c1.87,2.07,2.65,4.09,2.65,9.34s-.78,7.33-2.65,9.4a10.36,10.36,0,0,1-14.84,0c-1.88-2.07-2.65-4.1-2.65-9.4S421.46,97,423.34,95Zm11.37,3.56a5.27,5.27,0,0,0-7.9,0c-.92,1.3-1.21,2.27-1.21,5.78s.29,4.53,1.21,5.83a5.25,5.25,0,0,0,7.9,0c.91-1.3,1.2-2.26,1.2-5.78S435.62,99.83,434.71,98.53Z"/><path class="cls-2" d="M446.54,92.13h4.92v2.6h.09a7.82,7.82,0,0,1,6.36-2.89c3.42,0,5.16,1.4,6.89,3.18a9.56,9.56,0,0,1,7.71-3.18,8.2,8.2,0,0,1,8.14,8.48v16.23h-4.91V102c0-3.32-2.08-5.25-4.82-5.25s-4.87,1.93-4.87,5.25v14.55h-4.91V102c0-3.32-2.07-5.25-4.82-5.25s-4.86,1.93-4.86,5.25v14.55h-4.92Z"/></g></g></svg>