<svg width="224" height="287" viewBox="0 0 224 287" fill="none" xmlns="http://www.w3.org/2000/svg">
<path d="M46.2388 260.703L108.126 53.9642L188.213 98.1787L46.2388 260.703Z" fill="#D9D9D9" fill-opacity="0.2"/>
<circle cx="145.5" cy="80.5" r="47.5" fill="white"/>
<path d="M142.774 52.1258C133.143 54.7029 124.75 61.1901 118.3 70.9653L115.031 75.9418L116.974 77.5414L118.918 79.141L115.826 83.8508C111.673 90.0714 111.938 91.4044 117.681 91.1378L122.011 90.9601L121.746 97.3584C121.48 102.601 121.657 104.112 122.894 105.09C124.131 106.156 124.661 106.156 126.252 105.09C133.143 100.735 132.525 100.735 136.854 105.179C141.448 109.977 145.689 112.021 147.545 110.51C148.163 109.977 148.958 106.956 149.223 103.668C149.754 96.0254 154.701 85.6281 159.031 82.9622C162.741 80.6517 170.163 80.4739 173.697 82.6067C175.818 83.8508 176.436 83.8508 177.585 82.9622C180.412 80.5628 178.733 71.5874 174.934 69.0991C173.786 68.3882 172.814 66.8775 172.814 65.7223C172.814 63.1452 169.456 57.7244 166.364 55.325C161.151 51.1483 151.079 49.8153 142.774 52.1258ZM163.006 68.2994C162.476 69.0103 160.709 69.5435 159.119 69.5435C156.998 69.5435 156.115 69.0103 155.32 67.3218C154.701 66.0777 154.26 64.3004 154.26 63.3229C154.26 61.901 154.79 61.9899 159.119 64.3893C163.183 66.522 163.89 67.3218 163.006 68.2994Z" fill="#403368"/>
</svg>
