<svg width="167" height="234" viewBox="0 0 167 234" fill="none" xmlns="http://www.w3.org/2000/svg">
<g clip-path="url(#clip0_36_393)">
<path d="M90.8437 49.1196H93.1042V49.7659H93.4271V51.0585H93.75V52.3511H94.0729V52.028H94.3958V51.3817H94.7187V51.0585H95.0417V50.7353H97.3021V52.9974H96.9792V53.3206H96.6562V53.9669H96.3333V54.2901H96.0104V54.6132H95.6875V54.9364H95.3646V55.5827H95.0417V57.1984H95.3646V58.4911H96.3333V58.8142H97.3021V59.1374H97.9479V59.4605H98.2708V59.1374H98.5937V58.8142H98.9167V58.4911H99.5625V58.1679H99.8854V57.8448H100.208V57.5216H100.531V57.1984H100.854V56.5521H100.531V52.3511H102.792V54.6132H103.115V54.9364H103.437V54.6132H104.083V54.2901H104.406V53.9669H104.729V53.6437H106.99V55.9058H106.667V56.229H106.344V56.5521H106.021V56.8753H105.375V57.1984H105.052V57.5216H104.729V57.8448H105.052V58.1679H107.635V60.43H103.115V60.1068H101.823V60.43H101.5V60.7532H100.854V61.0763H100.531V61.3995H100.208V61.7226H100.531V62.3689H100.854V63.0152H101.177V64.9542H101.5V65.2773H102.469V65.6005H103.437V65.2773H104.083V64.9542H104.729V64.631H105.375V64.3079H106.021V63.9847H106.667V63.6616H108.927V65.9236H108.604V66.2468H107.958V66.5699H107.312V67.2163H108.281V67.5394H109.25V67.8626H109.896V70.1247H107.312V69.8015H106.344V69.4783H105.698V69.8015H106.021V70.4478H106.344V73.0331H104.083V72.3867H103.76V71.7404H103.437V71.0941H103.115V70.4478H102.792V69.8015H102.469V69.1552H102.146V68.1857H101.5V67.8626H100.531V67.5394H100.208V67.8626H99.8854V68.1857H99.5625V68.5089H99.2396V68.832H98.9167V69.1552H98.5937V69.4783H97.9479V69.8015H97.3021V70.1247H97.625V71.7404H98.2708V72.0636H98.5937V72.3867H99.2396V72.7099H99.5625V73.0331H99.8854V73.3562H100.531V73.6794H100.854V74.0025H101.177V74.3257H101.823V74.6488H102.146V76.9109H99.8854V76.5878H99.2396V76.2646H98.9167V75.9415H98.5937V76.9109H98.9167V79.8193H96.6562V78.8498H96.3333V77.2341H96.0104V76.5878H95.6875V77.2341H95.3646V77.5572H95.0417V77.8804H94.7187V78.2035H92.4583V75.9415H92.7812V75.6183H93.1042V75.2951H93.4271V74.6488H93.75V74.3257H94.0729V74.0025H94.3958V73.6794H94.7187V73.3562H95.0417V72.7099H95.3646V72.0636H95.0417V70.4478H93.4271V70.1247H92.4583V69.8015H91.8125V69.4783H91.1667V69.8015H90.8437V70.1247H90.5208V70.4478H90.1979V70.771H89.5521V71.0941H89.2292V72.3867H89.5521V76.2646H87.2917V74.3257H86.9687V73.6794H86.3229V74.0025H86V74.3257H85.6771V74.6488H85.3542V74.972H83.0937V72.7099H83.4167V72.3867H83.7396V72.0636H84.0625V71.7404H84.3854V71.4173H85.0312V71.0941H84.7083V70.771H82.125V68.5089H86.6458V68.832H87.6146V68.5089H88.2604V68.1857H88.5833V67.8626H88.9062V67.5394H89.2292V66.5699H88.9062V65.9236H88.5833V63.6616H87.9375V63.3384H86.3229V63.6616H85.6771V63.9847H85.0312V64.3079H84.3854V64.631H83.7396V64.9542H81.1562V62.6921H81.8021V62.3689H82.4479V62.0458H83.0937V61.7226H82.4479V61.3995H81.8021V61.0763H80.8333V60.7532H80.1875V58.4911H82.7708V58.8142H83.7396V59.1374H84.3854V58.8142H84.0625V58.1679H83.7396V55.9058H86V56.229H86.3229V56.8753H86.6458V57.5216H86.9687V58.1679H87.2917V58.4911H87.6146V59.1374H87.9375V59.7837H88.2604V60.7532H88.9062V61.0763H89.875V60.7532H90.1979V60.43H90.5208V60.1068H90.8437V59.7837H91.1667V59.4605H91.8125V59.1374H92.4583V58.8142H92.7812V57.8448H92.4583V56.8753H91.4896V56.5521H91.1667V56.229H90.5208V55.9058H90.1979V55.5827H89.875V55.2595H89.5521V54.9364H89.2292V54.6132H88.5833V54.2901H88.2604V53.9669H87.9375V51.7048H90.1979V52.028H90.5208V52.3511H91.1667V51.7048H90.8437V49.1196ZM93.75 60.7532V61.0763H92.7812V61.3995H92.4583V61.7226H91.8125V62.0458H91.4896V62.6921H91.1667V63.3384H90.8437V65.6005H91.1667V66.2468H91.4896V66.8931H91.8125V67.2163H92.4583V67.5394H92.7812V67.8626H93.75V68.1857H96.0104V67.8626H96.9792V67.5394H97.3021V67.2163H97.9479V66.8931H98.2708V66.2468H98.5937V65.6005H98.9167V63.3384H98.5937V62.6921H98.2708V62.0458H97.9479V61.7226H97.3021V61.3995H96.9792V61.0763H96.0104V60.7532H93.75Z" fill="#D9D9D9"/>
<path d="M18.1874 151.237H20.1249V152.529H20.4478V153.822H20.7708V153.176H21.0937V152.852H21.4166V152.529H23.3541V154.468H23.0312V154.791H22.7083V155.438H22.3853V155.761H22.0624V156.084H21.7395V156.407H21.4166V157.053H21.0937V158.669H22.7083V158.992H23.677V159.316H24.3228V158.992H24.6458V158.669H25.2916V158.346H25.6145V158.023H25.9374V154.145H27.8749V156.407H28.1978V156.084H28.5208V155.761H29.1666V155.438H29.4895V155.114H31.427V157.053H31.1041V157.377H30.7812V157.7H30.1353V158.023H29.8124V158.346H29.4895V158.669H32.0728V160.608H26.2603V160.931H25.9374V161.578H26.2603V162.547H26.5833V164.809H27.552V165.132H28.5208V164.809H29.1666V164.486H29.4895V164.163H30.1353V163.84H30.4583V163.517H31.1041V163.193H33.0416V165.132H32.7187V165.455H32.0728V165.779H31.7499V166.102H31.1041V166.425H32.0728V166.748H33.0416V167.071H33.6874V169.01H31.427V168.687H30.4583V169.01H30.7812V170.949H28.8437V170.626H28.5208V169.98H28.1978V169.333H27.8749V168.687H27.552V167.394H26.9062V167.071H25.9374V166.748H25.6145V167.071H25.2916V167.394H24.9687V167.718H24.6458V168.041H23.9999V168.364H23.677V169.98H23.9999V170.303H24.3228V170.626H24.6458V170.949H25.2916V171.272H25.6145V171.595H26.2603V171.919H26.5833V172.242H27.2291V172.565H27.552V174.504H25.6145V174.181H24.9687V173.857H24.6458V176.766H22.7083V175.473H22.3853V173.857H22.0624V174.181H21.7395V174.827H21.4166V175.15H21.0937V175.473H19.1562V173.534H19.4791V173.211H19.802V172.565H20.1249V172.242H20.4478V171.919H20.7708V171.272H21.0937V170.949H21.4166V170.626H21.7395V169.656H21.4166V169.01H20.1249V168.687H19.1562V168.364H18.5103V168.687H18.1874V169.01H17.5416V169.333H17.2187V169.656H16.8958V174.181H14.9583V171.595H14.6353V171.919H14.3124V172.242H13.6666V172.565H13.3437V172.888H11.4062V170.949H11.7291V170.626H12.052V170.303H12.6978V169.98H13.0208V169.656H13.3437V169.333H10.7603V167.394H15.927V167.071H16.5728V166.748H16.8958V166.102H16.5728V165.132H16.2499V163.517H15.6041V163.193H14.9583V162.87H14.3124V163.193H13.6666V163.517H13.3437V163.84H12.6978V164.163H12.052V164.486H10.1145V162.547H10.4374V162.224H11.0833V161.901H11.4062V161.578H10.4374V161.254H9.79159V160.931H9.14575V158.992H11.4062V159.316H12.052V159.639H12.3749V158.992H12.052V157.053H13.9895V157.377H14.3124V158.023H14.6353V158.669H14.9583V159.316H15.2812V159.962H15.6041V160.931H16.5728V161.254H17.2187V160.608H17.5416V160.285H17.8645V159.962H18.1874V159.639H18.8333V159.316H19.1562V158.346H18.8333V158.023H18.5103V157.7H18.1874V157.377H17.5416V157.053H17.2187V156.73H16.8958V156.407H16.2499V156.084H15.927V155.761H15.6041V153.822H17.5416V154.145H17.8645V154.468H18.5103V154.145H18.1874V151.237ZM20.4478 160.608V160.931H19.802V161.254H19.1562V161.578H18.8333V162.224H18.5103V162.87H18.1874V164.809H18.5103V165.455H18.8333V166.102H19.1562V166.425H19.802V166.748H20.4478V167.071H22.3853V166.748H23.0312V166.425H23.677V166.102H23.9999V165.455H24.3228V164.486H24.6458V162.87H24.3228V162.224H23.9999V161.578H23.677V161.254H23.0312V160.931H22.3853V160.608H20.4478ZM24.3228 173.534V173.857H24.6458V173.534H24.3228Z" fill="#D9D9D9"/>
<path d="M121.521 71.7405H123.458V73.0331H123.781V74.3257H124.104V74.0026H124.427V73.3563H124.75V73.0331H126.688V74.972H126.365V75.6183H126.042V75.9415H125.719V76.5878H125.396V77.2341H125.073V77.5573H124.75V78.2036H124.427V79.8194H126.042V80.1425H126.688V80.4657H127.333V80.1425H127.656V79.8194H127.979V79.4962H128.302V79.173H128.948V78.8499H129.271V77.2341H128.948V74.6489H130.885V75.6183H131.208V76.911H131.531V76.5878H131.854V76.2647H132.177V75.9415H132.5V75.6183H134.438V77.5573H134.115V77.8804H133.792V78.2036H133.469V78.5267H133.146V78.8499H134.115V79.173H135.083V81.112H132.5V80.7888H130.563V81.112H129.917V81.4351H129.594V81.7583H129.271V82.0814H128.948V82.7278H129.271V83.3741H129.594V84.9898H130.24V85.313H131.208V85.6362H131.531V85.313H132.177V84.9898H132.823V84.6667H133.469V84.3435H134.115V84.0204H136.052V85.9593H135.729V86.2825H135.083V86.6056H135.406V86.9288H136.375V87.2519H137.021V89.1909H134.76V88.8677H133.792V89.514H134.115V91.4529H132.177V91.1298H131.854V90.4835H131.531V89.8372H131.208V89.514H130.885V88.8677H130.563V88.2214H130.24V87.5751H129.594V87.2519H128.625V87.5751H128.302V87.8982H127.979V88.2214H127.656V88.5446H127.333V88.8677H126.688V89.514H127.01V90.8066H127.333V91.1298H127.979V91.4529H128.302V91.7761H128.948V92.0993H129.594V92.4224H130.24V92.7456H130.563V94.6845H128.625V94.3613H127.979V94.0382H127.656V94.6845H127.979V97.2697H126.042V96.3003H125.719V94.6845H125.073V95.0077H124.75V95.3308H124.427V95.654H122.49V93.715H122.813V93.3919H123.135V93.0687H123.458V92.4224H123.781V92.0993H124.104V91.7761H124.427V91.4529H124.75V89.514H123.458V89.1909H122.813V88.8677H122.167V88.5446H121.521V88.8677H121.198V89.1909H120.875V89.514H120.552V89.8372H119.906V90.8066H120.229V94.3613H118.292V92.4224H117.969V92.0993H117.323V92.4224H117V92.7456H116.677V93.0687H116.354V93.3919H114.417V91.4529H114.74V91.1298H115.063V90.8066H115.385V90.4835H115.708V90.1603H116.354V89.8372H114.094V87.8982H118.938V87.5751H119.26V87.2519H119.583V86.9288H119.906V86.6056H120.229V85.9593H119.906V83.6972H119.26V83.3741H117.969V83.6972H117.323V84.0204H116.677V84.3435H116.031V84.6667H115.385V84.9898H113.125V83.0509H113.771V82.7278H114.417V82.4046H115.063V82.0814H114.094V81.7583H113.125V81.4351H112.479V79.4962H114.74V79.8194H115.708V79.4962H115.385V77.2341H117.323V77.8804H117.646V78.5267H117.969V79.173H118.292V79.8194H118.615V80.4657H118.938V81.112H119.906V81.4351H120.875V81.7583H121.198V81.4351H121.521V81.112H121.844V80.7888H122.167V80.4657H122.49V79.4962H122.167V78.2036H121.521V77.8804H121.198V77.5573H120.875V77.2341H120.229V76.911H119.906V76.5878H119.583V76.2647H118.938V75.9415H118.615V74.0026H120.552V74.3257H121.198V74.6489H121.521V71.7405ZM121.521 74.6489V74.972H121.844V74.6489H121.521ZM123.781 81.7583V82.0814H123.135V82.4046H122.813V82.7278H122.49V83.0509H122.167V83.6972H121.844V85.6362H122.167V86.2825H122.49V86.6056H122.813V86.9288H123.135V87.2519H123.781V87.5751H125.719V87.2519H126.365V86.9288H126.688V86.6056H127.01V86.2825H127.333V85.6362H127.656V83.6972H127.333V83.0509H127.01V82.7278H126.688V82.4046H126.365V82.0814H125.719V81.7583H123.781ZM133.469 88.5446V88.8677H133.792V88.5446H133.469Z" fill="#D9D9D9"/>
<path d="M113.771 180.644H115.708V181.613H116.031V183.552H116.354V183.229H116.677V182.583H117V182.26H118.938V184.198H118.615V184.845H118.292V185.168H117.969V185.814H117.646V186.461H117.323V186.784H117V188.399H118.292V188.723H119.26V189.046H119.906V188.723H120.552V188.399H120.875V188.076H121.198V187.753H121.521V183.875H123.458V185.814H123.781V185.491H124.427V185.168H124.75V184.845H126.688V186.784H126.365V187.107H126.042V187.43H125.396V188.076H126.688V188.399H127.333V190.338H125.073V190.015H123.781V189.692H122.813V190.015H122.49V190.338H122.167V190.662H121.521V191.308H121.844V192.277H122.167V194.863H123.781V194.539H124.427V194.216H124.75V193.893H125.396V193.57H125.719V193.247H126.365V192.924H128.302V194.863H127.979V195.186H127.333V195.509H127.01V195.832H127.333V196.155H128.625V196.478H129.271V198.417H127.01V198.094H126.042V198.74H126.365V200.679H124.427V200.356H124.104V199.71H123.781V199.387H123.458V198.74H123.135V198.417H122.813V197.771H122.49V197.125H121.844V196.801H120.875V197.125H120.552V197.448H120.229V197.771H119.583V198.094H119.26V198.417H118.615V199.064H119.26V199.387H119.583V199.71H119.906V200.033H120.229V200.356H120.552V200.679H121.198V201.003H121.521V201.326H121.844V201.649H122.167V201.972H122.49V203.911H120.552V203.588H120.229V203.265H119.906V202.941H119.583V203.588H119.906V206.173H117.969V205.204H117.646V203.911H117.323V204.234H117V204.557H116.677V204.88H114.74V202.941H115.063V202.618H115.385V202.295H115.708V201.972H116.031V201.649H116.354V201.326H116.677V201.003H117V200.679H116.677V199.387H116.354V198.74H115.708V198.417H114.74V198.094H114.417V197.771H114.094V198.094H113.771V198.417H113.448V198.74H113.125V199.064H112.479V199.387H112.156V199.71H111.833V200.356H112.156V201.326H112.479V203.588H110.542V202.941H110.219V201.972H109.896V201.649H109.573V201.972H109.25V202.295H108.927V202.618H106.99V200.679H107.313V200.356H107.635V200.033H107.958V199.71H108.281V199.064H106.99V198.74H106.344V196.801H108.604V197.125H109.896V197.448H110.865V197.125H111.51V196.801H111.833V196.478H112.156V196.155H112.479V195.832H112.156V194.863H111.833V193.247H111.51V192.924H110.865V192.6H109.896V192.924H109.25V193.247H108.927V193.57H108.281V193.893H107.635V194.216H105.698V192.277H106.021V191.954H106.667V191.631H107.313V191.308H106.99V190.985H106.021V190.662H105.375V190.338H104.729V188.399H106.99V188.723H107.635V189.046H108.281V188.399H107.958V186.461H109.896V186.784H110.219V187.43H110.542V188.076H110.865V188.399H111.188V189.046H111.51V189.692H111.833V190.662H112.479V190.985H112.802V190.338H113.125V190.015H113.448V189.692H113.771V189.369H114.417V189.046H114.74V187.107H114.094V186.784H113.771V186.461H113.125V186.137H112.479V185.814H112.156V185.491H111.51V185.168H111.188V183.229H113.125V183.552H113.771V183.875H114.094V183.229H113.771V180.644ZM116.031 190.338V190.662H115.385V190.985H114.74V191.308H114.417V191.954H114.094V192.6H113.771V194.539H114.094V195.186H114.417V195.832H114.74V196.155H115.385V196.478H116.031V196.801H117.969V196.478H118.615V196.155H119.26V195.832H119.583V195.186H119.906V194.539H120.229V192.6H119.906V191.954H119.583V191.308H119.26V190.985H118.615V190.662H117.969V190.338H116.031Z" fill="#D9D9D9"/>
<path d="M55.6458 45.5649H57.5833V46.5343H57.9062V48.1501H58.552V47.827H58.8749V47.1807H59.1978V46.8575H61.1353V48.7964H60.8124V49.4427H60.4895V49.7659H60.1666V50.4122H59.8437V50.7354H59.5208V51.3817H59.1978V51.7048H58.8749V53.6438H60.1666V53.9669H61.1353V54.2901H61.7812V53.9669H62.1041V53.6438H62.427V53.3206H63.0728V52.9975H63.3958V52.6743H63.7187V51.3817H63.3958V48.7964H65.3333V49.7659H65.6562V50.7354H65.9791V50.4122H66.6249V50.0891H66.9478V49.7659H68.8853V51.7048H68.5624V52.028H68.2395V52.3511H67.5937V52.6743H67.2708V52.9975H69.8541V54.9364H64.6874V55.2595H64.0416V55.5827H63.7187V55.9058H63.3958V56.5522H63.7187V57.1985H64.0416V58.8142H64.6874V59.1374H65.6562V59.4606H65.9791V59.1374H66.6249V58.8142H67.2708V58.4911H67.9166V58.1679H68.5624V57.8448H70.4999V59.7837H70.177V60.1069H69.5312V60.43H69.2083V60.7532H69.8541V61.0763H70.8228V61.3995H71.4687V63.3384H69.2083V63.0153H68.2395V63.6616H68.5624V65.6005H66.6249V65.2773H66.302V64.631H65.9791V63.9847H65.6562V63.6616H65.3333V63.0153H65.0103V62.369H64.6874V61.3995H64.0416V61.0763H63.0728V61.3995H62.7499V61.7226H62.427V62.0458H62.1041V62.369H61.7812V62.6921H61.1353V63.0153H61.4583V64.9542H61.7812V65.2773H62.427V65.6005H63.0728V65.9237H63.7187V66.2468H64.3645V66.57H64.6874V68.5089H62.7499V68.1857H62.1041V71.0941H60.1666V69.8015H59.8437V68.8321H59.5208V69.1552H59.1978V69.4784H58.8749V69.8015H56.9374V67.8626H57.2603V67.5394H57.5833V67.2163H57.9062V66.8931H58.2291V66.2468H58.552V65.9237H58.8749V65.6005H59.1978V65.2773H59.5208V64.631H59.1978V63.3384H57.5833V63.0153H56.6145V62.6921H55.9687V63.0153H55.6458V63.3384H55.3228V63.6616H54.677V68.1857H52.7395V65.9237H52.0937V66.2468H51.7708V66.57H51.4478V66.8931H51.1249V67.2163H49.1874V65.2773H49.5103V64.9542H49.8333V64.631H50.1562V64.3079H50.4791V63.9847H48.5416V62.0458H53.0624V61.7226H53.7083V61.3995H54.0312V61.0763H54.3541V60.43H54.0312V59.7837H53.7083V57.8448H53.3853V57.5216H52.4166V57.1985H52.0937V57.5216H51.7708V57.8448H51.1249V58.1679H50.4791V58.4911H50.1562V58.8142H49.5103V59.1374H47.5728V57.1985H47.8958V56.8753H48.5416V56.5522H48.8645V56.229H48.5416V55.9058H47.5728V55.5827H46.927V53.6438H49.1874V53.9669H50.1562V53.3206H49.8333V51.3817H51.7708V51.7048H52.0937V52.3511H52.4166V52.9975H52.7395V53.3206H53.0624V53.9669H53.3853V54.6132H53.7083V55.2595H54.0312V55.5827H54.9999V55.2595H55.3228V54.9364H55.6458V54.6132H55.9687V54.2901H56.6145V53.9669H56.9374V53.3206H56.6145V52.028H55.6458V51.7048H55.3228V51.3817H54.9999V51.0585H54.3541V50.7354H54.0312V50.4122H53.7083V50.0891H53.3853V48.1501H55.3228V48.4733H55.6458V48.7964H55.9687V48.1501H55.6458V45.5649ZM50.1562 53.9669V54.2901H50.4791V53.9669H50.1562ZM57.9062 55.5827V55.9058H56.9374V56.229H56.6145V56.5522H56.2916V56.8753H55.9687V57.5216H55.6458V59.4606H55.9687V60.1069H56.2916V60.43H56.6145V60.7532H56.9374V61.0763H57.9062V61.3995H59.8437V61.0763H60.8124V60.7532H61.1353V60.43H61.4583V60.1069H61.7812V59.4606H62.1041V57.5216H61.7812V56.8753H61.4583V56.5522H61.1353V56.229H60.8124V55.9058H59.8437V55.5827H57.9062ZM67.9166 62.6921V63.0153H68.2395V62.6921H67.9166ZM61.7812 67.8626V68.1857H62.1041V67.8626H61.7812Z" fill="#D9D9D9"/>
<path d="M43.698 176.766H56.6147V179.997H46.9272V186.461H50.1563V205.85H53.3855V225.239H50.1563V209.081H43.698V205.85H46.9272V189.692H43.698V176.766Z" fill="#D9D9D9"/>
<path d="M111.51 157.377H114.74V160.608H130.885V163.84H114.74V167.071H101.823V163.84H111.51V157.377Z" fill="#D9D9D9"/>
<path d="M29.1667 77.5573H30.4584V78.5267H30.7813V78.8499H31.1042V78.5267H32.3959V79.8193H32.073V80.4656H31.7501V80.7888H31.4272V81.4351H31.1042V81.7583H31.4272V82.7277H32.073V83.0509H33.0417V82.7277H33.3647V82.4046H34.0105V82.0814H34.3334V81.7583H34.0105V79.4962H35.3022V80.7888H35.948V80.4656H36.2709V80.1425H37.5626V81.4351H37.2397V81.7583H36.9167V82.0814H36.5938V82.4046H37.8855V83.6972H35.6251V83.374H34.9792V83.6972H34.3334V84.0204H34.0105V84.6667H34.3334V85.9593H34.6563V86.2824H36.2709V85.9593H36.5938V85.6361H37.2397V85.313H38.5313V86.6056H38.2084V86.9288H37.5626V87.2519H38.5313V87.5751H39.1772V88.8677H37.5626V88.5445H37.2397V89.1908H37.5626V90.4835H36.2709V90.1603H35.948V89.514H35.6251V88.8677H35.3022V88.2214H34.9792V87.8982H34.6563V87.5751H33.3647V87.8982H32.7188V88.2214H32.3959V88.8677H32.7188V89.8371H33.0417V90.1603H33.6876V90.4835H34.3334V90.8066H34.9792V92.0992H33.3647V93.715H32.073V92.7455H31.4272V93.0687H31.1042V93.3919H29.8126V92.0992H30.1355V91.7761H30.4584V91.1298H30.7813V90.8066H31.1042V90.4835H31.4272V89.8371H31.1042V88.5445H30.1355V88.2214H29.1667V88.5445H28.8438V88.8677H28.5209V89.1908H28.198V90.4835H28.5209V92.0992H27.2292V91.4529H26.9063V90.4835H26.5834V90.8066H26.2605V91.1298H25.9376V91.4529H24.6459V90.1603H24.9688V89.8371H25.2917V89.514H25.6147V89.1908H24.6459V87.8982H27.5522V87.5751H27.8751V87.2519H28.198V86.6056H27.8751V85.313H27.5522V84.9898H26.9063V85.313H26.5834V85.6361H25.9376V85.9593H25.2917V86.2824H23.6772V84.9898H24.323V84.6667H24.9688V84.3435H24.0001V84.0204H23.3542V82.7277H24.9688V83.0509H25.6147V82.7277H25.2917V81.112H26.5834V81.7583H26.9063V82.4046H27.2292V83.0509H27.5522V83.6972H28.8438V83.374H29.4897V83.0509H30.1355V82.7277H29.8126V81.4351H29.1667V81.112H28.5209V80.7888H27.8751V80.4656H27.5522V79.173H28.8438V79.4962H29.1667V77.5573ZM30.1355 84.0204V84.3435H29.8126V84.6667H29.4897V84.9898H29.1667V86.2824H29.4897V86.6056H29.8126V86.9288H30.1355V87.2519H32.073V86.9288H32.3959V86.6056H32.7188V86.2824H33.0417V84.9898H32.7188V84.6667H32.3959V84.3435H32.073V84.0204H30.1355Z" fill="#D9D9D9"/>
<path d="M24.3228 196.155H27.552V212.313H30.7812V215.545H17.8645V212.313H24.3228V196.155Z" fill="#D9D9D9"/>
<path d="M130.885 157.377H150.26V160.608H143.802V170.303H140.573V160.608H130.885V157.377Z" fill="#D9D9D9"/>
<path d="M105.052 125.061H108.281V141.219H105.052V137.987H98.5938V134.756H105.052V125.061Z" fill="#D9D9D9"/>
<path d="M66.3022 95.9771H69.5313V102.44H79.2188V105.672H63.073V102.44H66.3022V95.9771Z" fill="#D9D9D9"/>
<path d="M98.5938 92.7455H101.823V108.903H98.5938V99.2086H92.1355V95.9771H98.5938V92.7455Z" fill="#D9D9D9"/>
<path d="M150.26 205.85H153.49V225.239H150.26V205.85Z" fill="#D9D9D9"/>
<path d="M147.031 186.461H150.26V205.85H147.031V186.461Z" fill="#D9D9D9"/>
<path d="M50.1562 144.45H69.5312V147.682H50.1562V144.45Z" fill="#D9D9D9"/>
<path d="M40.4688 137.987H43.6979V147.682H50.1562V150.914H40.4688V137.987Z" fill="#D9D9D9"/>
<path d="M21.0938 179.997H24.3229V196.155H21.0938V179.997Z" fill="#D9D9D9"/>
<path d="M143.802 170.303H147.031V186.461H143.802V170.303Z" fill="#D9D9D9"/>
<path d="M69.5312 170.303H85.6771V173.534H69.5312V170.303Z" fill="#D9D9D9"/>
<path d="M85.677 167.071H101.823V170.303H85.677V167.071Z" fill="#D9D9D9"/>
<path d="M108.281 141.219H111.51V157.377H108.281V141.219Z" fill="#D9D9D9"/>
<path d="M82.448 137.987H98.5938V141.219H82.448V137.987Z" fill="#D9D9D9"/>
<path d="M37.2395 121.83H40.4687V137.987H37.2395V121.83Z" fill="#D9D9D9"/>
<path d="M101.823 108.903H105.052V125.061H101.823V108.903Z" fill="#D9D9D9"/>
<path d="M34.0105 105.672H37.2397V121.83H34.0105V105.672Z" fill="#D9D9D9"/>
<path d="M146.385 79.173H162.531V82.4046H146.385V79.173Z" fill="#D9D9D9"/>
<path d="M120.229 215.868H123.458V228.794H120.229V215.868Z" fill="#D9D9D9"/>
<path d="M4.948 215.545H17.8647V218.776H4.948V215.545Z" fill="#D9D9D9"/>
<path d="M30.7812 209.081H43.6979V212.313H30.7812V209.081Z" fill="#D9D9D9"/>
<path d="M56.6145 173.534H69.5312V176.766H56.6145V173.534Z" fill="#D9D9D9"/>
<path d="M150.26 154.145H163.177V157.377H150.26V154.145Z" fill="#D9D9D9"/>
<path d="M163.177 150.914H176.094V154.145H163.177V150.914Z" fill="#D9D9D9"/>
<path d="M69.5312 141.219H82.4479V144.45H69.5312V141.219Z" fill="#D9D9D9"/>
<path d="M79.2188 99.2086H92.1354V102.44H79.2188V99.2086Z" fill="#D9D9D9"/>
<path d="M63.073 83.0509H66.3022V95.9771H63.073V83.0509Z" fill="#D9D9D9"/>
<path d="M162.531 75.9415H175.448V79.173H162.531V75.9415Z" fill="#D9D9D9"/>
<path d="M153.49 225.239H156.719V234.934H153.49V225.239Z" fill="#D9D9D9"/>
<path d="M53.3855 225.239H56.6147V234.934H53.3855V225.239Z" fill="#D9D9D9"/>
<path d="M-4.7395 218.776H4.948V222.008H-4.7395V218.776Z" fill="#D9D9D9"/>
<path d="M53.3855 105.672H63.073V108.903H53.3855V105.672Z" fill="#D9D9D9"/>
<path d="M30.7812 95.9771H34.0104V105.672H30.7812V95.9771Z" fill="#D9D9D9"/>
<path d="M95.3645 83.0509H98.5937V92.7456H95.3645V83.0509Z" fill="#D9D9D9"/>
<path d="M59.8438 73.3562H63.0729V83.0509H59.8438V73.3562Z" fill="#D9D9D9"/>
<path d="M44.9895 103.41H45.6353V104.056H46.2812V103.733H46.927V104.379H46.6041V104.702H46.2812V105.672H47.2499V105.995H47.5728V105.672H47.8958V104.379H48.5416V105.025H48.8645V104.702H49.5103V105.349H49.1874V105.672H49.8333V106.318H48.5416V106.641H48.2187V107.934H48.5416V107.611H49.1874V107.288H50.1562V107.934H49.5103V108.58H50.4791V109.226H49.1874V110.196H48.5416V109.226H48.2187V108.903H47.8958V108.58H47.5728V108.903H47.2499V109.226H46.6041V109.55H46.927V109.873H47.2499V110.196H48.2187V110.842H47.2499V111.812H46.6041V111.165H45.9583V111.489H45.3124V110.842H45.6353V110.519H45.9583V110.196H46.2812V109.873H45.9583V109.226H45.3124V109.55H44.6666V110.842H44.0208V110.196H43.6978V110.519H42.7291V109.55H43.052V109.226H42.7291V108.58H44.6666V107.611H44.3437V107.288H43.6978V107.611H43.052V107.934H42.4062V107.288H42.7291V106.641H42.0833V105.995H43.052V105.349H43.6978V105.995H44.0208V106.641H44.9895V106.318H45.3124V105.995H45.6353V105.672H45.3124V105.349H44.9895V105.025H44.3437V104.702H44.0208V104.056H44.6666V104.379H44.9895V103.41ZM45.9583 106.641V106.964H45.6353V107.934H45.9583V108.257H46.927V107.934H47.2499V106.964H46.927V106.641H45.9583Z" fill="#D9D9D9"/>
<path d="M123.458 228.794H126.687V235.257H123.458V228.794Z" fill="#D9D9D9"/>
<path d="M117 209.405H120.229V215.868H117V209.405Z" fill="#D9D9D9"/>
<path d="M139.927 82.4046H146.385V85.6362H139.927V82.4046Z" fill="#D9D9D9"/>
<path d="M21.0938 162.87H22.0626V163.193H22.3855V163.517H22.7084V164.486H22.3855V164.809H22.0626V165.132H21.0938V164.809H20.7709V164.486H20.448V163.517H20.7709V163.193H21.0938V162.87Z" fill="#D9D9D9"/>
<path d="M94.3958 63.3384H95.3646V63.6616H95.6875V63.9848H96.0104V64.9542H95.6875V65.2774H95.3646V65.6005H94.3958V65.2774H94.0729V64.9542H93.75V63.9848H94.0729V63.6616H94.3958V63.3384Z" fill="#D9D9D9"/>
<path d="M116.677 192.601H117.323V192.924H117.646V193.247H117.969V193.893H117.646V194.216H117.323V194.539H116.677V194.216H116.354V193.893H116.031V193.247H116.354V192.924H116.677V192.601Z" fill="#D9D9D9"/>
<path d="M124.427 83.6972H125.073V84.0204H125.396V84.3435H125.719V84.9898H125.396V85.313H125.073V85.6361H124.427V85.313H124.104V84.9898H123.781V84.3435H124.104V84.0204H124.427V83.6972Z" fill="#D9D9D9"/>
<path d="M58.5521 57.5216H59.1979V57.8448H59.5208V58.1679H59.8437V58.8142H59.5208V59.1374H59.1979V59.4605H58.5521V59.1374H58.2292V58.8142H57.9062V58.1679H58.2292V57.8448H58.5521V57.5216Z" fill="#D9D9D9"/>
<path d="M30.7812 84.9898H31.427V85.313H31.7499V85.9593H31.427V86.2824H30.7812V85.9593H30.4583V85.313H30.7812V84.9898Z" fill="#D9D9D9"/>
<path d="M46.2812 106.964H46.6041V107.288H46.927V107.611H46.6041V107.934H46.2812V107.611H45.9583V107.288H46.2812V106.964Z" fill="#D9D9D9"/>
</g>
<defs>
<clipPath id="clip0_36_393">
<rect width="186" height="254" fill="white" transform="translate(-7)"/>
</clipPath>
</defs>
</svg>
