<svg width="67" height="67" viewBox="0 0 67 67" fill="none" xmlns="http://www.w3.org/2000/svg">
<path d="M47.1094 34.5469H50.25V40.8281H53.3906V47.1094H56.5312V53.3906H59.6719V59.6719H56.5312V62.8125H53.3906V65.9531H15.7031V62.8125H12.5625V59.6719H9.42188V53.3906H12.5625V47.1094H15.7031V40.8281H18.8437V43.9687H34.5469V40.8281H47.1094V34.5469Z" fill="#5863FF"/>
<path d="M53.3906 47.1094H56.5312V53.3906H59.6719V59.6719H56.5312V62.8125H53.3906V65.9531H15.7031V62.8125H12.5625V59.6719H50.25V56.5312H53.3906V47.1094Z" fill="#545FF4"/>
<path d="M50.25 50.25H53.3906V56.5312H50.25V59.6719H9.42188V53.3906H12.5625V56.5312H47.1094V53.3906H50.25V50.25Z" fill="#5661F9"/>
<path d="M47.1094 34.5469H50.25V40.8281H53.3906V47.1094H50.25V43.9687H37.6875V47.1094H15.7031V40.8281H18.8437V43.9687H34.5469V40.8281H47.1094V34.5469Z" fill="#5E69FF"/>
<path d="M37.6875 43.9688H50.25V47.1094H40.8281V50.25H15.7031V53.3906H12.5625V47.1094H37.6875V43.9688Z" fill="#5B66FF"/>
<path d="M21.9844 6.28125H47.1094V15.7031H43.9688V28.2656H40.8281V12.5625H43.9688V9.42188H25.125V12.5625H28.2656V28.2656H25.125V15.7031H21.9844V6.28125Z" fill="#D9D9D9"/>
<path d="M15.7031 62.8125H53.3906V65.9531H15.7031V62.8125Z" fill="#D9D9D9"/>
<path d="M56.5313 53.3906H59.6719V59.6719H56.5313V53.3906Z" fill="#D9D9D9"/>
<path d="M9.42188 53.3906H12.5625V59.6719H9.42188V53.3906Z" fill="#D9D9D9"/>
<path d="M53.3906 47.1094H56.5313V53.3906H53.3906V47.1094Z" fill="#D9D9D9"/>
<path d="M12.5625 47.1094H15.7031V53.3906H12.5625V47.1094Z" fill="#D9D9D9"/>
<path d="M50.25 40.8281H53.3906V47.1094H50.25V40.8281Z" fill="#D9D9D9"/>
<path d="M15.7031 40.8281H18.8438V47.1094H15.7031V40.8281Z" fill="#D9D9D9"/>
<path d="M47.1094 34.5469H50.25V40.8281H47.1094V34.5469Z" fill="#D9D9D9"/>
<path d="M18.8438 34.5469H21.9844V40.8281H18.8438V34.5469Z" fill="#D9D9D9"/>
<path d="M43.9688 28.2656H47.1094V34.5469H43.9688V28.2656Z" fill="#D9D9D9"/>
<path d="M21.9844 28.2656H25.125V34.5469H21.9844V28.2656Z" fill="#D9D9D9"/>
<path d="M53.3906 59.6719H56.5313V62.8125H53.3906V59.6719Z" fill="#D9D9D9"/>
<path d="M12.5625 59.6719H15.7031V62.8125H12.5625V59.6719Z" fill="#D9D9D9"/>
<path d="M37.6875 35.5938H38.7344V36.6406H37.6875V35.5938Z" fill="#5863FF"/>
<path d="M38.7344 34.5469H39.7813V35.5938H38.7344V34.5469Z" fill="#5863FF"/>
<path d="M36.6406 34.5469H37.6875V35.5938H36.6406V34.5469Z" fill="#5863FF"/>
<path d="M28.2656 34.5469H29.3125V35.5938H28.2656V34.5469Z" fill="#5863FF"/>
<path d="M37.6875 33.5H38.7344V34.5469H37.6875V33.5Z" fill="#5863FF"/>
<path d="M29.3125 33.5H30.3594V34.5469H29.3125V33.5Z" fill="#5863FF"/>
<path d="M27.2188 33.5H28.2656V34.5469H27.2188V33.5Z" fill="#5863FF"/>
<path d="M28.2656 32.4531H29.3125V33.5H28.2656V32.4531Z" fill="#5863FF"/>
<path d="M35.5938 26.1719H36.6406V27.2188H35.5938V26.1719Z" fill="#5863FF"/>
<path d="M36.6406 25.125H37.6875V26.1719H36.6406V25.125Z" fill="#5863FF"/>
<path d="M34.5469 25.125H35.5938V26.1719H34.5469V25.125Z" fill="#5863FF"/>
<path d="M35.5938 24.0781H36.6406V25.125H35.5938V24.0781Z" fill="#5863FF"/>
<path d="M32.4531 16.75H33.5V17.7969H32.4531V16.75Z" fill="#5863FF"/>
<path d="M33.5 15.7031H34.5469V16.75H33.5V15.7031Z" fill="#5863FF"/>
<path d="M31.4063 15.7031H32.4531V16.75H31.4063V15.7031Z" fill="#5863FF"/>
<path d="M32.4531 14.6563H33.5V15.7031H32.4531V14.6563Z" fill="#5863FF"/>
<path d="M51.2969 10.4688H52.3438V11.5156H51.2969V10.4688Z" fill="#5863FF"/>
<path d="M56.5313 9.42188H57.5781V10.4688H56.5313V9.42188Z" fill="#5863FF"/>
<path d="M52.3438 9.42188H53.3906V10.4688H52.3438V9.42188Z" fill="#5863FF"/>
<path d="M50.25 9.42188H51.2969V10.4688H50.25V9.42188Z" fill="#5863FF"/>
<path d="M57.5781 8.375H58.625V9.42188H57.5781V8.375Z" fill="#5863FF"/>
<path d="M55.4844 8.375H56.5313V9.42188H55.4844V8.375Z" fill="#5863FF"/>
<path d="M51.2969 8.375H52.3438V9.42188H51.2969V8.375Z" fill="#5863FF"/>
<path d="M56.5313 7.32813H57.5781V8.375H56.5313V7.32813Z" fill="#5863FF"/>
<path d="M53.3906 4.1875H54.4375V5.23438H53.3906V4.1875Z" fill="#5863FF"/>
<path d="M33.5 4.1875H34.5469V5.23438H33.5V4.1875Z" fill="#5863FF"/>
<path d="M54.4375 3.14063H55.4844V4.1875H54.4375V3.14063Z" fill="#5863FF"/>
<path d="M52.3438 3.14063H53.3906V4.1875H52.3438V3.14063Z" fill="#5863FF"/>
<path d="M34.5469 3.14063H35.5938V4.1875H34.5469V3.14063Z" fill="#5863FF"/>
<path d="M32.4531 3.14063H33.5V4.1875H32.4531V3.14063Z" fill="#5863FF"/>
<path d="M53.3906 2.09375H54.4375V3.14063H53.3906V2.09375Z" fill="#5863FF"/>
<path d="M49.2031 2.09375H50.25V3.14063H49.2031V2.09375Z" fill="#5863FF"/>
<path d="M40.8281 2.09375H41.875V3.14063H40.8281V2.09375Z" fill="#5863FF"/>
<path d="M33.5 2.09375H34.5469V3.14063H33.5V2.09375Z" fill="#5863FF"/>
<path d="M50.25 1.04688H51.2969V2.09375H50.25V1.04688Z" fill="#5863FF"/>
<path d="M48.1563 1.04688H49.2031V2.09375H48.1563V1.04688Z" fill="#5863FF"/>
<path d="M41.875 1.04688H42.9219V2.09375H41.875V1.04688Z" fill="#5863FF"/>
<path d="M39.7813 1.04688H40.8281V2.09375H39.7813V1.04688Z" fill="#5863FF"/>
<path d="M49.2031 0H50.25V1.04688H49.2031V0Z" fill="#5863FF"/>
<path d="M40.8281 0H41.875V1.04688H40.8281V0Z" fill="#5863FF"/>
</svg>
