<svg width="32" height="34" viewBox="0 0 32 34" fill="none" xmlns="http://www.w3.org/2000/svg">
<path d="M20.4762 11.5238C20.8219 11.5238 21.1676 11.5238 21.5238 11.5238C21.5238 11.8695 21.5238 12.2152 21.5238 12.5714C21.8695 12.5714 22.2152 12.5714 22.5714 12.5714C22.5714 12.9171 22.5714 13.2629 22.5714 13.619C22.2257 13.619 21.88 13.619 21.5238 13.619C21.5238 14.6562 21.5238 15.6933 21.5238 16.7619C21.8695 16.7619 22.2152 16.7619 22.5714 16.7619C22.5714 17.1076 22.5714 17.4533 22.5714 17.8095C22.2257 17.8095 21.88 17.8095 21.5238 17.8095C21.5238 18.501 21.5238 19.1924 21.5238 19.9048C21.1781 19.9048 20.8324 19.9048 20.4762 19.9048C20.4762 19.2133 20.4762 18.5219 20.4762 17.8095C20.1305 17.8095 19.7848 17.8095 19.4286 17.8095C19.4286 17.4638 19.4286 17.1181 19.4286 16.7619C19.7743 16.7619 20.12 16.7619 20.4762 16.7619C20.4762 15.7248 20.4762 14.6876 20.4762 13.619C20.1305 13.619 19.7848 13.619 19.4286 13.619C19.4286 13.2733 19.4286 12.9276 19.4286 12.5714C19.7743 12.5714 20.12 12.5714 20.4762 12.5714C20.4762 12.2257 20.4762 11.88 20.4762 11.5238Z" fill="#D9D9D9"/>
<path d="M22.5714 9.42857C22.9171 9.42857 23.2629 9.42857 23.619 9.42857C23.619 9.77429 23.619 10.12 23.619 10.4762C24.6562 10.4762 25.6933 10.4762 26.7619 10.4762C26.7619 10.1305 26.7619 9.78476 26.7619 9.42857C27.1076 9.42857 27.4533 9.42857 27.8095 9.42857C27.8095 9.77429 27.8095 10.12 27.8095 10.4762C28.501 10.4762 29.1924 10.4762 29.9048 10.4762C29.9048 10.8219 29.9048 11.1676 29.9048 11.5238C29.2133 11.5238 28.5219 11.5238 27.8095 11.5238C27.8095 11.8695 27.8095 12.2152 27.8095 12.5714C27.4638 12.5714 27.1181 12.5714 26.7619 12.5714C26.7619 12.2257 26.7619 11.88 26.7619 11.5238C25.7248 11.5238 24.6876 11.5238 23.619 11.5238C23.619 11.8695 23.619 12.2152 23.619 12.5714C23.2733 12.5714 22.9276 12.5714 22.5714 12.5714C22.5714 12.2257 22.5714 11.88 22.5714 11.5238C22.2257 11.5238 21.88 11.5238 21.5238 11.5238C21.5238 11.1781 21.5238 10.8324 21.5238 10.4762C21.8695 10.4762 22.2152 10.4762 22.5714 10.4762C22.5714 10.1305 22.5714 9.78476 22.5714 9.42857Z" fill="#D9D9D9"/>
<path d="M14.1905 9.42857C14.5362 9.42857 14.8819 9.42857 15.2381 9.42857C15.2381 9.77429 15.2381 10.12 15.2381 10.4762C16.2752 10.4762 17.3124 10.4762 18.381 10.4762C18.381 10.1305 18.381 9.78476 18.381 9.42857C18.7267 9.42857 19.0724 9.42857 19.4286 9.42857C19.4286 9.77429 19.4286 10.12 19.4286 10.4762C19.7743 10.4762 20.12 10.4762 20.4762 10.4762C20.4762 10.8219 20.4762 11.1676 20.4762 11.5238C20.1305 11.5238 19.7848 11.5238 19.4286 11.5238C19.4286 11.8695 19.4286 12.2152 19.4286 12.5714C19.0829 12.5714 18.7371 12.5714 18.381 12.5714C18.381 12.2257 18.381 11.88 18.381 11.5238C17.3438 11.5238 16.3067 11.5238 15.2381 11.5238C15.2381 11.8695 15.2381 12.2152 15.2381 12.5714C14.8924 12.5714 14.5467 12.5714 14.1905 12.5714C14.1905 12.2257 14.1905 11.88 14.1905 11.5238C13.499 11.5238 12.8076 11.5238 12.0952 11.5238C12.0952 11.1781 12.0952 10.8324 12.0952 10.4762C12.7867 10.4762 13.4781 10.4762 14.1905 10.4762C14.1905 10.1305 14.1905 9.78476 14.1905 9.42857Z" fill="#D9D9D9"/>
<path d="M20.4762 2.09524C20.8219 2.09524 21.1676 2.09524 21.5238 2.09524C21.5238 2.78667 21.5238 3.4781 21.5238 4.19048C21.8695 4.19048 22.2152 4.19048 22.5714 4.19048C22.5714 4.53619 22.5714 4.8819 22.5714 5.2381C22.2257 5.2381 21.88 5.2381 21.5238 5.2381C21.5238 6.27524 21.5238 7.31238 21.5238 8.38095C21.8695 8.38095 22.2152 8.38095 22.5714 8.38095C22.5714 8.72667 22.5714 9.07238 22.5714 9.42857C22.2257 9.42857 21.88 9.42857 21.5238 9.42857C21.5238 9.77429 21.5238 10.12 21.5238 10.4762C21.1781 10.4762 20.8324 10.4762 20.4762 10.4762C20.4762 10.1305 20.4762 9.78476 20.4762 9.42857C20.1305 9.42857 19.7848 9.42857 19.4286 9.42857C19.4286 9.08286 19.4286 8.73714 19.4286 8.38095C19.7743 8.38095 20.12 8.38095 20.4762 8.38095C20.4762 7.34381 20.4762 6.30667 20.4762 5.2381C20.1305 5.2381 19.7848 5.2381 19.4286 5.2381C19.4286 4.89238 19.4286 4.54667 19.4286 4.19048C19.7743 4.19048 20.12 4.19048 20.4762 4.19048C20.4762 3.49905 20.4762 2.80762 20.4762 2.09524Z" fill="#D9D9D9"/>
<path d="M26.7619 17.8095C27.4533 17.8095 28.1448 17.8095 28.8571 17.8095C28.8571 18.1552 28.8571 18.501 28.8571 18.8571C28.5114 18.8571 28.1657 18.8571 27.8095 18.8571C27.8095 19.2029 27.8095 19.5486 27.8095 19.9048C27.4638 19.9048 27.1181 19.9048 26.7619 19.9048C26.7619 19.2133 26.7619 18.5219 26.7619 17.8095Z" fill="#D9D9D9"/>
<path d="M13.1429 17.8095C13.8343 17.8095 14.5257 17.8095 15.2381 17.8095C15.2381 18.501 15.2381 19.1924 15.2381 19.9048C14.8924 19.9048 14.5467 19.9048 14.1905 19.9048C14.1905 19.559 14.1905 19.2133 14.1905 18.8571C13.8448 18.8571 13.499 18.8571 13.1429 18.8571C13.1429 18.5114 13.1429 18.1657 13.1429 17.8095Z" fill="#D9D9D9"/>
<path d="M26.7619 2.09524C27.1076 2.09524 27.4533 2.09524 27.8095 2.09524C27.8095 2.44095 27.8095 2.78667 27.8095 3.14286C28.1552 3.14286 28.501 3.14286 28.8571 3.14286C28.8571 3.48857 28.8571 3.83429 28.8571 4.19048C28.1657 4.19048 27.4743 4.19048 26.7619 4.19048C26.7619 3.49905 26.7619 2.80762 26.7619 2.09524Z" fill="#D9D9D9"/>
<path d="M14.1905 2.09524C14.5362 2.09524 14.8819 2.09524 15.2381 2.09524C15.2381 2.78667 15.2381 3.4781 15.2381 4.19048C14.5467 4.19048 13.8552 4.19048 13.1429 4.19048C13.1429 3.84476 13.1429 3.49905 13.1429 3.14286C13.4886 3.14286 13.8343 3.14286 14.1905 3.14286C14.1905 2.79714 14.1905 2.45143 14.1905 2.09524Z" fill="#D9D9D9"/>
<path d="M22.5714 20.9524C22.9171 20.9524 23.2629 20.9524 23.619 20.9524C23.619 21.2981 23.619 21.6438 23.619 22C23.2733 22 22.9276 22 22.5714 22C22.5714 21.6543 22.5714 21.3086 22.5714 20.9524Z" fill="#D9D9D9"/>
<path d="M18.381 20.9524C18.7267 20.9524 19.0724 20.9524 19.4286 20.9524C19.4286 21.2981 19.4286 21.6438 19.4286 22C19.0829 22 18.7371 22 18.381 22C18.381 21.6543 18.381 21.3086 18.381 20.9524Z" fill="#D9D9D9"/>
<path d="M21.5238 19.9048C21.8695 19.9048 22.2152 19.9048 22.5714 19.9048C22.5714 20.2505 22.5714 20.5962 22.5714 20.9524C22.2257 20.9524 21.88 20.9524 21.5238 20.9524C21.5238 20.6067 21.5238 20.261 21.5238 19.9048Z" fill="#D9D9D9"/>
<path d="M19.4286 19.9048C19.7743 19.9048 20.12 19.9048 20.4762 19.9048C20.4762 20.2505 20.4762 20.5962 20.4762 20.9524C20.1305 20.9524 19.7848 20.9524 19.4286 20.9524C19.4286 20.6067 19.4286 20.261 19.4286 19.9048Z" fill="#D9D9D9"/>
<path d="M22.5714 17.8095C22.9171 17.8095 23.2629 17.8095 23.619 17.8095C23.619 18.1552 23.619 18.501 23.619 18.8571C23.2733 18.8571 22.9276 18.8571 22.5714 18.8571C22.5714 18.5114 22.5714 18.1657 22.5714 17.8095Z" fill="#D9D9D9"/>
<path d="M18.381 17.8095C18.7267 17.8095 19.0724 17.8095 19.4286 17.8095C19.4286 18.1552 19.4286 18.501 19.4286 18.8571C19.0829 18.8571 18.7371 18.8571 18.381 18.8571C18.381 18.5114 18.381 18.1657 18.381 17.8095Z" fill="#D9D9D9"/>
<path d="M25.7143 16.7619C26.06 16.7619 26.4057 16.7619 26.7619 16.7619C26.7619 17.1076 26.7619 17.4533 26.7619 17.8095C26.4162 17.8095 26.0705 17.8095 25.7143 17.8095C25.7143 17.4638 25.7143 17.1181 25.7143 16.7619Z" fill="#D9D9D9"/>
<path d="M15.2381 16.7619C15.5838 16.7619 15.9295 16.7619 16.2857 16.7619C16.2857 17.1076 16.2857 17.4533 16.2857 17.8095C15.94 17.8095 15.5943 17.8095 15.2381 17.8095C15.2381 17.4638 15.2381 17.1181 15.2381 16.7619Z" fill="#D9D9D9"/>
<path d="M24.6667 15.7143C25.0124 15.7143 25.3581 15.7143 25.7143 15.7143C25.7143 16.06 25.7143 16.4057 25.7143 16.7619C25.3686 16.7619 25.0229 16.7619 24.6667 16.7619C24.6667 16.4162 24.6667 16.0705 24.6667 15.7143Z" fill="#D9D9D9"/>
<path d="M16.2857 15.7143C16.6314 15.7143 16.9771 15.7143 17.3333 15.7143C17.3333 16.06 17.3333 16.4057 17.3333 16.7619C16.9876 16.7619 16.6419 16.7619 16.2857 16.7619C16.2857 16.4162 16.2857 16.0705 16.2857 15.7143Z" fill="#D9D9D9"/>
<path d="M23.619 14.6667C23.9648 14.6667 24.3105 14.6667 24.6667 14.6667C24.6667 15.0124 24.6667 15.3581 24.6667 15.7143C24.321 15.7143 23.9752 15.7143 23.619 15.7143C23.619 15.3686 23.619 15.0229 23.619 14.6667Z" fill="#D9D9D9"/>
<path d="M17.3333 14.6667C17.679 14.6667 18.0248 14.6667 18.381 14.6667C18.381 15.0124 18.381 15.3581 18.381 15.7143C18.0352 15.7143 17.6895 15.7143 17.3333 15.7143C17.3333 15.3686 17.3333 15.0229 17.3333 14.6667Z" fill="#D9D9D9"/>
<path d="M22.5714 13.619C22.9171 13.619 23.2629 13.619 23.619 13.619C23.619 13.9648 23.619 14.3105 23.619 14.6667C23.2733 14.6667 22.9276 14.6667 22.5714 14.6667C22.5714 14.321 22.5714 13.9752 22.5714 13.619Z" fill="#D9D9D9"/>
<path d="M18.381 13.619C18.7267 13.619 19.0724 13.619 19.4286 13.619C19.4286 13.9648 19.4286 14.3105 19.4286 14.6667C19.0829 14.6667 18.7371 14.6667 18.381 14.6667C18.381 14.321 18.381 13.9752 18.381 13.619Z" fill="#D9D9D9"/>
<path d="M30.9524 12.5714C31.2981 12.5714 31.6438 12.5714 32 12.5714C32 12.9171 32 13.2629 32 13.619C31.6543 13.619 31.3086 13.619 30.9524 13.619C30.9524 13.2733 30.9524 12.9276 30.9524 12.5714Z" fill="#D9D9D9"/>
<path d="M27.8095 12.5714C28.1552 12.5714 28.501 12.5714 28.8571 12.5714C28.8571 12.9171 28.8571 13.2629 28.8571 13.619C28.5114 13.619 28.1657 13.619 27.8095 13.619C27.8095 13.2733 27.8095 12.9276 27.8095 12.5714Z" fill="#D9D9D9"/>
<path d="M13.1429 12.5714C13.4886 12.5714 13.8343 12.5714 14.1905 12.5714C14.1905 12.9171 14.1905 13.2629 14.1905 13.619C13.8448 13.619 13.499 13.619 13.1429 13.619C13.1429 13.2733 13.1429 12.9276 13.1429 12.5714Z" fill="#D9D9D9"/>
<path d="M10 12.5714C10.3457 12.5714 10.6914 12.5714 11.0476 12.5714C11.0476 12.9171 11.0476 13.2629 11.0476 13.619C10.7019 13.619 10.3562 13.619 10 13.619C10 13.2733 10 12.9276 10 12.5714Z" fill="#D9D9D9"/>
<path d="M29.9048 11.5238C30.2505 11.5238 30.5962 11.5238 30.9524 11.5238C30.9524 11.8695 30.9524 12.2152 30.9524 12.5714C30.6067 12.5714 30.261 12.5714 29.9048 12.5714C29.9048 12.2257 29.9048 11.88 29.9048 11.5238Z" fill="#D9D9D9"/>
<path d="M11.0476 11.5238C11.3933 11.5238 11.739 11.5238 12.0952 11.5238C12.0952 11.8695 12.0952 12.2152 12.0952 12.5714C11.7495 12.5714 11.4038 12.5714 11.0476 12.5714C11.0476 12.2257 11.0476 11.88 11.0476 11.5238Z" fill="#D9D9D9"/>
<path d="M29.9048 9.42857C30.2505 9.42857 30.5962 9.42857 30.9524 9.42857C30.9524 9.77429 30.9524 10.12 30.9524 10.4762C30.6067 10.4762 30.261 10.4762 29.9048 10.4762C29.9048 10.1305 29.9048 9.78476 29.9048 9.42857Z" fill="#D9D9D9"/>
<path d="M11.0476 9.42857C11.3933 9.42857 11.739 9.42857 12.0952 9.42857C12.0952 9.77429 12.0952 10.12 12.0952 10.4762C11.7495 10.4762 11.4038 10.4762 11.0476 10.4762C11.0476 10.1305 11.0476 9.78476 11.0476 9.42857Z" fill="#D9D9D9"/>
<path d="M30.9524 8.38095C31.2981 8.38095 31.6438 8.38095 32 8.38095C32 8.72667 32 9.07238 32 9.42857C31.6543 9.42857 31.3086 9.42857 30.9524 9.42857C30.9524 9.08286 30.9524 8.73714 30.9524 8.38095Z" fill="#D9D9D9"/>
<path d="M27.8095 8.38095C28.1552 8.38095 28.501 8.38095 28.8571 8.38095C28.8571 8.72667 28.8571 9.07238 28.8571 9.42857C28.5114 9.42857 28.1657 9.42857 27.8095 9.42857C27.8095 9.08286 27.8095 8.73714 27.8095 8.38095Z" fill="#D9D9D9"/>
<path d="M13.1429 8.38095C13.4886 8.38095 13.8343 8.38095 14.1905 8.38095C14.1905 8.72667 14.1905 9.07238 14.1905 9.42857C13.8448 9.42857 13.499 9.42857 13.1429 9.42857C13.1429 9.08286 13.1429 8.73714 13.1429 8.38095Z" fill="#D9D9D9"/>
<path d="M10 8.38095C10.3457 8.38095 10.6914 8.38095 11.0476 8.38095C11.0476 8.72667 11.0476 9.07238 11.0476 9.42857C10.7019 9.42857 10.3562 9.42857 10 9.42857C10 9.08286 10 8.73714 10 8.38095Z" fill="#D9D9D9"/>
<path d="M22.5714 7.33333C22.9171 7.33333 23.2629 7.33333 23.619 7.33333C23.619 7.67905 23.619 8.02476 23.619 8.38095C23.2733 8.38095 22.9276 8.38095 22.5714 8.38095C22.5714 8.03524 22.5714 7.68952 22.5714 7.33333Z" fill="#D9D9D9"/>
<path d="M18.381 7.33333C18.7267 7.33333 19.0724 7.33333 19.4286 7.33333C19.4286 7.67905 19.4286 8.02476 19.4286 8.38095C19.0829 8.38095 18.7371 8.38095 18.381 8.38095C18.381 8.03524 18.381 7.68952 18.381 7.33333Z" fill="#D9D9D9"/>
<path d="M23.619 6.28571C23.9648 6.28571 24.3105 6.28571 24.6667 6.28571C24.6667 6.63143 24.6667 6.97714 24.6667 7.33333C24.321 7.33333 23.9752 7.33333 23.619 7.33333C23.619 6.98762 23.619 6.6419 23.619 6.28571Z" fill="#D9D9D9"/>
<path d="M17.3333 6.28571C17.679 6.28571 18.0248 6.28571 18.381 6.28571C18.381 6.63143 18.381 6.97714 18.381 7.33333C18.0352 7.33333 17.6895 7.33333 17.3333 7.33333C17.3333 6.98762 17.3333 6.6419 17.3333 6.28571Z" fill="#D9D9D9"/>
<path d="M24.6667 5.2381C25.0124 5.2381 25.3581 5.2381 25.7143 5.2381C25.7143 5.58381 25.7143 5.92952 25.7143 6.28571C25.3686 6.28571 25.0229 6.28571 24.6667 6.28571C24.6667 5.94 24.6667 5.59429 24.6667 5.2381Z" fill="#D9D9D9"/>
<path d="M16.2857 5.2381C16.6314 5.2381 16.9771 5.2381 17.3333 5.2381C17.3333 5.58381 17.3333 5.92952 17.3333 6.28571C16.9876 6.28571 16.6419 6.28571 16.2857 6.28571C16.2857 5.94 16.2857 5.59429 16.2857 5.2381Z" fill="#D9D9D9"/>
<path d="M25.7143 4.19048C26.06 4.19048 26.4057 4.19048 26.7619 4.19048C26.7619 4.53619 26.7619 4.8819 26.7619 5.2381C26.4162 5.2381 26.0705 5.2381 25.7143 5.2381C25.7143 4.89238 25.7143 4.54667 25.7143 4.19048Z" fill="#D9D9D9"/>
<path d="M15.2381 4.19048C15.5838 4.19048 15.9295 4.19048 16.2857 4.19048C16.2857 4.53619 16.2857 4.8819 16.2857 5.2381C15.94 5.2381 15.5943 5.2381 15.2381 5.2381C15.2381 4.89238 15.2381 4.54667 15.2381 4.19048Z" fill="#D9D9D9"/>
<path d="M22.5714 3.14286C22.9171 3.14286 23.2629 3.14286 23.619 3.14286C23.619 3.48857 23.619 3.83429 23.619 4.19048C23.2733 4.19048 22.9276 4.19048 22.5714 4.19048C22.5714 3.84476 22.5714 3.49905 22.5714 3.14286Z" fill="#D9D9D9"/>
<path d="M18.381 3.14286C18.7267 3.14286 19.0724 3.14286 19.4286 3.14286C19.4286 3.48857 19.4286 3.83429 19.4286 4.19048C19.0829 4.19048 18.7371 4.19048 18.381 4.19048C18.381 3.84476 18.381 3.49905 18.381 3.14286Z" fill="#D9D9D9"/>
<path d="M21.5238 1.04762C21.8695 1.04762 22.2152 1.04762 22.5714 1.04762C22.5714 1.39333 22.5714 1.73905 22.5714 2.09524C22.2257 2.09524 21.88 2.09524 21.5238 2.09524C21.5238 1.74952 21.5238 1.40381 21.5238 1.04762Z" fill="#D9D9D9"/>
<path d="M19.4286 1.04762C19.7743 1.04762 20.12 1.04762 20.4762 1.04762C20.4762 1.39333 20.4762 1.73905 20.4762 2.09524C20.1305 2.09524 19.7848 2.09524 19.4286 2.09524C19.4286 1.74952 19.4286 1.40381 19.4286 1.04762Z" fill="#D9D9D9"/>
<path d="M22.5714 0C22.9171 0 23.2629 0 23.619 0C23.619 0.345714 23.619 0.691429 23.619 1.04762C23.2733 1.04762 22.9276 1.04762 22.5714 1.04762C22.5714 0.701905 22.5714 0.356191 22.5714 0Z" fill="#D9D9D9"/>
<path d="M18.381 0C18.7267 0 19.0724 0 19.4286 0C19.4286 0.345714 19.4286 0.691429 19.4286 1.04762C19.0829 1.04762 18.7371 1.04762 18.381 1.04762C18.381 0.701905 18.381 0.356191 18.381 0Z" fill="#D9D9D9"/>
<path d="M5.71429 28.2857C5.90286 28.2857 6.09143 28.2857 6.28571 28.2857C6.28571 28.4743 6.28571 28.6629 6.28571 28.8571C6.47429 28.8571 6.66286 28.8571 6.85714 28.8571C6.85714 29.0457 6.85714 29.2343 6.85714 29.4286C6.66857 29.4286 6.48 29.4286 6.28571 29.4286C6.28571 29.9943 6.28571 30.56 6.28571 31.1429C6.47429 31.1429 6.66286 31.1429 6.85714 31.1429C6.85714 31.3314 6.85714 31.52 6.85714 31.7143C6.66857 31.7143 6.48 31.7143 6.28571 31.7143C6.28571 32.0914 6.28571 32.4686 6.28571 32.8571C6.09714 32.8571 5.90857 32.8571 5.71429 32.8571C5.71429 32.48 5.71429 32.1029 5.71429 31.7143C5.52571 31.7143 5.33714 31.7143 5.14286 31.7143C5.14286 31.5257 5.14286 31.3371 5.14286 31.1429C5.33143 31.1429 5.52 31.1429 5.71429 31.1429C5.71429 30.5771 5.71429 30.0114 5.71429 29.4286C5.52571 29.4286 5.33714 29.4286 5.14286 29.4286C5.14286 29.24 5.14286 29.0514 5.14286 28.8571C5.33143 28.8571 5.52 28.8571 5.71429 28.8571C5.71429 28.6686 5.71429 28.48 5.71429 28.2857Z" fill="#D9D9D9"/>
<path d="M6.85714 27.1429C7.04571 27.1429 7.23429 27.1429 7.42857 27.1429C7.42857 27.3314 7.42857 27.52 7.42857 27.7143C7.99429 27.7143 8.56 27.7143 9.14286 27.7143C9.14286 27.5257 9.14286 27.3371 9.14286 27.1429C9.33143 27.1429 9.52 27.1429 9.71429 27.1429C9.71429 27.3314 9.71429 27.52 9.71429 27.7143C10.0914 27.7143 10.4686 27.7143 10.8571 27.7143C10.8571 27.9029 10.8571 28.0914 10.8571 28.2857C10.48 28.2857 10.1029 28.2857 9.71429 28.2857C9.71429 28.4743 9.71429 28.6629 9.71429 28.8571C9.52571 28.8571 9.33714 28.8571 9.14286 28.8571C9.14286 28.6686 9.14286 28.48 9.14286 28.2857C8.57714 28.2857 8.01143 28.2857 7.42857 28.2857C7.42857 28.4743 7.42857 28.6629 7.42857 28.8571C7.24 28.8571 7.05143 28.8571 6.85714 28.8571C6.85714 28.6686 6.85714 28.48 6.85714 28.2857C6.66857 28.2857 6.48 28.2857 6.28571 28.2857C6.28571 28.0971 6.28571 27.9086 6.28571 27.7143C6.47429 27.7143 6.66286 27.7143 6.85714 27.7143C6.85714 27.5257 6.85714 27.3371 6.85714 27.1429Z" fill="#D9D9D9"/>
<path d="M2.28571 27.1429C2.47429 27.1429 2.66286 27.1429 2.85714 27.1429C2.85714 27.3314 2.85714 27.52 2.85714 27.7143C3.42286 27.7143 3.98857 27.7143 4.57143 27.7143C4.57143 27.5257 4.57143 27.3371 4.57143 27.1429C4.76 27.1429 4.94857 27.1429 5.14286 27.1429C5.14286 27.3314 5.14286 27.52 5.14286 27.7143C5.33143 27.7143 5.52 27.7143 5.71429 27.7143C5.71429 27.9029 5.71429 28.0914 5.71429 28.2857C5.52571 28.2857 5.33714 28.2857 5.14286 28.2857C5.14286 28.4743 5.14286 28.6629 5.14286 28.8571C4.95429 28.8571 4.76571 28.8571 4.57143 28.8571C4.57143 28.6686 4.57143 28.48 4.57143 28.2857C4.00571 28.2857 3.44 28.2857 2.85714 28.2857C2.85714 28.4743 2.85714 28.6629 2.85714 28.8571C2.66857 28.8571 2.48 28.8571 2.28571 28.8571C2.28571 28.6686 2.28571 28.48 2.28571 28.2857C1.90857 28.2857 1.53143 28.2857 1.14286 28.2857C1.14286 28.0971 1.14286 27.9086 1.14286 27.7143C1.52 27.7143 1.89714 27.7143 2.28571 27.7143C2.28571 27.5257 2.28571 27.3371 2.28571 27.1429Z" fill="#D9D9D9"/>
<path d="M5.71429 23.1429C5.90286 23.1429 6.09143 23.1429 6.28571 23.1429C6.28571 23.52 6.28571 23.8971 6.28571 24.2857C6.47429 24.2857 6.66286 24.2857 6.85714 24.2857C6.85714 24.4743 6.85714 24.6629 6.85714 24.8571C6.66857 24.8571 6.48 24.8571 6.28571 24.8571C6.28571 25.4229 6.28571 25.9886 6.28571 26.5714C6.47429 26.5714 6.66286 26.5714 6.85714 26.5714C6.85714 26.76 6.85714 26.9486 6.85714 27.1429C6.66857 27.1429 6.48 27.1429 6.28571 27.1429C6.28571 27.3314 6.28571 27.52 6.28571 27.7143C6.09714 27.7143 5.90857 27.7143 5.71429 27.7143C5.71429 27.5257 5.71429 27.3371 5.71429 27.1429C5.52571 27.1429 5.33714 27.1429 5.14286 27.1429C5.14286 26.9543 5.14286 26.7657 5.14286 26.5714C5.33143 26.5714 5.52 26.5714 5.71429 26.5714C5.71429 26.0057 5.71429 25.44 5.71429 24.8571C5.52571 24.8571 5.33714 24.8571 5.14286 24.8571C5.14286 24.6686 5.14286 24.48 5.14286 24.2857C5.33143 24.2857 5.52 24.2857 5.71429 24.2857C5.71429 23.9086 5.71429 23.5314 5.71429 23.1429Z" fill="#D9D9D9"/>
<path d="M9.14286 31.7143C9.52 31.7143 9.89714 31.7143 10.2857 31.7143C10.2857 31.9029 10.2857 32.0914 10.2857 32.2857C10.0971 32.2857 9.90857 32.2857 9.71429 32.2857C9.71429 32.4743 9.71429 32.6629 9.71429 32.8571C9.52571 32.8571 9.33714 32.8571 9.14286 32.8571C9.14286 32.48 9.14286 32.1029 9.14286 31.7143Z" fill="#D9D9D9"/>
<path d="M1.71429 31.7143C2.09143 31.7143 2.46857 31.7143 2.85714 31.7143C2.85714 32.0914 2.85714 32.4686 2.85714 32.8571C2.66857 32.8571 2.48 32.8571 2.28571 32.8571C2.28571 32.6686 2.28571 32.48 2.28571 32.2857C2.09714 32.2857 1.90857 32.2857 1.71429 32.2857C1.71429 32.0971 1.71429 31.9086 1.71429 31.7143Z" fill="#D9D9D9"/>
<path d="M9.14286 23.1429C9.33143 23.1429 9.52 23.1429 9.71429 23.1429C9.71429 23.3314 9.71429 23.52 9.71429 23.7143C9.90286 23.7143 10.0914 23.7143 10.2857 23.7143C10.2857 23.9029 10.2857 24.0914 10.2857 24.2857C9.90857 24.2857 9.53143 24.2857 9.14286 24.2857C9.14286 23.9086 9.14286 23.5314 9.14286 23.1429Z" fill="#D9D9D9"/>
<path d="M2.28571 23.1429C2.47429 23.1429 2.66286 23.1429 2.85714 23.1429C2.85714 23.52 2.85714 23.8971 2.85714 24.2857C2.48 24.2857 2.10286 24.2857 1.71429 24.2857C1.71429 24.0971 1.71429 23.9086 1.71429 23.7143C1.90286 23.7143 2.09143 23.7143 2.28571 23.7143C2.28571 23.5257 2.28571 23.3371 2.28571 23.1429Z" fill="#D9D9D9"/>
<path d="M6.85714 33.4286C7.04571 33.4286 7.23429 33.4286 7.42857 33.4286C7.42857 33.6171 7.42857 33.8057 7.42857 34C7.24 34 7.05143 34 6.85714 34C6.85714 33.8114 6.85714 33.6229 6.85714 33.4286Z" fill="#D9D9D9"/>
<path d="M4.57143 33.4286C4.76 33.4286 4.94857 33.4286 5.14286 33.4286C5.14286 33.6171 5.14286 33.8057 5.14286 34C4.95429 34 4.76571 34 4.57143 34C4.57143 33.8114 4.57143 33.6229 4.57143 33.4286Z" fill="#D9D9D9"/>
<path d="M6.28571 32.8571C6.47429 32.8571 6.66286 32.8571 6.85714 32.8571C6.85714 33.0457 6.85714 33.2343 6.85714 33.4286C6.66857 33.4286 6.48 33.4286 6.28571 33.4286C6.28571 33.24 6.28571 33.0514 6.28571 32.8571Z" fill="#D9D9D9"/>
<path d="M5.14286 32.8571C5.33143 32.8571 5.52 32.8571 5.71429 32.8571C5.71429 33.0457 5.71429 33.2343 5.71429 33.4286C5.52571 33.4286 5.33714 33.4286 5.14286 33.4286C5.14286 33.24 5.14286 33.0514 5.14286 32.8571Z" fill="#D9D9D9"/>
<path d="M6.85714 31.7143C7.04571 31.7143 7.23429 31.7143 7.42857 31.7143C7.42857 31.9029 7.42857 32.0914 7.42857 32.2857C7.24 32.2857 7.05143 32.2857 6.85714 32.2857C6.85714 32.0971 6.85714 31.9086 6.85714 31.7143Z" fill="#D9D9D9"/>
<path d="M4.57143 31.7143C4.76 31.7143 4.94857 31.7143 5.14286 31.7143C5.14286 31.9029 5.14286 32.0914 5.14286 32.2857C4.95429 32.2857 4.76571 32.2857 4.57143 32.2857C4.57143 32.0971 4.57143 31.9086 4.57143 31.7143Z" fill="#D9D9D9"/>
<path d="M8.57143 31.1429C8.76 31.1429 8.94857 31.1429 9.14286 31.1429C9.14286 31.3314 9.14286 31.52 9.14286 31.7143C8.95429 31.7143 8.76571 31.7143 8.57143 31.7143C8.57143 31.5257 8.57143 31.3371 8.57143 31.1429Z" fill="#D9D9D9"/>
<path d="M2.85714 31.1429C3.04571 31.1429 3.23429 31.1429 3.42857 31.1429C3.42857 31.3314 3.42857 31.52 3.42857 31.7143C3.24 31.7143 3.05143 31.7143 2.85714 31.7143C2.85714 31.5257 2.85714 31.3371 2.85714 31.1429Z" fill="#D9D9D9"/>
<path d="M8 30.5714C8.18857 30.5714 8.37714 30.5714 8.57143 30.5714C8.57143 30.76 8.57143 30.9486 8.57143 31.1429C8.38286 31.1429 8.19429 31.1429 8 31.1429C8 30.9543 8 30.7657 8 30.5714Z" fill="#D9D9D9"/>
<path d="M3.42857 30.5714C3.61714 30.5714 3.80571 30.5714 4 30.5714C4 30.76 4 30.9486 4 31.1429C3.81143 31.1429 3.62286 31.1429 3.42857 31.1429C3.42857 30.9543 3.42857 30.7657 3.42857 30.5714Z" fill="#D9D9D9"/>
<path d="M7.42857 30C7.61714 30 7.80571 30 8 30C8 30.1886 8 30.3771 8 30.5714C7.81143 30.5714 7.62286 30.5714 7.42857 30.5714C7.42857 30.3829 7.42857 30.1943 7.42857 30Z" fill="#D9D9D9"/>
<path d="M4 30C4.18857 30 4.37714 30 4.57143 30C4.57143 30.1886 4.57143 30.3771 4.57143 30.5714C4.38286 30.5714 4.19429 30.5714 4 30.5714C4 30.3829 4 30.1943 4 30Z" fill="#D9D9D9"/>
<path d="M6.85714 29.4286C7.04571 29.4286 7.23429 29.4286 7.42857 29.4286C7.42857 29.6171 7.42857 29.8057 7.42857 30C7.24 30 7.05143 30 6.85714 30C6.85714 29.8114 6.85714 29.6229 6.85714 29.4286Z" fill="#D9D9D9"/>
<path d="M4.57143 29.4286C4.76 29.4286 4.94857 29.4286 5.14286 29.4286C5.14286 29.6171 5.14286 29.8057 5.14286 30C4.95429 30 4.76571 30 4.57143 30C4.57143 29.8114 4.57143 29.6229 4.57143 29.4286Z" fill="#D9D9D9"/>
<path d="M11.4286 28.8571C11.6171 28.8571 11.8057 28.8571 12 28.8571C12 29.0457 12 29.2343 12 29.4286C11.8114 29.4286 11.6229 29.4286 11.4286 29.4286C11.4286 29.24 11.4286 29.0514 11.4286 28.8571Z" fill="#D9D9D9"/>
<path d="M9.71429 28.8571C9.90286 28.8571 10.0914 28.8571 10.2857 28.8571C10.2857 29.0457 10.2857 29.2343 10.2857 29.4286C10.0971 29.4286 9.90857 29.4286 9.71429 29.4286C9.71429 29.24 9.71429 29.0514 9.71429 28.8571Z" fill="#D9D9D9"/>
<path d="M1.71429 28.8571C1.90286 28.8571 2.09143 28.8571 2.28571 28.8571C2.28571 29.0457 2.28571 29.2343 2.28571 29.4286C2.09714 29.4286 1.90857 29.4286 1.71429 29.4286C1.71429 29.24 1.71429 29.0514 1.71429 28.8571Z" fill="#D9D9D9"/>
<path d="M0 28.8571C0.188571 28.8571 0.377143 28.8571 0.571429 28.8571C0.571429 29.0457 0.571429 29.2343 0.571429 29.4286C0.382857 29.4286 0.194286 29.4286 0 29.4286C0 29.24 0 29.0514 0 28.8571Z" fill="#D9D9D9"/>
<path d="M10.8571 28.2857C11.0457 28.2857 11.2343 28.2857 11.4286 28.2857C11.4286 28.4743 11.4286 28.6629 11.4286 28.8571C11.24 28.8571 11.0514 28.8571 10.8571 28.8571C10.8571 28.6686 10.8571 28.48 10.8571 28.2857Z" fill="#D9D9D9"/>
<path d="M0.571429 28.2857C0.76 28.2857 0.948571 28.2857 1.14286 28.2857C1.14286 28.4743 1.14286 28.6629 1.14286 28.8571C0.954286 28.8571 0.765714 28.8571 0.571429 28.8571C0.571429 28.6686 0.571429 28.48 0.571429 28.2857Z" fill="#D9D9D9"/>
<path d="M10.8571 27.1429C11.0457 27.1429 11.2343 27.1429 11.4286 27.1429C11.4286 27.3314 11.4286 27.52 11.4286 27.7143C11.24 27.7143 11.0514 27.7143 10.8571 27.7143C10.8571 27.5257 10.8571 27.3371 10.8571 27.1429Z" fill="#D9D9D9"/>
<path d="M0.571429 27.1429C0.76 27.1429 0.948571 27.1429 1.14286 27.1429C1.14286 27.3314 1.14286 27.52 1.14286 27.7143C0.954286 27.7143 0.765714 27.7143 0.571429 27.7143C0.571429 27.5257 0.571429 27.3371 0.571429 27.1429Z" fill="#D9D9D9"/>
<path d="M11.4286 26.5714C11.6171 26.5714 11.8057 26.5714 12 26.5714C12 26.76 12 26.9486 12 27.1429C11.8114 27.1429 11.6229 27.1429 11.4286 27.1429C11.4286 26.9543 11.4286 26.7657 11.4286 26.5714Z" fill="#D9D9D9"/>
<path d="M9.71429 26.5714C9.90286 26.5714 10.0914 26.5714 10.2857 26.5714C10.2857 26.76 10.2857 26.9486 10.2857 27.1429C10.0971 27.1429 9.90857 27.1429 9.71429 27.1429C9.71429 26.9543 9.71429 26.7657 9.71429 26.5714Z" fill="#D9D9D9"/>
<path d="M1.71429 26.5714C1.90286 26.5714 2.09143 26.5714 2.28571 26.5714C2.28571 26.76 2.28571 26.9486 2.28571 27.1429C2.09714 27.1429 1.90857 27.1429 1.71429 27.1429C1.71429 26.9543 1.71429 26.7657 1.71429 26.5714Z" fill="#D9D9D9"/>
<path d="M0 26.5714C0.188571 26.5714 0.377143 26.5714 0.571429 26.5714C0.571429 26.76 0.571429 26.9486 0.571429 27.1429C0.382857 27.1429 0.194286 27.1429 0 27.1429C0 26.9543 0 26.7657 0 26.5714Z" fill="#D9D9D9"/>
<path d="M6.85714 26C7.04571 26 7.23429 26 7.42857 26C7.42857 26.1886 7.42857 26.3771 7.42857 26.5714C7.24 26.5714 7.05143 26.5714 6.85714 26.5714C6.85714 26.3829 6.85714 26.1943 6.85714 26Z" fill="#D9D9D9"/>
<path d="M4.57143 26C4.76 26 4.94857 26 5.14286 26C5.14286 26.1886 5.14286 26.3771 5.14286 26.5714C4.95429 26.5714 4.76571 26.5714 4.57143 26.5714C4.57143 26.3829 4.57143 26.1943 4.57143 26Z" fill="#D9D9D9"/>
<path d="M7.42857 25.4286C7.61714 25.4286 7.80571 25.4286 8 25.4286C8 25.6171 8 25.8057 8 26C7.81143 26 7.62286 26 7.42857 26C7.42857 25.8114 7.42857 25.6229 7.42857 25.4286Z" fill="#D9D9D9"/>
<path d="M4 25.4286C4.18857 25.4286 4.37714 25.4286 4.57143 25.4286C4.57143 25.6171 4.57143 25.8057 4.57143 26C4.38286 26 4.19429 26 4 26C4 25.8114 4 25.6229 4 25.4286Z" fill="#D9D9D9"/>
<path d="M8 24.8571C8.18857 24.8571 8.37714 24.8571 8.57143 24.8571C8.57143 25.0457 8.57143 25.2343 8.57143 25.4286C8.38286 25.4286 8.19429 25.4286 8 25.4286C8 25.24 8 25.0514 8 24.8571Z" fill="#D9D9D9"/>
<path d="M3.42857 24.8571C3.61714 24.8571 3.80571 24.8571 4 24.8571C4 25.0457 4 25.2343 4 25.4286C3.81143 25.4286 3.62286 25.4286 3.42857 25.4286C3.42857 25.24 3.42857 25.0514 3.42857 24.8571Z" fill="#D9D9D9"/>
<path d="M8.57143 24.2857C8.76 24.2857 8.94857 24.2857 9.14286 24.2857C9.14286 24.4743 9.14286 24.6629 9.14286 24.8571C8.95429 24.8571 8.76571 24.8571 8.57143 24.8571C8.57143 24.6686 8.57143 24.48 8.57143 24.2857Z" fill="#D9D9D9"/>
<path d="M2.85714 24.2857C3.04571 24.2857 3.23429 24.2857 3.42857 24.2857C3.42857 24.4743 3.42857 24.6629 3.42857 24.8571C3.24 24.8571 3.05143 24.8571 2.85714 24.8571C2.85714 24.6686 2.85714 24.48 2.85714 24.2857Z" fill="#D9D9D9"/>
<path d="M6.85714 23.7143C7.04571 23.7143 7.23429 23.7143 7.42857 23.7143C7.42857 23.9029 7.42857 24.0914 7.42857 24.2857C7.24 24.2857 7.05143 24.2857 6.85714 24.2857C6.85714 24.0971 6.85714 23.9086 6.85714 23.7143Z" fill="#D9D9D9"/>
<path d="M4.57143 23.7143C4.76 23.7143 4.94857 23.7143 5.14286 23.7143C5.14286 23.9029 5.14286 24.0914 5.14286 24.2857C4.95429 24.2857 4.76571 24.2857 4.57143 24.2857C4.57143 24.0971 4.57143 23.9086 4.57143 23.7143Z" fill="#D9D9D9"/>
<path d="M6.28571 22.5714C6.47429 22.5714 6.66286 22.5714 6.85714 22.5714C6.85714 22.76 6.85714 22.9486 6.85714 23.1429C6.66857 23.1429 6.48 23.1429 6.28571 23.1429C6.28571 22.9543 6.28571 22.7657 6.28571 22.5714Z" fill="#D9D9D9"/>
<path d="M5.14286 22.5714C5.33143 22.5714 5.52 22.5714 5.71429 22.5714C5.71429 22.76 5.71429 22.9486 5.71429 23.1429C5.52571 23.1429 5.33714 23.1429 5.14286 23.1429C5.14286 22.9543 5.14286 22.7657 5.14286 22.5714Z" fill="#D9D9D9"/>
<path d="M6.85714 22C7.04571 22 7.23429 22 7.42857 22C7.42857 22.1886 7.42857 22.3771 7.42857 22.5714C7.24 22.5714 7.05143 22.5714 6.85714 22.5714C6.85714 22.3829 6.85714 22.1943 6.85714 22Z" fill="#D9D9D9"/>
<path d="M4.57143 22C4.76 22 4.94857 22 5.14286 22C5.14286 22.1886 5.14286 22.3771 5.14286 22.5714C4.95429 22.5714 4.76571 22.5714 4.57143 22.5714C4.57143 22.3829 4.57143 22.1943 4.57143 22Z" fill="#D9D9D9"/>
</svg>
