<svg width="66" height="60" viewBox="0 0 66 60" fill="none" xmlns="http://www.w3.org/2000/svg">
<path d="M29.7736 1.12583C20.1431 3.70293 11.7496 10.1901 5.29978 19.9653L2.03071 24.9418L3.97448 26.5414L5.91825 28.141L2.82589 32.8508C-1.32671 39.0714 -1.06165 40.4044 4.68131 40.1378L9.01061 39.9601L8.74555 46.3584C8.48049 51.6015 8.6572 53.1122 9.89414 54.0897C11.1311 55.1561 11.6612 55.1561 13.2516 54.0897C20.1431 49.7353 19.5246 49.7353 23.8539 54.1786C28.4483 58.9773 32.6893 61.0212 34.5447 59.5105C35.1632 58.9773 35.9583 55.9559 36.2234 52.6678C36.7535 45.0254 41.7013 34.6281 46.0306 31.9622C49.7414 29.6517 57.1631 29.4739 60.6972 31.6067C62.8177 32.8508 63.4362 32.8508 64.5848 31.9622C67.4121 29.5628 65.7334 20.5874 61.9342 18.0991C60.7856 17.3882 59.8137 15.8775 59.8137 14.7223C59.8137 12.1452 56.4563 6.72436 53.3639 4.32499C48.1511 0.148305 38.0788 -1.18468 29.7736 1.12583ZM50.0065 17.2994C49.4764 18.0103 47.7093 18.5435 46.1189 18.5435C43.9985 18.5435 43.1149 18.0103 42.3198 16.3218C41.7013 15.0777 41.2595 13.3004 41.2595 12.3229C41.2595 10.901 41.7896 10.9899 46.1189 13.3893C50.1832 15.522 50.89 16.3218 50.0065 17.2994Z" fill="#403368"/>
</svg>
