<svg width="60" height="60" viewBox="0 0 60 60" fill="none" xmlns="http://www.w3.org/2000/svg">
<g clip-path="url(#clip0_36_50)">
<path fill-rule="evenodd" clip-rule="evenodd" d="M16.5137 55.7978H14.4126V60.0001H33.3228V53.6967H31.2216V57.899L16.5137 57.899V55.7978H16.5137Z" fill="black"/>
<path fill-rule="evenodd" clip-rule="evenodd" d="M52.2329 53.6966V51.5955H50.1318V49.4943H48.0306V53.6966H52.2329Z" fill="black"/>
<path fill-rule="evenodd" clip-rule="evenodd" d="M54.3342 53.6966H56.4353V55.7977H54.3342V53.6966ZM52.233 53.6966H54.3342V55.7977H52.233V53.6966Z" fill="black"/>
<path d="M35.4238 30.5842H43.8284V32.6854H35.4238V30.5842Z" fill="black"/>
<path d="M43.8283 32.6853H45.9294V34.7865H43.8283V32.6853Z" fill="black"/>
<path d="M52.2329 32.6853H54.334V36.8876H52.2329V32.6853Z" fill="black"/>
<path d="M33.3227 34.7864H43.8284V36.8875H33.3227V34.7864Z" fill="black"/>
<path fill-rule="evenodd" clip-rule="evenodd" d="M45.9295 30.5842V32.6854H52.2329V30.5842H50.1318V17.9774H48.0306V30.5842H45.9295Z" fill="black"/>
<path d="M43.8283 24.2808H45.9294V28.483H43.8283V24.2808Z" fill="black"/>
<path d="M37.525 24.2808H41.7273V28.483H37.525V24.2808Z" fill="black"/>
<path d="M54.3342 36.8875H56.4353V45.292H54.3342V36.8875Z" fill="black"/>
<path fill-rule="evenodd" clip-rule="evenodd" d="M54.334 47.4297V45.2922H48.0306V47.3933L54.334 47.4297Z" fill="black"/>
<path fill-rule="evenodd" clip-rule="evenodd" d="M43.8284 47.3933H45.9296V45.2922H48.0307V41.0899H50.1318V38.9888H45.9296V36.8876H43.8284V47.3933Z" fill="black"/>
<path d="M45.9296 47.3933H48.0308V49.4945H45.9296V47.3933Z" fill="black"/>
<path fill-rule="evenodd" clip-rule="evenodd" d="M29.1204 26.3818H27.0192V28.483H24.9181V30.5841H29.1204V26.3818Z" fill="black"/>
<path d="M20.7159 30.5842H24.9182V32.6854H20.7159V30.5842Z" fill="black"/>
<path d="M18.6147 32.6853H20.7158V36.8876H18.6147V32.6853Z" fill="black"/>
<path fill-rule="evenodd" clip-rule="evenodd" d="M29.1205 30.5842V32.6854H31.2216V34.7865H33.3228V30.5842H29.1205Z" fill="black"/>
<path d="M24.9181 47.3933H27.0193V49.4945H24.9181V47.3933Z" fill="black"/>
<path fill-rule="evenodd" clip-rule="evenodd" d="M24.9181 45.292H27.0192V47.3931H29.1204V36.8875H27.0192V38.9886H22.8169V41.0897H24.9181V45.292Z" fill="black"/>
<path fill-rule="evenodd" clip-rule="evenodd" d="M24.9182 49.4944H22.8171V51.5955H20.7159V53.6967H24.9182V49.4944Z" fill="black"/>
<path d="M18.6148 45.2921H24.9182V47.3932H18.6148V45.2921Z" fill="black"/>
<path d="M16.5136 36.8875H18.6147V45.292H16.5136V36.8875Z" fill="black"/>
<path d="M16.5135 53.6966H20.7158V55.7977H16.5135V53.6966Z" fill="black"/>
<path d="M37.5251 51.5955H39.6262V53.6966H37.5251V51.5955Z" fill="black"/>
<path d="M33.3227 51.5955H35.4238V53.6966H33.3227V51.5955Z" fill="black"/>
<path d="M35.4238 49.4944H37.5249V51.5955H35.4238V49.4944Z" fill="black"/>
<path d="M27.0192 15.8762H29.1204V20.0784H27.0192V15.8762Z" fill="black"/>
<path d="M24.9181 20.0784H27.0193V26.3818H24.9181V20.0784Z" fill="black"/>
<path fill-rule="evenodd" clip-rule="evenodd" d="M43.8283 20.0784H45.9294V22.1795H43.8283V20.0784ZM41.7272 20.0784H43.8283V22.1795H41.7272V20.0784Z" fill="black"/>
<path d="M29.1205 13.775H31.2217V15.8762H29.1205V13.775Z" fill="black"/>
<path d="M41.7272 11.6739H43.8284V13.775H41.7272V11.6739Z" fill="black"/>
<path fill-rule="evenodd" clip-rule="evenodd" d="M35.4239 11.6739H31.2216V13.775H37.525V11.6739H41.7273V9.57275H35.4239V11.6739Z" fill="black"/>
<path d="M37.5251 13.775H39.6262V15.8762H37.5251V13.775Z" fill="black"/>
<path fill-rule="evenodd" clip-rule="evenodd" d="M58.5364 60.0001V55.7978H56.4352V57.8626L41.7273 57.8989V53.6967H39.6261V60.0001H58.5363H58.5364Z" fill="black"/>
<path fill-rule="evenodd" clip-rule="evenodd" d="M43.8285 15.8762H39.6262V20.0784H41.7274V17.9773H48.0308V15.8762H45.9296V13.775H43.8285V15.8762Z" fill="black"/>
<path fill-rule="evenodd" clip-rule="evenodd" d="M24.9182 45.292V41.0897H22.8171V38.9886H24.9182V34.7863H22.8171V32.6852H20.7159V36.8875H18.6148V45.292H24.9182Z" fill="#5863FF"/>
<path fill-rule="evenodd" clip-rule="evenodd" d="M31.2217 51.5955H29.1206V49.4943H24.9183V53.6966H20.716V55.7977H16.5137V57.8989L31.2217 57.8989V51.5955Z" fill="#5863FF"/>
<path fill-rule="evenodd" clip-rule="evenodd" d="M48.0308 17.9772H45.9296V22.1795H48.0308V17.9772Z" fill="#5863FF"/>
<path fill-rule="evenodd" clip-rule="evenodd" d="M31.2216 24.2807H33.3228V22.1796H41.7273V20.0784H39.6261V15.8762H37.525V13.775H31.2216V15.8762H29.1205V30.5841H31.2216V24.2807Z" fill="#5863FF"/>
<path fill-rule="evenodd" clip-rule="evenodd" d="M43.8284 43.1909H29.1204V47.3932H31.2216V49.4943H41.7272V47.3932H43.8284V43.1909Z" fill="#5863FF"/>
<path fill-rule="evenodd" clip-rule="evenodd" d="M45.9297 24.2807V22.1796H41.7274V24.2807H45.9297Z" fill="#5863FF"/>
<path fill-rule="evenodd" clip-rule="evenodd" d="M52.2331 36.8875V34.7863H48.0308V38.9886H50.132V41.0897H48.0308V45.292H54.3342V36.8875H52.2331Z" fill="#5863FF"/>
<path fill-rule="evenodd" clip-rule="evenodd" d="M41.7274 51.5955V57.8989L56.4353 57.8989V55.7977H52.233V53.6966H48.0308V49.4943H45.9296V51.5955H41.7274Z" fill="#5863FF"/>
<path fill-rule="evenodd" clip-rule="evenodd" d="M43.8284 15.8762V13.775H41.7272V11.6739H37.525V13.775H39.6261V15.8762H43.8284Z" fill="#07CA89"/>
<path fill-rule="evenodd" clip-rule="evenodd" d="M45.9294 20.0784V17.9772H41.7272V20.0784H45.9294Z" fill="#07CA89"/>
<path fill-rule="evenodd" clip-rule="evenodd" d="M52.2329 34.7864V32.6852H45.9295V34.7864H43.8284V36.8875H45.9295V38.9886H48.0306V34.7864H52.2329Z" fill="#07CA89"/>
<path fill-rule="evenodd" clip-rule="evenodd" d="M24.9182 32.6853H22.817V34.7864H24.9182V38.9887H27.0193V36.8876H29.1204V43.191H43.8284V36.8876H33.3227V34.7864H31.2216V32.6853H29.1204V30.5842H24.9182V32.6853Z" fill="#07CA89"/>
<path fill-rule="evenodd" clip-rule="evenodd" d="M31.2216 49.4944V47.3932H27.0193V49.4944H29.1204V51.5955H31.2216V53.6967H33.3227V51.5955H35.4238V49.4944H31.2216Z" fill="#07CA89"/>
<path fill-rule="evenodd" clip-rule="evenodd" d="M29.1204 20.0784H27.0192V26.3818H29.1204V20.0784Z" fill="#07CA89"/>
<path fill-rule="evenodd" clip-rule="evenodd" d="M45.9294 51.5955V47.3932H41.7272V49.4943H37.5249V51.5955H39.626V53.6966H41.7272V51.5955H45.9294Z" fill="#07CA89"/>
<path fill-rule="evenodd" clip-rule="evenodd" d="M37.525 24.2807H41.7273V22.1796H35.4239V24.2807H33.3227V28.483H35.4239V30.5841H41.7273V28.483H37.525V24.2807Z" fill="white"/>
<path fill-rule="evenodd" clip-rule="evenodd" d="M48.0308 22.1798H45.9296V28.4832H43.8285V30.5844H48.0308V22.1798Z" fill="white"/>
<path d="M43.8283 30.5842H45.9294V32.6853H43.8283V30.5842Z" fill="#F2DDE4"/>
<path d="M33.3227 22.1796H35.4238V24.2808H33.3227V22.1796Z" fill="#F2DDE4"/>
<path fill-rule="evenodd" clip-rule="evenodd" d="M43.8284 24.2807H41.7272V30.5841H43.8284V24.2807Z" fill="#F2DDE4"/>
<path fill-rule="evenodd" clip-rule="evenodd" d="M35.4238 28.4829H33.3227V24.2806H31.2216V30.584H33.3227V34.7863H43.8284V32.6852H35.4238V28.4829Z" fill="#F2DDE4"/>
</g>
<defs>
<clipPath id="clip0_36_50">
<rect width="60" height="60" fill="white" transform="matrix(-1 0 0 1 60 0)"/>
</clipPath>
</defs>
</svg>
