<svg width="85" height="38" viewBox="0 0 85 38" fill="none" xmlns="http://www.w3.org/2000/svg">
<path d="M54.7187 18.4062H60.0625V20.1875H56.5V32.6562H74.3125V20.1875H70.75V18.4062H76.0937V32.6562H77.875V34.4375H52.9375V32.6562H54.7187V18.4062Z" fill="#172280"/>
<path d="M61.8438 21.9688H68.9687V27.3125H61.8438V21.9688Z" fill="#353B99"/>
<path d="M61.8438 27.3125H68.9687V29.0937H67.1875V30.875H63.625V29.0937H61.8438V27.3125Z" fill="#333995"/>
<path d="M61.8438 20.1875H68.9687V21.9687H61.8438V20.1875Z" fill="#393E9B"/>
<path d="M60.0625 4.15625H70.75V5.9375H72.5313V11.2813H70.75V29.0938H68.9688V9.5H70.75V7.71875H68.9688V5.9375H61.8438V7.71875H60.0625V9.5H61.8438V29.0938H60.0625V11.2813H58.2812V5.9375H60.0625V4.15625Z" fill="#D9D9D9"/>
<path d="M63.625 30.875H67.1875V32.6563H63.625V30.875Z" fill="#D9D9D9"/>
<path d="M67.1875 29.0938H68.9688V30.875H67.1875V29.0938Z" fill="#D9D9D9"/>
<path d="M61.8438 29.0938H63.625V30.875H61.8438V29.0938Z" fill="#D9D9D9"/>
<path d="M64.2188 15.4375H64.8125V16.0313H64.2188V15.4375Z" fill="#353B99"/>
<path d="M64.8125 14.8438H65.4063V15.4375H64.8125V14.8438Z" fill="#353B99"/>
<path d="M63.625 14.8438H64.2188V15.4375H63.625V14.8438Z" fill="#353B99"/>
<path d="M64.2188 14.25H64.8125V14.8438H64.2188V14.25Z" fill="#353B99"/>
<path d="M66 10.0938H66.5938V10.6875H66V10.0938Z" fill="#353B99"/>
<path d="M66.5938 9.5H67.1875V10.0938H66.5938V9.5Z" fill="#353B99"/>
<path d="M65.4063 9.5H66V10.0938H65.4063V9.5Z" fill="#353B99"/>
<path d="M66 8.90625H66.5938V9.5H66V8.90625Z" fill="#353B99"/>
<path d="M63.0313 8.3125H63.625V8.90625H63.0313V8.3125Z" fill="#353B99"/>
<path d="M63.625 7.71875H64.2188V8.3125H63.625V7.71875Z" fill="#353B99"/>
<path d="M62.4375 7.71875H63.0313V8.3125H62.4375V7.71875Z" fill="#353B99"/>
<path d="M63.0313 7.125H63.625V7.71875H63.0313V7.125Z" fill="#353B99"/>
<path d="M64.8125 2.375H65.4063V2.96875H64.8125V2.375Z" fill="#353B99"/>
<path d="M69.5625 1.78125H70.1563V2.375H69.5625V1.78125Z" fill="#353B99"/>
<path d="M65.4063 1.78125H66V2.375H65.4063V1.78125Z" fill="#353B99"/>
<path d="M64.2188 1.78125H64.8125V2.375H64.2188V1.78125Z" fill="#353B99"/>
<path d="M70.1563 1.1875H70.75V1.78125H70.1563V1.1875Z" fill="#353B99"/>
<path d="M68.9688 1.1875H69.5625V1.78125H68.9688V1.1875Z" fill="#353B99"/>
<path d="M64.8125 1.1875H65.4063V1.78125H64.8125V1.1875Z" fill="#353B99"/>
<path d="M69.5625 0.59375H70.1563V1.1875H69.5625V0.59375Z" fill="#353B99"/>
<path d="M7.71875 18.4062H13.0625V20.1875H9.5V32.6562H27.3125V20.1875H23.75V18.4062H29.0937V32.6562H30.875V34.4375H5.9375V32.6562H7.71875V18.4062Z" fill="#172280"/>
<path d="M14.8438 21.9688H21.9687V27.3125H14.8438V21.9688Z" fill="#5863FF"/>
<path d="M14.8438 27.3125H21.9687V29.0937H20.1875V30.875H16.625V29.0937H14.8438V27.3125Z" fill="#5661F9"/>
<path d="M14.8438 20.1875H21.9687V21.9687H14.8438V20.1875Z" fill="#5B66FF"/>
<path d="M13.0625 4.15625H23.75V5.9375H25.5313V11.2813H23.75V29.0938H21.9688V9.5H23.75V7.71875H21.9688V5.9375H14.8438V7.71875H13.0625V9.5H14.8438V29.0938H13.0625V11.2813H11.2812V5.9375H13.0625V4.15625Z" fill="#D9D9D9"/>
<path d="M16.625 30.875H20.1875V32.6563H16.625V30.875Z" fill="#D9D9D9"/>
<path d="M20.1875 29.0938H21.9688V30.875H20.1875V29.0938Z" fill="#D9D9D9"/>
<path d="M14.8438 29.0938H16.625V30.875H14.8438V29.0938Z" fill="#D9D9D9"/>
<path d="M17.2188 15.4375H17.8125V16.0313H17.2188V15.4375Z" fill="#5863FF"/>
<path d="M17.8125 14.8438H18.4063V15.4375H17.8125V14.8438Z" fill="#5863FF"/>
<path d="M16.625 14.8438H17.2188V15.4375H16.625V14.8438Z" fill="#5863FF"/>
<path d="M17.2188 14.25H17.8125V14.8438H17.2188V14.25Z" fill="#5863FF"/>
<path d="M19 10.0938H19.5938V10.6875H19V10.0938Z" fill="#5863FF"/>
<path d="M19.5938 9.5H20.1875V10.0938H19.5938V9.5Z" fill="#5863FF"/>
<path d="M18.4063 9.5H19V10.0938H18.4063V9.5Z" fill="#5863FF"/>
<path d="M19 8.90625H19.5938V9.5H19V8.90625Z" fill="#5863FF"/>
<path d="M16.0313 8.3125H16.625V8.90625H16.0313V8.3125Z" fill="#5863FF"/>
<path d="M16.625 7.71875H17.2188V8.3125H16.625V7.71875Z" fill="#5863FF"/>
<path d="M15.4375 7.71875H16.0313V8.3125H15.4375V7.71875Z" fill="#5863FF"/>
<path d="M16.0313 7.125H16.625V7.71875H16.0313V7.125Z" fill="#5863FF"/>
<path d="M17.8125 2.375H18.4063V2.96875H17.8125V2.375Z" fill="#5863FF"/>
<path d="M22.5625 1.78125H23.1563V2.375H22.5625V1.78125Z" fill="#5863FF"/>
<path d="M18.4063 1.78125H19V2.375H18.4063V1.78125Z" fill="#5863FF"/>
<path d="M17.2188 1.78125H17.8125V2.375H17.2188V1.78125Z" fill="#5863FF"/>
<path d="M23.1563 1.1875H23.75V1.78125H23.1563V1.1875Z" fill="#5863FF"/>
<path d="M21.9688 1.1875H22.5625V1.78125H21.9688V1.1875Z" fill="#5863FF"/>
<path d="M17.8125 1.1875H18.4063V1.78125H17.8125V1.1875Z" fill="#5863FF"/>
<path d="M22.5625 0.59375H23.1563V1.1875H22.5625V0.59375Z" fill="#5863FF"/>
<path d="M31.7187 18.4062H37.0625V20.1875H33.5V32.6562H51.3125V20.1875H47.75V18.4062H53.0937V32.6562H54.875V34.4375H29.9375V32.6562H31.7187V18.4062Z" fill="#172280"/>
<path d="M38.8438 21.9688H45.9687V27.3125H38.8438V21.9688Z" fill="#8B5CF6"/>
<path d="M38.8438 27.3125H45.9687V29.0937H44.1875V30.875H40.625V29.0937H38.8438V27.3125Z" fill="#885AF1"/>
<path d="M38.8438 20.1875H45.9687V21.9687H38.8438V20.1875Z" fill="#8D5FF6"/>
<path d="M37.0625 4.15625H47.75V5.9375H49.5313V11.2813H47.75V29.0938H45.9688V9.5H47.75V7.71875H45.9688V5.9375H38.8438V7.71875H37.0625V9.5H38.8438V29.0938H37.0625V11.2813H35.2812V5.9375H37.0625V4.15625Z" fill="#D9D9D9"/>
<path d="M40.625 30.875H44.1875V32.6563H40.625V30.875Z" fill="#D9D9D9"/>
<path d="M44.1875 29.0938H45.9688V30.875H44.1875V29.0938Z" fill="#D9D9D9"/>
<path d="M38.8438 29.0938H40.625V30.875H38.8438V29.0938Z" fill="#D9D9D9"/>
<path d="M41.2188 15.4375H41.8125V16.0313H41.2188V15.4375Z" fill="#8B5CF6"/>
<path d="M41.8125 14.8438H42.4063V15.4375H41.8125V14.8438Z" fill="#8B5CF6"/>
<path d="M40.625 14.8438H41.2188V15.4375H40.625V14.8438Z" fill="#8B5CF6"/>
<path d="M41.2188 14.25H41.8125V14.8438H41.2188V14.25Z" fill="#8B5CF6"/>
<path d="M43 10.0938H43.5938V10.6875H43V10.0938Z" fill="#8B5CF6"/>
<path d="M43.5938 9.5H44.1875V10.0938H43.5938V9.5Z" fill="#8B5CF6"/>
<path d="M42.4063 9.5H43V10.0938H42.4063V9.5Z" fill="#8B5CF6"/>
<path d="M43 8.90625H43.5938V9.5H43V8.90625Z" fill="#8B5CF6"/>
<path d="M40.0313 8.3125H40.625V8.90625H40.0313V8.3125Z" fill="#8B5CF6"/>
<path d="M40.625 7.71875H41.2188V8.3125H40.625V7.71875Z" fill="#8B5CF6"/>
<path d="M39.4375 7.71875H40.0313V8.3125H39.4375V7.71875Z" fill="#8B5CF6"/>
<path d="M40.0313 7.125H40.625V7.71875H40.0313V7.125Z" fill="#8B5CF6"/>
<path d="M41.8125 2.375H42.4063V2.96875H41.8125V2.375Z" fill="#8B5CF6"/>
<path d="M46.5625 1.78125H47.1563V2.375H46.5625V1.78125Z" fill="#8B5CF6"/>
<path d="M42.4063 1.78125H43V2.375H42.4063V1.78125Z" fill="#8B5CF6"/>
<path d="M41.2188 1.78125H41.8125V2.375H41.2188V1.78125Z" fill="#8B5CF6"/>
<path d="M47.1563 1.1875H47.75V1.78125H47.1563V1.1875Z" fill="#8B5CF6"/>
<path d="M45.9688 1.1875H46.5625V1.78125H45.9688V1.1875Z" fill="#8B5CF6"/>
<path d="M41.8125 1.1875H42.4063V1.78125H41.8125V1.1875Z" fill="#8B5CF6"/>
<path d="M46.5625 0.59375H47.1563V1.1875H46.5625V0.59375Z" fill="#8B5CF6"/>
</svg>
