<svg width="138" height="123" viewBox="0 0 138 123" fill="none" xmlns="http://www.w3.org/2000/svg">
<g filter="url(#filter0_f_36_19)">
<path d="M88.6272 120.346L52.0275 83.6409C52.6645 82.1554 52.9825 80.458 52.9825 78.7611C52.9825 77.0639 52.6645 75.3666 52.0275 73.8812L76.4274 49.4814C77.5939 49.9057 78.7616 50.1183 80.0345 50.1183C84.5966 50.1183 88.628 47.4662 90.4314 43.5413C90.6441 43.5413 90.7494 43.5413 90.9621 43.4349L105.815 40.5701C107.087 40.3574 108.149 39.2971 108.36 38.0243L111.225 23.1717C111.543 21.3682 110.377 19.6711 108.679 19.353C106.876 19.0351 105.179 20.2016 104.861 21.8988L102.42 34.6288L91.3872 36.7503C90.6449 31.764 86.7189 27.8391 81.7337 27.0968L83.8552 16.0638L96.5851 13.6232C98.3887 13.3053 99.45 11.6081 99.1309 9.80453C98.813 8.00099 97.1158 6.93968 95.3122 7.25873L80.4597 10.1236C79.1868 10.3363 78.1255 11.3965 77.9139 12.6694L75.049 27.5219C75.049 27.7346 75.049 27.8399 74.9427 28.0525C71.0178 29.9624 68.3656 33.8874 68.3656 38.4494C68.3656 39.7224 68.5783 40.9953 69.0026 42.0566L44.6027 66.4564C43.1172 65.8194 41.4198 65.5015 39.7229 65.5015C32.5086 65.5015 26.5684 71.3363 26.5684 78.656C26.5684 85.8702 32.4032 91.8104 39.7229 91.8104C41.4201 91.8104 43.1173 91.4925 44.6027 90.8555L73.9897 120.242H21.3691V130.639H116.635V120.242H88.628L88.6272 120.346ZM80.0337 33.4596C82.7921 33.4596 85.1265 35.6875 85.1265 38.5524C85.1265 41.3108 82.8987 43.6452 80.0337 43.6452C77.2753 43.6452 74.9409 41.4174 74.9409 38.5524C74.9409 35.794 77.2751 33.4596 80.0337 33.4596ZM39.825 85.4441C36.1117 85.4441 33.1415 82.4739 33.1415 78.7605C33.1415 75.0472 36.1117 72.077 39.825 72.077C43.5384 72.077 46.5086 75.0472 46.5086 78.7605C46.4023 82.4728 43.4322 85.4441 39.825 85.4441Z" fill="#000335"/>
</g>
<defs>
<filter id="filter0_f_36_19" x="-4" y="-4" width="146" height="146" filterUnits="userSpaceOnUse" color-interpolation-filters="sRGB">
<feFlood flood-opacity="0" result="BackgroundImageFix"/>
<feBlend mode="normal" in="SourceGraphic" in2="BackgroundImageFix" result="shape"/>
<feGaussianBlur stdDeviation="2" result="effect1_foregroundBlur_36_19"/>
</filter>
</defs>
</svg>
