<svg width="176" height="181" viewBox="0 0 176 181" fill="none" xmlns="http://www.w3.org/2000/svg">
<g filter="url(#filter0_f_36_17)">
<path d="M101.941 180.519L47.0415 125.461C47.997 123.233 48.4739 120.687 48.4739 118.142C48.4739 115.596 47.997 113.05 47.0415 110.822L83.6413 74.2221C85.3911 74.8585 87.1426 75.1775 89.052 75.1775C95.8951 75.1775 101.942 71.1993 104.647 65.3119C104.966 65.3119 105.124 65.3119 105.443 65.1524L127.722 60.8551C129.631 60.5361 131.223 58.9457 131.541 57.0364L135.838 34.7576C136.315 32.0523 134.565 29.5066 132.019 29.0295C129.314 28.5526 126.768 30.3024 126.291 32.8482L122.631 51.9432L106.081 55.1254C104.968 47.646 99.0786 41.7586 91.6007 40.6451L94.783 24.0957L113.878 20.4349C116.583 19.9579 118.175 17.4121 117.697 14.7068C117.22 12.0015 114.674 10.4095 111.969 10.8881L89.6898 15.1854C87.7804 15.5044 86.1885 17.0947 85.8711 19.0041L81.5738 41.2828C81.5738 41.6019 81.5738 41.7598 81.4143 42.0788C75.5269 44.9436 71.5486 50.831 71.5486 57.6742C71.5486 59.5835 71.8677 61.4929 72.5041 63.0849L35.9043 99.6847C33.676 98.7292 31.13 98.2522 28.5845 98.2522C17.7631 98.2522 8.85284 107.004 8.85284 117.984C8.85284 128.805 17.6051 137.716 28.5845 137.716C31.1304 137.716 33.6763 137.239 35.9043 136.283L79.9848 180.364H1.05396V195.959H143.953V180.364H101.942L101.941 180.519ZM89.0508 50.1894C93.1884 50.1894 96.69 53.5312 96.69 57.8286C96.69 61.9662 93.3482 65.4678 89.0508 65.4678C84.9132 65.4678 81.4116 62.1261 81.4116 57.8286C81.4116 53.6911 84.9129 50.1894 89.0508 50.1894ZM28.7378 128.166C23.1678 128.166 18.7124 123.711 18.7124 118.141C18.7124 112.571 23.1678 108.115 28.7378 108.115C34.3078 108.115 38.7631 112.571 38.7631 118.141C38.6036 123.709 34.1485 128.166 28.7378 128.166Z" fill="black"/>
</g>
<defs>
<filter id="filter0_f_36_17" x="-35" y="-4" width="215" height="215" filterUnits="userSpaceOnUse" color-interpolation-filters="sRGB">
<feFlood flood-opacity="0" result="BackgroundImageFix"/>
<feBlend mode="normal" in="SourceGraphic" in2="BackgroundImageFix" result="shape"/>
<feGaussianBlur stdDeviation="2" result="effect1_foregroundBlur_36_17"/>
</filter>
</defs>
</svg>
