<svg width="167" height="89" viewBox="0 0 167 89" fill="none" xmlns="http://www.w3.org/2000/svg">
<g clip-path="url(#clip0_44_453)">
<path d="M81.9752 59H52V88.9939H81.9752V59Z" fill="black"/>
<path d="M57.5873 81.5145H52V87.1622H57.5873V81.5145Z" fill="#A8AEFF"/>
<path d="M81.9751 81.5145H74.5757V87.1622H81.9751V81.5145Z" fill="#A8AEFF"/>
<path d="M65.0622 73.9969H52V79.6447H65.0622V73.9969Z" fill="#A8AEFF"/>
<path d="M80.0876 59H67.0254V64.5332H80.0876V59Z" fill="#A8AEFF"/>
<path d="M65.0622 59H52V64.5332H65.0622V59Z" fill="#A8AEFF"/>
<path d="M57.5873 66.4413H52V72.089H57.5873V66.4413Z" fill="#A8AEFF"/>
<path d="M81.975 66.4413H74.6511V72.089H81.975V66.4413Z" fill="#A8AEFF"/>
<path d="M72.6882 66.4413H59.324V72.089H72.6882V66.4413Z" fill="#A8AEFF"/>
<path d="M80.1631 73.9969H67.1008V79.6447H80.1631V73.9969Z" fill="#A8AEFF"/>
<path d="M72.6125 81.5145H59.5503V87.1622H72.6125V81.5145Z" fill="#A8AEFF"/>
</g>
<g clip-path="url(#clip1_44_453)">
<path d="M111.975 29H82V58.9939H111.975V29Z" fill="black"/>
<path d="M87.5873 51.5145H82V57.1622H87.5873V51.5145Z" fill="#A8AEFF"/>
<path d="M111.975 51.5145H104.576V57.1622H111.975V51.5145Z" fill="#A8AEFF"/>
<path d="M95.0622 43.9969H82V49.6447H95.0622V43.9969Z" fill="#A8AEFF"/>
<path d="M110.088 29H97.0254V34.5332H110.088V29Z" fill="#A8AEFF"/>
<path d="M95.0622 29H82V34.5332H95.0622V29Z" fill="#A8AEFF"/>
<path d="M87.5873 36.4413H82V42.089H87.5873V36.4413Z" fill="#A8AEFF"/>
<path d="M111.975 36.4413H104.651V42.089H111.975V36.4413Z" fill="#A8AEFF"/>
<path d="M102.688 36.4413H89.324V42.089H102.688V36.4413Z" fill="#A8AEFF"/>
<path d="M110.163 43.9969H97.1008V49.6447H110.163V43.9969Z" fill="#A8AEFF"/>
<path d="M102.613 51.5145H89.5503V57.1622H102.613V51.5145Z" fill="#A8AEFF"/>
</g>
<g clip-path="url(#clip2_44_453)">
<path d="M111.975 59H82V88.9939H111.975V59Z" fill="black"/>
<path d="M87.5873 81.5145H82V87.1622H87.5873V81.5145Z" fill="#A8AEFF"/>
<path d="M111.975 81.5145H104.576V87.1622H111.975V81.5145Z" fill="#A8AEFF"/>
<path d="M95.0622 73.9969H82V79.6447H95.0622V73.9969Z" fill="#A8AEFF"/>
<path d="M110.088 59H97.0254V64.5332H110.088V59Z" fill="#A8AEFF"/>
<path d="M95.0622 59H82V64.5332H95.0622V59Z" fill="#A8AEFF"/>
<path d="M87.5873 66.4413H82V72.089H87.5873V66.4413Z" fill="#A8AEFF"/>
<path d="M111.975 66.4413H104.651V72.089H111.975V66.4413Z" fill="#A8AEFF"/>
<path d="M102.688 66.4413H89.324V72.089H102.688V66.4413Z" fill="#A8AEFF"/>
<path d="M110.163 73.9969H97.1008V79.6447H110.163V73.9969Z" fill="#A8AEFF"/>
<path d="M102.613 81.5145H89.5503V87.1622H102.613V81.5145Z" fill="#A8AEFF"/>
</g>
<g clip-path="url(#clip3_44_453)">
<path d="M141.975 29H112V58.9939H141.975V29Z" fill="black"/>
<path d="M117.587 51.5145H112V57.1622H117.587V51.5145Z" fill="#A8AEFF"/>
<path d="M141.975 51.5145H134.576V57.1622H141.975V51.5145Z" fill="#A8AEFF"/>
<path d="M125.062 43.9969H112V49.6447H125.062V43.9969Z" fill="#A8AEFF"/>
<path d="M140.088 29H127.025V34.5332H140.088V29Z" fill="#A8AEFF"/>
<path d="M125.062 29H112V34.5332H125.062V29Z" fill="#A8AEFF"/>
<path d="M117.587 36.4413H112V42.089H117.587V36.4413Z" fill="#A8AEFF"/>
<path d="M141.975 36.4413H134.651V42.089H141.975V36.4413Z" fill="#A8AEFF"/>
<path d="M132.688 36.4413H119.324V42.089H132.688V36.4413Z" fill="#A8AEFF"/>
<path d="M140.163 43.9969H127.101V49.6447H140.163V43.9969Z" fill="#A8AEFF"/>
<path d="M132.613 51.5145H119.55V57.1622H132.613V51.5145Z" fill="#A8AEFF"/>
</g>
<g clip-path="url(#clip4_44_453)">
<path d="M141.975 59H112V88.9939H141.975V59Z" fill="black"/>
<path d="M117.587 81.5145H112V87.1622H117.587V81.5145Z" fill="#A8AEFF"/>
<path d="M141.975 81.5145H134.576V87.1622H141.975V81.5145Z" fill="#A8AEFF"/>
<path d="M125.062 73.9969H112V79.6447H125.062V73.9969Z" fill="#A8AEFF"/>
<path d="M140.088 59H127.025V64.5332H140.088V59Z" fill="#A8AEFF"/>
<path d="M125.062 59H112V64.5332H125.062V59Z" fill="#A8AEFF"/>
<path d="M117.587 66.4413H112V72.089H117.587V66.4413Z" fill="#A8AEFF"/>
<path d="M141.975 66.4413H134.651V72.089H141.975V66.4413Z" fill="#A8AEFF"/>
<path d="M132.688 66.4413H119.324V72.089H132.688V66.4413Z" fill="#A8AEFF"/>
<path d="M140.163 73.9969H127.101V79.6447H140.163V73.9969Z" fill="#A8AEFF"/>
<path d="M132.613 81.5145H119.55V87.1622H132.613V81.5145Z" fill="#A8AEFF"/>
</g>
<g clip-path="url(#clip5_44_453)">
<path d="M171.975 59H142V88.9939H171.975V59Z" fill="black"/>
<path d="M147.587 81.5145H142V87.1622H147.587V81.5145Z" fill="#A8AEFF"/>
<path d="M171.975 81.5145H164.576V87.1622H171.975V81.5145Z" fill="#A8AEFF"/>
<path d="M155.062 73.9969H142V79.6447H155.062V73.9969Z" fill="#A8AEFF"/>
<path d="M170.088 59H157.025V64.5332H170.088V59Z" fill="#A8AEFF"/>
<path d="M155.062 59H142V64.5332H155.062V59Z" fill="#A8AEFF"/>
<path d="M147.587 66.4413H142V72.089H147.587V66.4413Z" fill="#A8AEFF"/>
<path d="M171.975 66.4413H164.651V72.089H171.975V66.4413Z" fill="#A8AEFF"/>
<path d="M162.688 66.4413H149.324V72.089H162.688V66.4413Z" fill="#A8AEFF"/>
<path d="M170.163 73.9969H157.101V79.6447H170.163V73.9969Z" fill="#A8AEFF"/>
<path d="M162.613 81.5145H149.55V87.1622H162.613V81.5145Z" fill="#A8AEFF"/>
</g>
<g clip-path="url(#clip6_44_453)">
<path d="M141.975 0H112V29.9939H141.975V0Z" fill="black"/>
<path d="M117.587 22.5145H112V28.1622H117.587V22.5145Z" fill="#A8AEFF"/>
<path d="M141.975 22.5145H134.576V28.1622H141.975V22.5145Z" fill="#A8AEFF"/>
<path d="M125.062 14.9969H112V20.6447H125.062V14.9969Z" fill="#A8AEFF"/>
<path d="M140.088 0H127.025V5.53322H140.088V0Z" fill="#A8AEFF"/>
<path d="M125.062 0H112V5.53322H125.062V0Z" fill="#A8AEFF"/>
<path d="M117.587 7.44128H112V13.089H117.587V7.44128Z" fill="#A8AEFF"/>
<path d="M141.975 7.44128H134.651V13.089H141.975V7.44128Z" fill="#A8AEFF"/>
<path d="M132.688 7.44128H119.324V13.089H132.688V7.44128Z" fill="#A8AEFF"/>
<path d="M140.163 14.9969H127.101V20.6447H140.163V14.9969Z" fill="#A8AEFF"/>
<path d="M132.613 22.5145H119.55V28.1622H132.613V22.5145Z" fill="#A8AEFF"/>
</g>
<g clip-path="url(#clip7_44_453)">
<path d="M51.9752 59H22V88.9939H51.9752V59Z" fill="black"/>
<path d="M27.5873 81.5145H22V87.1622H27.5873V81.5145Z" fill="#A8AEFF"/>
<path d="M51.9751 81.5145H44.5757V87.1622H51.9751V81.5145Z" fill="#A8AEFF"/>
<path d="M35.0622 73.9969H22V79.6447H35.0622V73.9969Z" fill="#A8AEFF"/>
<path d="M50.0876 59H37.0254V64.5332H50.0876V59Z" fill="#A8AEFF"/>
<path d="M35.0622 59H22V64.5332H35.0622V59Z" fill="#A8AEFF"/>
<path d="M27.5873 66.4413H22V72.089H27.5873V66.4413Z" fill="#A8AEFF"/>
<path d="M51.975 66.4413H44.6511V72.089H51.975V66.4413Z" fill="#A8AEFF"/>
<path d="M42.6882 66.4413H29.324V72.089H42.6882V66.4413Z" fill="#A8AEFF"/>
<path d="M50.1631 73.9969H37.1008V79.6447H50.1631V73.9969Z" fill="#A8AEFF"/>
<path d="M42.6125 81.5145H29.5503V87.1622H42.6125V81.5145Z" fill="#A8AEFF"/>
</g>
<g clip-path="url(#clip8_44_453)">
<path d="M21.9752 59H-8V88.9939H21.9752V59Z" fill="black"/>
<path d="M21.9751 81.5145H14.5757V87.1622H21.9751V81.5145Z" fill="#A8AEFF"/>
<path d="M5.06223 73.9969H-8V79.6447H5.06223V73.9969Z" fill="#A8AEFF"/>
<path d="M20.0876 59H7.02539V64.5332H20.0876V59Z" fill="#A8AEFF"/>
<path d="M5.06223 59H-8V64.5332H5.06223V59Z" fill="#A8AEFF"/>
<path d="M21.975 66.4413H14.6511V72.089H21.975V66.4413Z" fill="#A8AEFF"/>
<path d="M12.6882 66.4413H-0.676025V72.089H12.6882V66.4413Z" fill="#A8AEFF"/>
<path d="M20.1631 73.9969H7.10083V79.6447H20.1631V73.9969Z" fill="#A8AEFF"/>
<path d="M12.6125 81.5145H-0.449707V87.1622H12.6125V81.5145Z" fill="#A8AEFF"/>
</g>
<defs>
<clipPath id="clip0_44_453">
<rect width="30" height="30" fill="white" transform="translate(52 59)"/>
</clipPath>
<clipPath id="clip1_44_453">
<rect width="30" height="30" fill="white" transform="translate(82 29)"/>
</clipPath>
<clipPath id="clip2_44_453">
<rect width="30" height="30" fill="white" transform="translate(82 59)"/>
</clipPath>
<clipPath id="clip3_44_453">
<rect width="30" height="30" fill="white" transform="translate(112 29)"/>
</clipPath>
<clipPath id="clip4_44_453">
<rect width="30" height="30" fill="white" transform="translate(112 59)"/>
</clipPath>
<clipPath id="clip5_44_453">
<rect width="30" height="30" fill="white" transform="translate(142 59)"/>
</clipPath>
<clipPath id="clip6_44_453">
<rect width="30" height="30" fill="white" transform="translate(112)"/>
</clipPath>
<clipPath id="clip7_44_453">
<rect width="30" height="30" fill="white" transform="translate(22 59)"/>
</clipPath>
<clipPath id="clip8_44_453">
<rect width="30" height="30" fill="white" transform="translate(-8 59)"/>
</clipPath>
</defs>
</svg>
